<?xml version="1.0" encoding="UTF-8"?>
<svg width="670px" height="670px" viewBox="0 0 670 670" version="1.1" xmlns="http://www.w3.org/2000/svg" xmlns:xlink="http://www.w3.org/1999/xlink">
    <!-- Generator: Sketch 47.1 (45422) - http://www.bohemiancoding.com/sketch -->
    <title>illustration_5</title>
    <desc>Created with Sketch.</desc>
    <defs></defs>
    <g id="Symbols" stroke="none" stroke-width="1" fill="none" fill-rule="evenodd">
        <g id="illustration_5">
            <g id="Group-4" transform="translate(122.000000, 95.000000)" stroke="#A96FDC">
                <polyline id="Path-23" fill="#232323" points="0 131.999524 0 0 144 0 144 132"></polyline>
                <rect id="Rectangle" fill="#232323" x="12" y="26" width="119" height="53"></rect>
                <rect id="Rectangle-28" fill="#232323" x="102" y="109" width="28" height="18"></rect>
                <path d="M62,13 L80,13" id="Path-24"></path>
                <rect id="Rectangle-28" fill="#232323" x="16" y="109" width="28" height="18"></rect>
                <rect id="Rectangle-28" fill="#232323" x="59" y="109" width="28" height="18"></rect>
                <path d="M50,94 L92,94" id="Path-25" fill="#232323"></path>
            </g>
            <g id="Group-5" transform="translate(396.000000, 95.000000)" stroke="#A96FDC" fill="#232323">
                <rect id="Rectangle-29" x="0" y="0" width="153" height="92"></rect>
                <rect id="Rectangle-29" x="10" y="11" width="153" height="92"></rect>
                <path d="M133.449975,111.376951 L140.922294,101.549651 L102,92 L118.114092,131.5461 L125.916542,121.284625 L144.953438,137 L153,128.137413 L133.449975,111.376951 Z" id="Combined-Shape"></path>
            </g>
            <path d="M119.484375,270.1875 C118.22916,270.1875 117.238285,270.605465 116.511719,271.441406 C115.785153,272.277348 115.421875,273.421868 115.421875,274.875 C115.421875,276.369799 115.772132,277.524736 116.472656,278.339844 C117.173181,279.154952 118.171869,279.5625 119.46875,279.5625 C120.265629,279.5625 121.174474,279.419272 122.195312,279.132812 L122.195312,280.296875 C121.403642,280.593751 120.427089,280.742188 119.265625,280.742188 C117.583325,280.742188 116.285161,280.231776 115.371094,279.210938 C114.457027,278.190099 114,276.739593 114,274.859375 C114,273.682286 114.22005,272.651046 114.660156,271.765625 C115.100263,270.880204 115.735673,270.197919 116.566406,269.71875 C117.39714,269.239581 118.374994,269 119.5,269 C120.697923,269 121.744787,269.218748 122.640625,269.65625 L122.078125,270.796875 C121.213537,270.390623 120.348963,270.1875 119.484375,270.1875 Z M131.882812,276.296875 C131.882812,277.692715 131.531254,278.782548 130.828125,279.566406 C130.124996,280.350264 129.153652,280.742188 127.914062,280.742188 C127.148434,280.742188 126.468753,280.562502 125.875,280.203125 C125.281247,279.843748 124.822918,279.328128 124.5,278.65625 C124.177082,277.984372 124.015625,277.197921 124.015625,276.296875 C124.015625,274.901035 124.36458,273.813806 125.0625,273.035156 C125.76042,272.256507 126.72916,271.867188 127.96875,271.867188 C129.166673,271.867188 130.118486,272.265621 130.824219,273.0625 C131.529951,273.859379 131.882812,274.937493 131.882812,276.296875 Z M125.359375,276.296875 C125.359375,277.39063 125.578123,278.223955 126.015625,278.796875 C126.453127,279.369795 127.09635,279.65625 127.945312,279.65625 C128.794275,279.65625 129.4388,279.371097 129.878906,278.800781 C130.319013,278.230466 130.539062,277.395839 130.539062,276.296875 C130.539062,275.208328 130.319013,274.381513 129.878906,273.816406 C129.4388,273.251299 128.789067,272.96875 127.929688,272.96875 C127.080725,272.96875 126.440106,273.247393 126.007812,273.804688 C125.575519,274.361982 125.359375,275.192703 125.359375,276.296875 Z M135.789062,275.578125 C137.408862,275.578125 138.21875,275.130213 138.21875,274.234375 C138.21875,273.390621 137.562507,272.96875 136.25,272.96875 C135.848956,272.96875 135.484377,273.005208 135.15625,273.078125 C134.828123,273.151042 134.39844,273.296874 133.867188,273.515625 L133.40625,272.460938 C134.291671,272.065102 135.257807,271.867188 136.304688,271.867188 C137.289067,271.867188 138.065101,272.069008 138.632812,272.472656 C139.200524,272.876304 139.484375,273.42708 139.484375,274.125 C139.484375,275.083338 138.950526,275.710936 137.882812,276.007812 L137.882812,276.070312 C138.539066,276.263022 139.018228,276.537759 139.320312,276.894531 C139.622397,277.251304 139.773438,277.697914 139.773438,278.234375 C139.773438,279.026046 139.45443,279.641925 138.816406,280.082031 C138.178382,280.522138 137.296881,280.742188 136.171875,280.742188 C134.937494,280.742188 133.984378,280.557294 133.3125,280.1875 L133.3125,279 C134.26563,279.447919 135.229162,279.671875 136.203125,279.671875 C136.953129,279.671875 137.519529,279.54297 137.902344,279.285156 C138.285158,279.027342 138.476562,278.656252 138.476562,278.171875 C138.476562,277.177078 137.666675,276.679688 136.046875,276.679688 L134.859375,276.679688 L134.859375,275.578125 L135.789062,275.578125 Z M149.320312,283.546875 L148.0625,283.546875 L148.0625,280.585938 L142.078125,280.585938 L142.078125,283.546875 L140.828125,283.546875 L140.828125,279.46875 L141.5,279.46875 C142.19792,278.520829 142.74479,277.408861 143.140625,276.132812 C143.53646,274.856764 143.742187,273.486986 143.757812,272.023438 L148.09375,272.023438 L148.09375,279.46875 L149.320312,279.46875 L149.320312,283.546875 Z M146.84375,279.46875 L146.84375,273.046875 L144.921875,273.046875 C144.854166,274.203131 144.631512,275.373692 144.253906,276.558594 C143.8763,277.743496 143.406253,278.713538 142.84375,279.46875 L146.84375,279.46875 Z M156.296875,280.585938 L156.039062,279.367188 L155.976562,279.367188 C155.549477,279.903649 155.1237,280.266926 154.699219,280.457031 C154.274737,280.647136 153.744795,280.742188 153.109375,280.742188 C152.260412,280.742188 151.595054,280.52344 151.113281,280.085938 C150.631508,279.648435 150.390625,279.026046 150.390625,278.21875 C150.390625,276.489575 151.773424,275.583334 154.539062,275.5 L155.992188,275.453125 L155.992188,274.921875 C155.992188,274.249997 155.847658,273.753908 155.558594,273.433594 C155.26953,273.11328 154.807295,272.953125 154.171875,272.953125 C153.45833,272.953125 152.651046,273.171873 151.75,273.609375 L151.351562,272.617188 C151.77344,272.38802 152.235675,272.208334 152.738281,272.078125 C153.240888,271.947916 153.744789,271.882812 154.25,271.882812 C155.270838,271.882812 156.027341,272.109373 156.519531,272.5625 C157.011721,273.015627 157.257812,273.742183 157.257812,274.742188 L157.257812,280.585938 L156.296875,280.585938 Z M153.367188,279.671875 C154.174483,279.671875 154.808591,279.450523 155.269531,279.007812 C155.730471,278.565102 155.960938,277.945316 155.960938,277.148438 L155.960938,276.375 L154.664062,276.429688 C153.632807,276.466146 152.889325,276.626301 152.433594,276.910156 C151.977862,277.194012 151.75,277.635414 151.75,278.234375 C151.75,278.703127 151.891926,279.059895 152.175781,279.304688 C152.459637,279.54948 152.856768,279.671875 153.367188,279.671875 Z M161.226562,272.023438 L161.226562,275.609375 L166.023438,275.609375 L166.023438,272.023438 L167.320312,272.023438 L167.320312,280.585938 L166.023438,280.585938 L166.023438,276.726562 L161.226562,276.726562 L161.226562,280.585938 L159.929688,280.585938 L159.929688,272.023438 L161.226562,272.023438 Z M171.289062,272.023438 L171.289062,277.453125 L171.234375,278.875 L171.210938,279.320312 L175.84375,272.023438 L177.460938,272.023438 L177.460938,280.585938 L176.25,280.585938 L176.25,275.351562 L176.273438,274.320312 L176.3125,273.304688 L171.6875,280.585938 L170.070312,280.585938 L170.070312,272.023438 L171.289062,272.023438 Z M183.828125,280.742188 C182.562494,280.742188 181.563806,280.356775 180.832031,279.585938 C180.100257,278.8151 179.734375,277.744799 179.734375,276.375 C179.734375,274.994785 180.074215,273.898442 180.753906,273.085938 C181.433597,272.273433 182.346348,271.867188 183.492188,271.867188 C184.56511,271.867188 185.414059,272.220049 186.039062,272.925781 C186.664066,273.631514 186.976562,274.562494 186.976562,275.71875 L186.976562,276.539062 L181.078125,276.539062 C181.104167,277.544276 181.358071,278.307289 181.839844,278.828125 C182.321617,279.348961 182.999996,279.609375 183.875,279.609375 C184.79688,279.609375 185.708329,279.416669 186.609375,279.03125 L186.609375,280.1875 C186.151039,280.385418 185.71745,280.527343 185.308594,280.613281 C184.899738,280.699219 184.406253,280.742188 183.828125,280.742188 Z M183.476562,272.953125 C182.789059,272.953125 182.240887,273.177081 181.832031,273.625 C181.423175,274.072919 181.182292,274.692704 181.109375,275.484375 L185.585938,275.484375 C185.585938,274.666663 185.403648,274.040367 185.039062,273.605469 C184.674477,273.170571 184.153649,272.953125 183.476562,272.953125 Z M199.726562,280.585938 L198.414062,280.585938 L198.414062,273.132812 L195.84375,273.132812 C195.703124,274.986988 195.507814,276.458328 195.257812,277.546875 C195.007811,278.635422 194.683596,279.432289 194.285156,279.9375 C193.886717,280.442711 193.380211,280.695312 192.765625,280.695312 C192.484374,280.695312 192.260418,280.664063 192.09375,280.601562 L192.09375,279.640625 C192.208334,279.671875 192.338541,279.6875 192.484375,279.6875 C193.083336,279.6875 193.559894,279.054694 193.914062,277.789062 C194.268231,276.523431 194.536457,274.601575 194.71875,272.023438 L199.726562,272.023438 L199.726562,280.585938 Z M206.09375,280.742188 C204.828119,280.742188 203.829431,280.356775 203.097656,279.585938 C202.365882,278.8151 202,277.744799 202,276.375 C202,274.994785 202.33984,273.898442 203.019531,273.085938 C203.699222,272.273433 204.611973,271.867188 205.757812,271.867188 C206.830735,271.867188 207.679684,272.220049 208.304688,272.925781 C208.929691,273.631514 209.242188,274.562494 209.242188,275.71875 L209.242188,276.539062 L203.34375,276.539062 C203.369792,277.544276 203.623696,278.307289 204.105469,278.828125 C204.587242,279.348961 205.265621,279.609375 206.140625,279.609375 C207.062505,279.609375 207.973954,279.416669 208.875,279.03125 L208.875,280.1875 C208.416664,280.385418 207.983075,280.527343 207.574219,280.613281 C207.165363,280.699219 206.671878,280.742188 206.09375,280.742188 Z M205.742188,272.953125 C205.054684,272.953125 204.506512,273.177081 204.097656,273.625 C203.6888,274.072919 203.447917,274.692704 203.375,275.484375 L207.851562,275.484375 C207.851562,274.666663 207.669273,274.040367 207.304688,273.605469 C206.940102,273.170571 206.419274,272.953125 205.742188,272.953125 Z M212.75,272.023438 L212.75,275.609375 L217.546875,275.609375 L217.546875,272.023438 L218.84375,272.023438 L218.84375,280.585938 L217.546875,280.585938 L217.546875,276.726562 L212.75,276.726562 L212.75,280.585938 L211.453125,280.585938 L211.453125,272.023438 L212.75,272.023438 Z M229.03125,283.546875 L227.773438,283.546875 L227.773438,280.585938 L221.789062,280.585938 L221.789062,283.546875 L220.539062,283.546875 L220.539062,279.46875 L221.210938,279.46875 C221.908858,278.520829 222.455727,277.408861 222.851562,276.132812 C223.247398,274.856764 223.453125,273.486986 223.46875,272.023438 L227.804688,272.023438 L227.804688,279.46875 L229.03125,279.46875 L229.03125,283.546875 Z M226.554688,279.46875 L226.554688,273.046875 L224.632812,273.046875 C224.565104,274.203131 224.34245,275.373692 223.964844,276.558594 C223.587238,277.743496 223.11719,278.713538 222.554688,279.46875 L226.554688,279.46875 Z M231.960938,272.023438 L231.960938,277.453125 L231.90625,278.875 L231.882812,279.320312 L236.515625,272.023438 L238.132812,272.023438 L238.132812,280.585938 L236.921875,280.585938 L236.921875,275.351562 L236.945312,274.320312 L236.984375,273.304688 L232.359375,280.585938 L230.742188,280.585938 L230.742188,272.023438 L231.960938,272.023438 Z M242.179688,272.023438 L242.179688,275.609375 L246.976562,275.609375 L246.976562,272.023438 L248.273438,272.023438 L248.273438,280.585938 L246.976562,280.585938 L246.976562,276.726562 L242.179688,276.726562 L242.179688,280.585938 L240.882812,280.585938 L240.882812,272.023438 L242.179688,272.023438 Z M256.179688,273.132812 L252.320312,273.132812 L252.320312,280.585938 L251.023438,280.585938 L251.023438,272.023438 L256.179688,272.023438 L256.179688,273.132812 Z M265.109375,276.296875 C265.109375,277.692715 264.757816,278.782548 264.054688,279.566406 C263.351559,280.350264 262.380215,280.742188 261.140625,280.742188 C260.374996,280.742188 259.695315,280.562502 259.101562,280.203125 C258.50781,279.843748 258.049481,279.328128 257.726562,278.65625 C257.403644,277.984372 257.242188,277.197921 257.242188,276.296875 C257.242188,274.901035 257.591142,273.813806 258.289062,273.035156 C258.986983,272.256507 259.955723,271.867188 261.195312,271.867188 C262.393235,271.867188 263.345049,272.265621 264.050781,273.0625 C264.756514,273.859379 265.109375,274.937493 265.109375,276.296875 Z M258.585938,276.296875 C258.585938,277.39063 258.804685,278.223955 259.242188,278.796875 C259.67969,279.369795 260.322912,279.65625 261.171875,279.65625 C262.020838,279.65625 262.665362,279.371097 263.105469,278.800781 C263.545575,278.230466 263.765625,277.395839 263.765625,276.296875 C263.765625,275.208328 263.545575,274.381513 263.105469,273.816406 C262.665362,273.251299 262.015629,272.96875 261.15625,272.96875 C260.307287,272.96875 259.666669,273.247393 259.234375,273.804688 C258.802081,274.361982 258.585938,275.192703 258.585938,276.296875 Z M274.328125,274.171875 C274.328125,274.729169 274.16797,275.152342 273.847656,275.441406 C273.527342,275.73047 273.078128,275.924479 272.5,276.023438 L272.5,276.09375 C273.22917,276.192709 273.761717,276.406248 274.097656,276.734375 C274.433595,277.062502 274.601562,277.515622 274.601562,278.09375 C274.601562,278.890629 274.308597,279.505206 273.722656,279.9375 C273.136716,280.369794 272.281256,280.585938 271.15625,280.585938 L267.382812,280.585938 L267.382812,272.023438 L271.140625,272.023438 C273.265636,272.023438 274.328125,272.739576 274.328125,274.171875 Z M273.304688,278.007812 C273.304688,277.544269 273.128908,277.207032 272.777344,276.996094 C272.425779,276.785155 271.843754,276.679688 271.03125,276.679688 L268.679688,276.679688 L268.679688,279.5 L271.0625,279.5 C272.557299,279.5 273.304688,279.002609 273.304688,278.007812 Z M273.0625,274.296875 C273.0625,273.880206 272.902345,273.584636 272.582031,273.410156 C272.261717,273.235676 271.776045,273.148438 271.125,273.148438 L268.679688,273.148438 L268.679688,275.5625 L270.875,275.5625 C271.677087,275.5625 272.242186,275.463543 272.570312,275.265625 C272.898439,275.067707 273.0625,274.744794 273.0625,274.296875 Z" id="Создание-лендингов" fill="#FFFFFF"></path>
            <path d="M407.507812,275.53125 C407.507812,277.359384 407.045578,278.79687 406.121094,279.84375 C405.19661,280.89063 403.911467,281.414062 402.265625,281.414062 C400.583325,281.414062 399.285161,280.899745 398.371094,279.871094 C397.457027,278.842443 397,277.390634 397,275.515625 C397,273.656241 397.458329,272.214849 398.375,271.191406 C399.291671,270.167964 400.593742,269.65625 402.28125,269.65625 C403.921883,269.65625 405.20312,270.177078 406.125,271.21875 C407.04688,272.260422 407.507812,273.697907 407.507812,275.53125 Z M398.40625,275.53125 C398.40625,277.078133 398.735674,278.251298 399.394531,279.050781 C400.053389,279.850264 401.01041,280.25 402.265625,280.25 C403.531256,280.25 404.486976,279.851566 405.132812,279.054688 C405.778649,278.257809 406.101562,277.083341 406.101562,275.53125 C406.101562,273.994784 405.779951,272.829431 405.136719,272.035156 C404.493486,271.240881 403.541673,270.84375 402.28125,270.84375 C401.015619,270.84375 400.053389,271.243486 399.394531,272.042969 C398.735674,272.842452 398.40625,274.005201 398.40625,275.53125 Z M415.632812,273.804688 L412.851562,273.804688 L412.851562,281.257812 L411.554688,281.257812 L411.554688,273.804688 L408.804688,273.804688 L408.804688,272.695312 L415.632812,272.695312 L415.632812,273.804688 Z M421.3125,281.414062 C420.755206,281.414062 420.246096,281.311199 419.785156,281.105469 C419.324216,280.899739 418.937502,280.583335 418.625,280.15625 L418.53125,280.15625 C418.59375,280.656252 418.625,281.130206 418.625,281.578125 L418.625,285.101562 L417.328125,285.101562 L417.328125,272.695312 L418.382812,272.695312 L418.5625,273.867188 L418.625,273.867188 C418.958335,273.398435 419.346352,273.059897 419.789062,272.851562 C420.231773,272.643228 420.73958,272.539062 421.3125,272.539062 C422.447922,272.539062 423.324216,272.927079 423.941406,273.703125 C424.558597,274.479171 424.867188,275.567701 424.867188,276.96875 C424.867188,278.375007 424.553389,279.467444 423.925781,280.246094 C423.298174,281.024743 422.427089,281.414062 421.3125,281.414062 Z M421.125,273.640625 C420.249996,273.640625 419.617189,273.88281 419.226562,274.367188 C418.835936,274.851565 418.635417,275.622391 418.625,276.679688 L418.625,276.96875 C418.625,278.171881 418.825519,279.032549 419.226562,279.550781 C419.627606,280.069013 420.270829,280.328125 421.15625,280.328125 C421.895837,280.328125 422.475258,280.028649 422.894531,279.429688 C423.313804,278.830726 423.523438,278.005214 423.523438,276.953125 C423.523438,275.885411 423.313804,275.066409 422.894531,274.496094 C422.475258,273.925778 421.88542,273.640625 421.125,273.640625 Z M428.351562,272.695312 L428.351562,278.125 L428.296875,279.546875 L428.273438,279.992188 L432.90625,272.695312 L434.523438,272.695312 L434.523438,281.257812 L433.3125,281.257812 L433.3125,276.023438 L433.335938,274.992188 L433.375,273.976562 L428.75,281.257812 L427.132812,281.257812 L427.132812,272.695312 L428.351562,272.695312 Z M440.695312,281.414062 C439.455723,281.414062 438.496097,281.032556 437.816406,280.269531 C437.136715,279.506507 436.796875,278.42709 436.796875,277.03125 C436.796875,275.598951 437.141924,274.492191 437.832031,273.710938 C438.522139,272.929684 439.505202,272.539062 440.78125,272.539062 C441.19271,272.539062 441.604165,272.583333 442.015625,272.671875 C442.427085,272.760417 442.749999,272.864583 442.984375,272.984375 L442.585938,274.085938 C442.299478,273.971354 441.986981,273.876302 441.648438,273.800781 C441.309894,273.72526 441.010418,273.6875 440.75,273.6875 C439.010408,273.6875 438.140625,274.796864 438.140625,277.015625 C438.140625,278.067714 438.352862,278.874997 438.777344,279.4375 C439.201825,280.000003 439.830725,280.28125 440.664062,280.28125 C441.377608,280.28125 442.109371,280.127606 442.859375,279.820312 L442.859375,280.96875 C442.286455,281.265626 441.565109,281.414062 440.695312,281.414062 Z M452.28125,276.96875 C452.28125,278.36459 451.929691,279.454423 451.226562,280.238281 C450.523434,281.022139 449.55209,281.414062 448.3125,281.414062 C447.546871,281.414062 446.86719,281.234377 446.273438,280.875 C445.679685,280.515623 445.221356,280.000003 444.898438,279.328125 C444.575519,278.656247 444.414062,277.869796 444.414062,276.96875 C444.414062,275.57291 444.763017,274.485681 445.460938,273.707031 C446.158858,272.928382 447.127598,272.539062 448.367188,272.539062 C449.56511,272.539062 450.516924,272.937496 451.222656,273.734375 C451.928389,274.531254 452.28125,275.609368 452.28125,276.96875 Z M445.757812,276.96875 C445.757812,278.062505 445.97656,278.89583 446.414062,279.46875 C446.851565,280.04167 447.494787,280.328125 448.34375,280.328125 C449.192713,280.328125 449.837237,280.042972 450.277344,279.472656 C450.71745,278.902341 450.9375,278.067714 450.9375,276.96875 C450.9375,275.880203 450.71745,275.053388 450.277344,274.488281 C449.837237,273.923174 449.187504,273.640625 448.328125,273.640625 C447.479162,273.640625 446.838544,273.919268 446.40625,274.476562 C445.973956,275.033857 445.757812,275.864578 445.757812,276.96875 Z M461.5,274.84375 C461.5,275.401044 461.339845,275.824217 461.019531,276.113281 C460.699217,276.402345 460.250003,276.596354 459.671875,276.695312 L459.671875,276.765625 C460.401045,276.864584 460.933592,277.078123 461.269531,277.40625 C461.60547,277.734377 461.773438,278.187497 461.773438,278.765625 C461.773438,279.562504 461.480472,280.177081 460.894531,280.609375 C460.308591,281.041669 459.453131,281.257812 458.328125,281.257812 L454.554688,281.257812 L454.554688,272.695312 L458.3125,272.695312 C460.437511,272.695312 461.5,273.411451 461.5,274.84375 Z M460.476562,278.679688 C460.476562,278.216144 460.300783,277.878907 459.949219,277.667969 C459.597654,277.45703 459.015629,277.351562 458.203125,277.351562 L455.851562,277.351562 L455.851562,280.171875 L458.234375,280.171875 C459.729174,280.171875 460.476562,279.674484 460.476562,278.679688 Z M460.234375,274.96875 C460.234375,274.552081 460.07422,274.256511 459.753906,274.082031 C459.433592,273.907551 458.94792,273.820312 458.296875,273.820312 L455.851562,273.820312 L455.851562,276.234375 L458.046875,276.234375 C458.848962,276.234375 459.414061,276.135418 459.742188,275.9375 C460.070314,275.739582 460.234375,275.416669 460.234375,274.96875 Z M468.648438,272.695312 L470.070312,272.695312 L466.375,276.828125 L470.375,281.257812 L468.859375,281.257812 L464.953125,276.921875 L464.953125,281.257812 L463.65625,281.257812 L463.65625,272.695312 L464.953125,272.695312 L464.953125,276.859375 L468.648438,272.695312 Z M477.226562,281.257812 L476.96875,280.039062 L476.90625,280.039062 C476.479165,280.575524 476.053388,280.938801 475.628906,281.128906 C475.204425,281.319011 474.674482,281.414062 474.039062,281.414062 C473.1901,281.414062 472.524742,281.195315 472.042969,280.757812 C471.561196,280.32031 471.320312,279.697921 471.320312,278.890625 C471.320312,277.16145 472.703111,276.255209 475.46875,276.171875 L476.921875,276.125 L476.921875,275.59375 C476.921875,274.921872 476.777345,274.425783 476.488281,274.105469 C476.199217,273.785155 475.736982,273.625 475.101562,273.625 C474.388017,273.625 473.580734,273.843748 472.679688,274.28125 L472.28125,273.289062 C472.703127,273.059895 473.165362,272.880209 473.667969,272.75 C474.170575,272.619791 474.674477,272.554688 475.179688,272.554688 C476.200526,272.554688 476.957029,272.781248 477.449219,273.234375 C477.941409,273.687502 478.1875,274.414058 478.1875,275.414062 L478.1875,281.257812 L477.226562,281.257812 Z M474.296875,280.34375 C475.104171,280.34375 475.738279,280.122398 476.199219,279.679688 C476.660159,279.236977 476.890625,278.617191 476.890625,277.820312 L476.890625,277.046875 L475.59375,277.101562 C474.562495,277.138021 473.819013,277.298176 473.363281,277.582031 C472.90755,277.865887 472.679688,278.307289 472.679688,278.90625 C472.679688,279.375002 472.821613,279.73177 473.105469,279.976562 C473.389324,280.221355 473.786456,280.34375 474.296875,280.34375 Z M484.570312,276.125 C484.570312,274.249991 484.846351,272.787766 485.398438,271.738281 C485.950524,270.688797 486.825515,270.033855 488.023438,269.773438 C489.513028,269.455728 490.825515,269.197918 491.960938,269 L492.203125,270.140625 C490.395824,270.44271 489.104171,270.682291 488.328125,270.859375 C487.572913,271.031251 487.006512,271.437497 486.628906,272.078125 C486.2513,272.718753 486.044271,273.59114 486.007812,274.695312 L486.101562,274.695312 C486.424481,274.25781 486.841143,273.914064 487.351562,273.664062 C487.861982,273.414061 488.395831,273.289062 488.953125,273.289062 C490.005214,273.289062 490.825518,273.630205 491.414062,274.3125 C492.002607,274.994795 492.296875,275.940098 492.296875,277.148438 C492.296875,278.486986 491.955733,279.532548 491.273438,280.285156 C490.591142,281.037764 489.640631,281.414062 488.421875,281.414062 C487.218744,281.414062 486.276045,280.95313 485.59375,280.03125 C484.911455,279.10937 484.570312,277.8073 484.570312,276.125 Z M488.539062,280.328125 C490.127612,280.328125 490.921875,279.315114 490.921875,277.289062 C490.921875,275.356761 490.200528,274.390625 488.757812,274.390625 C488.361977,274.390625 487.980471,274.472655 487.613281,274.636719 C487.246092,274.800782 486.910158,275.018228 486.605469,275.289062 C486.30078,275.559897 486.065105,275.83854 485.898438,276.125 C485.898438,277.494799 486.114581,278.537757 486.546875,279.253906 C486.979169,279.970056 487.643225,280.328125 488.539062,280.328125 Z M499.820312,281.257812 L499.5625,280.039062 L499.5,280.039062 C499.072915,280.575524 498.647138,280.938801 498.222656,281.128906 C497.798175,281.319011 497.268232,281.414062 496.632812,281.414062 C495.78385,281.414062 495.118492,281.195315 494.636719,280.757812 C494.154946,280.32031 493.914062,279.697921 493.914062,278.890625 C493.914062,277.16145 495.296861,276.255209 498.0625,276.171875 L499.515625,276.125 L499.515625,275.59375 C499.515625,274.921872 499.371095,274.425783 499.082031,274.105469 C498.792967,273.785155 498.330732,273.625 497.695312,273.625 C496.981767,273.625 496.174484,273.843748 495.273438,274.28125 L494.875,273.289062 C495.296877,273.059895 495.759112,272.880209 496.261719,272.75 C496.764325,272.619791 497.268227,272.554688 497.773438,272.554688 C498.794276,272.554688 499.550779,272.781248 500.042969,273.234375 C500.535159,273.687502 500.78125,274.414058 500.78125,275.414062 L500.78125,281.257812 L499.820312,281.257812 Z M496.890625,280.34375 C497.697921,280.34375 498.332029,280.122398 498.792969,279.679688 C499.253909,279.236977 499.484375,278.617191 499.484375,277.820312 L499.484375,277.046875 L498.1875,277.101562 C497.156245,277.138021 496.412763,277.298176 495.957031,277.582031 C495.5013,277.865887 495.273438,278.307289 495.273438,278.90625 C495.273438,279.375002 495.415363,279.73177 495.699219,279.976562 C495.983074,280.221355 496.380206,280.34375 496.890625,280.34375 Z M504.75,272.695312 L504.75,276.28125 L509.546875,276.28125 L509.546875,272.695312 L510.84375,272.695312 L510.84375,281.257812 L509.546875,281.257812 L509.546875,277.398438 L504.75,277.398438 L504.75,281.257812 L503.453125,281.257812 L503.453125,272.695312 L504.75,272.695312 Z M514.890625,272.695312 L514.890625,276.28125 L519.6875,276.28125 L519.6875,272.695312 L520.984375,272.695312 L520.984375,281.257812 L519.6875,281.257812 L519.6875,277.398438 L514.890625,277.398438 L514.890625,281.257812 L513.59375,281.257812 L513.59375,272.695312 L514.890625,272.695312 Z M527.351562,281.414062 C526.085931,281.414062 525.087243,281.02865 524.355469,280.257812 C523.623694,279.486975 523.257812,278.416674 523.257812,277.046875 C523.257812,275.66666 523.597653,274.570317 524.277344,273.757812 C524.957035,272.945308 525.869786,272.539062 527.015625,272.539062 C528.088547,272.539062 528.937497,272.891924 529.5625,273.597656 C530.187503,274.303389 530.5,275.234369 530.5,276.390625 L530.5,277.210938 L524.601562,277.210938 C524.627604,278.216151 524.881508,278.979164 525.363281,279.5 C525.845054,280.020836 526.523433,280.28125 527.398438,280.28125 C528.320317,280.28125 529.231766,280.088544 530.132812,279.703125 L530.132812,280.859375 C529.674477,281.057293 529.240887,281.199218 528.832031,281.285156 C528.423175,281.371094 527.92969,281.414062 527.351562,281.414062 Z M527,273.625 C526.312497,273.625 525.764325,273.848956 525.355469,274.296875 C524.946613,274.744794 524.70573,275.364579 524.632812,276.15625 L529.109375,276.15625 C529.109375,275.338538 528.927085,274.712242 528.5625,274.277344 C528.197915,273.842446 527.677087,273.625 527,273.625 Z M536.695312,281.414062 C536.138018,281.414062 535.628909,281.311199 535.167969,281.105469 C534.707029,280.899739 534.320314,280.583335 534.007812,280.15625 L533.914062,280.15625 C533.976563,280.656252 534.007812,281.130206 534.007812,281.578125 L534.007812,285.101562 L532.710938,285.101562 L532.710938,272.695312 L533.765625,272.695312 L533.945312,273.867188 L534.007812,273.867188 C534.341148,273.398435 534.729164,273.059897 535.171875,272.851562 C535.614586,272.643228 536.122393,272.539062 536.695312,272.539062 C537.830735,272.539062 538.707028,272.927079 539.324219,273.703125 C539.941409,274.479171 540.25,275.567701 540.25,276.96875 C540.25,278.375007 539.936201,279.467444 539.308594,280.246094 C538.680986,281.024743 537.809901,281.414062 536.695312,281.414062 Z M536.507812,273.640625 C535.632808,273.640625 535.000002,273.88281 534.609375,274.367188 C534.218748,274.851565 534.018229,275.622391 534.007812,276.679688 L534.007812,276.96875 C534.007812,278.171881 534.208331,279.032549 534.609375,279.550781 C535.010419,280.069013 535.653641,280.328125 536.539062,280.328125 C537.27865,280.328125 537.858071,280.028649 538.277344,279.429688 C538.696617,278.830726 538.90625,278.005214 538.90625,276.953125 C538.90625,275.885411 538.696617,275.066409 538.277344,274.496094 C537.858071,273.925778 537.268233,273.640625 536.507812,273.640625 Z M549.90625,276.96875 C549.90625,278.36459 549.554691,279.454423 548.851562,280.238281 C548.148434,281.022139 547.17709,281.414062 545.9375,281.414062 C545.171871,281.414062 544.49219,281.234377 543.898438,280.875 C543.304685,280.515623 542.846356,280.000003 542.523438,279.328125 C542.200519,278.656247 542.039062,277.869796 542.039062,276.96875 C542.039062,275.57291 542.388017,274.485681 543.085938,273.707031 C543.783858,272.928382 544.752598,272.539062 545.992188,272.539062 C547.19011,272.539062 548.141924,272.937496 548.847656,273.734375 C549.553389,274.531254 549.90625,275.609368 549.90625,276.96875 Z M543.382812,276.96875 C543.382812,278.062505 543.60156,278.89583 544.039062,279.46875 C544.476565,280.04167 545.119787,280.328125 545.96875,280.328125 C546.817713,280.328125 547.462237,280.042972 547.902344,279.472656 C548.34245,278.902341 548.5625,278.067714 548.5625,276.96875 C548.5625,275.880203 548.34245,275.053388 547.902344,274.488281 C547.462237,273.923174 546.812504,273.640625 545.953125,273.640625 C545.104162,273.640625 544.463544,273.919268 544.03125,274.476562 C543.598956,275.033857 543.382812,275.864578 543.382812,276.96875 Z M559.125,274.84375 C559.125,275.401044 558.964845,275.824217 558.644531,276.113281 C558.324217,276.402345 557.875003,276.596354 557.296875,276.695312 L557.296875,276.765625 C558.026045,276.864584 558.558592,277.078123 558.894531,277.40625 C559.23047,277.734377 559.398438,278.187497 559.398438,278.765625 C559.398438,279.562504 559.105472,280.177081 558.519531,280.609375 C557.933591,281.041669 557.078131,281.257812 555.953125,281.257812 L552.179688,281.257812 L552.179688,272.695312 L555.9375,272.695312 C558.062511,272.695312 559.125,273.411451 559.125,274.84375 Z M558.101562,278.679688 C558.101562,278.216144 557.925783,277.878907 557.574219,277.667969 C557.222654,277.45703 556.640629,277.351562 555.828125,277.351562 L553.476562,277.351562 L553.476562,280.171875 L555.859375,280.171875 C557.354174,280.171875 558.101562,279.674484 558.101562,278.679688 Z M557.859375,274.96875 C557.859375,274.552081 557.69922,274.256511 557.378906,274.082031 C557.058592,273.907551 556.57292,273.820312 555.921875,273.820312 L553.476562,273.820312 L553.476562,276.234375 L555.671875,276.234375 C556.473962,276.234375 557.039061,276.135418 557.367188,275.9375 C557.695314,275.739582 557.859375,275.416669 557.859375,274.96875 Z" id="Отрисовка-баннеров" fill="#FFFFFF"></path>
            <path d="M122.242188,537.164062 C122.242188,538.320318 121.84766,539.209632 121.058594,539.832031 C120.269527,540.45443 119.140632,540.765625 117.671875,540.765625 L116.328125,540.765625 L116.328125,545.257812 L115,545.257812 L115,533.835938 L117.960938,533.835938 C120.815118,533.835938 122.242188,534.945301 122.242188,537.164062 Z M116.328125,539.625 L117.523438,539.625 C118.700527,539.625 119.552081,539.434898 120.078125,539.054688 C120.604169,538.674477 120.867188,538.065108 120.867188,537.226562 C120.867188,536.47135 120.619794,535.908856 120.125,535.539062 C119.630206,535.169269 118.85938,534.984375 117.8125,534.984375 L116.328125,534.984375 L116.328125,539.625 Z M129.703125,545.257812 L129.445312,544.039062 L129.382812,544.039062 C128.955727,544.575524 128.52995,544.938801 128.105469,545.128906 C127.680987,545.319011 127.151045,545.414062 126.515625,545.414062 C125.666662,545.414062 125.001304,545.195315 124.519531,544.757812 C124.037758,544.32031 123.796875,543.697921 123.796875,542.890625 C123.796875,541.16145 125.179674,540.255209 127.945312,540.171875 L129.398438,540.125 L129.398438,539.59375 C129.398438,538.921872 129.253908,538.425783 128.964844,538.105469 C128.67578,537.785155 128.213545,537.625 127.578125,537.625 C126.86458,537.625 126.057296,537.843748 125.15625,538.28125 L124.757812,537.289062 C125.17969,537.059895 125.641925,536.880209 126.144531,536.75 C126.647138,536.619791 127.151039,536.554688 127.65625,536.554688 C128.677088,536.554688 129.433591,536.781248 129.925781,537.234375 C130.417971,537.687502 130.664062,538.414058 130.664062,539.414062 L130.664062,545.257812 L129.703125,545.257812 Z M126.773438,544.34375 C127.580733,544.34375 128.214841,544.122398 128.675781,543.679688 C129.136721,543.236977 129.367188,542.617191 129.367188,541.820312 L129.367188,541.046875 L128.070312,541.101562 C127.039057,541.138021 126.295575,541.298176 125.839844,541.582031 C125.384112,541.865887 125.15625,542.307289 125.15625,542.90625 C125.15625,543.375002 125.298176,543.73177 125.582031,543.976562 C125.865887,544.221355 126.263018,544.34375 126.773438,544.34375 Z M134.96875,540.25 C136.58855,540.25 137.398438,539.802088 137.398438,538.90625 C137.398438,538.062496 136.742194,537.640625 135.429688,537.640625 C135.028644,537.640625 134.664064,537.677083 134.335938,537.75 C134.007811,537.822917 133.578128,537.968749 133.046875,538.1875 L132.585938,537.132812 C133.471359,536.736977 134.437495,536.539062 135.484375,536.539062 C136.468755,536.539062 137.244789,536.740883 137.8125,537.144531 C138.380211,537.548179 138.664062,538.098955 138.664062,538.796875 C138.664062,539.755213 138.130214,540.382811 137.0625,540.679688 L137.0625,540.742188 C137.718753,540.934897 138.197915,541.209634 138.5,541.566406 C138.802085,541.923179 138.953125,542.369789 138.953125,542.90625 C138.953125,543.697921 138.634118,544.3138 137.996094,544.753906 C137.35807,545.194013 136.476568,545.414062 135.351562,545.414062 C134.117181,545.414062 133.164066,545.229169 132.492188,544.859375 L132.492188,543.671875 C133.445317,544.119794 134.408849,544.34375 135.382812,544.34375 C136.132816,544.34375 136.699217,544.214845 137.082031,543.957031 C137.464846,543.699217 137.65625,543.328127 137.65625,542.84375 C137.65625,541.848953 136.846362,541.351562 135.226562,541.351562 L134.039062,541.351562 L134.039062,540.25 L134.96875,540.25 Z M145.046875,545.414062 C144.489581,545.414062 143.980471,545.311199 143.519531,545.105469 C143.058591,544.899739 142.671877,544.583335 142.359375,544.15625 L142.265625,544.15625 C142.328125,544.656253 142.359375,545.130206 142.359375,545.578125 L142.359375,549.101562 L141.0625,549.101562 L141.0625,536.695312 L142.117188,536.695312 L142.296875,537.867188 L142.359375,537.867188 C142.69271,537.398435 143.080727,537.059897 143.523438,536.851562 C143.966148,536.643228 144.473955,536.539062 145.046875,536.539062 C146.182297,536.539062 147.058591,536.927079 147.675781,537.703125 C148.292972,538.479171 148.601562,539.567701 148.601562,540.96875 C148.601562,542.375007 148.287764,543.467444 147.660156,544.246094 C147.032549,545.024743 146.161464,545.414062 145.046875,545.414062 Z M144.859375,537.640625 C143.984371,537.640625 143.351564,537.88281 142.960938,538.367188 C142.570311,538.851565 142.369792,539.622391 142.359375,540.679688 L142.359375,540.96875 C142.359375,542.171881 142.559894,543.032549 142.960938,543.550781 C143.361981,544.069013 144.005204,544.328125 144.890625,544.328125 C145.630212,544.328125 146.209633,544.028649 146.628906,543.429688 C147.048179,542.830726 147.257812,542.005214 147.257812,540.953125 C147.257812,539.885411 147.048179,539.066409 146.628906,538.496094 C146.209633,537.925778 145.619795,537.640625 144.859375,537.640625 Z M156.132812,545.257812 L155.875,544.039062 L155.8125,544.039062 C155.385415,544.575524 154.959638,544.938801 154.535156,545.128906 C154.110675,545.319011 153.580732,545.414062 152.945312,545.414062 C152.09635,545.414062 151.430992,545.195315 150.949219,544.757812 C150.467446,544.32031 150.226562,543.697921 150.226562,542.890625 C150.226562,541.16145 151.609361,540.255209 154.375,540.171875 L155.828125,540.125 L155.828125,539.59375 C155.828125,538.921872 155.683595,538.425783 155.394531,538.105469 C155.105467,537.785155 154.643232,537.625 154.007812,537.625 C153.294267,537.625 152.486984,537.843748 151.585938,538.28125 L151.1875,537.289062 C151.609377,537.059895 152.071612,536.880209 152.574219,536.75 C153.076825,536.619791 153.580727,536.554688 154.085938,536.554688 C155.106776,536.554688 155.863279,536.781248 156.355469,537.234375 C156.847659,537.687502 157.09375,538.414058 157.09375,539.414062 L157.09375,545.257812 L156.132812,545.257812 Z M153.203125,544.34375 C154.010421,544.34375 154.644529,544.122398 155.105469,543.679688 C155.566409,543.236977 155.796875,542.617191 155.796875,541.820312 L155.796875,541.046875 L154.5,541.101562 C153.468745,541.138021 152.725263,541.298176 152.269531,541.582031 C151.8138,541.865887 151.585938,542.307289 151.585938,542.90625 C151.585938,543.375002 151.727863,543.73177 152.011719,543.976562 C152.295574,544.221355 152.692706,544.34375 153.203125,544.34375 Z M159.320312,540.125 C159.320312,538.249991 159.596351,536.787766 160.148438,535.738281 C160.700524,534.688797 161.575515,534.033855 162.773438,533.773438 C164.263028,533.455728 165.575515,533.197918 166.710938,533 L166.953125,534.140625 C165.145824,534.44271 163.854171,534.682291 163.078125,534.859375 C162.322913,535.031251 161.756512,535.437497 161.378906,536.078125 C161.0013,536.718753 160.794271,537.59114 160.757812,538.695312 L160.851562,538.695312 C161.174481,538.25781 161.591143,537.914064 162.101562,537.664062 C162.611982,537.414061 163.145831,537.289062 163.703125,537.289062 C164.755214,537.289062 165.575518,537.630205 166.164062,538.3125 C166.752607,538.994795 167.046875,539.940098 167.046875,541.148438 C167.046875,542.486986 166.705733,543.532548 166.023438,544.285156 C165.341142,545.037764 164.390631,545.414062 163.171875,545.414062 C161.968744,545.414062 161.026045,544.95313 160.34375,544.03125 C159.661455,543.10937 159.320312,541.8073 159.320312,540.125 Z M163.289062,544.328125 C164.877612,544.328125 165.671875,543.315114 165.671875,541.289062 C165.671875,539.356761 164.950528,538.390625 163.507812,538.390625 C163.111977,538.390625 162.730471,538.472655 162.363281,538.636719 C161.996092,538.800782 161.660158,539.018228 161.355469,539.289062 C161.05078,539.559897 160.815105,539.83854 160.648438,540.125 C160.648438,541.494799 160.864581,542.537757 161.296875,543.253906 C161.729169,543.970056 162.393225,544.328125 163.289062,544.328125 Z M176.695312,540.96875 C176.695312,542.36459 176.343754,543.454423 175.640625,544.238281 C174.937496,545.022139 173.966152,545.414062 172.726562,545.414062 C171.960934,545.414062 171.281253,545.234377 170.6875,544.875 C170.093747,544.515623 169.635418,544.000003 169.3125,543.328125 C168.989582,542.656247 168.828125,541.869796 168.828125,540.96875 C168.828125,539.57291 169.17708,538.485681 169.875,537.707031 C170.57292,536.928382 171.54166,536.539062 172.78125,536.539062 C173.979173,536.539062 174.930986,536.937496 175.636719,537.734375 C176.342451,538.531254 176.695312,539.609368 176.695312,540.96875 Z M170.171875,540.96875 C170.171875,542.062505 170.390623,542.89583 170.828125,543.46875 C171.265627,544.04167 171.90885,544.328125 172.757812,544.328125 C173.606775,544.328125 174.2513,544.042972 174.691406,543.472656 C175.131513,542.902341 175.351562,542.067714 175.351562,540.96875 C175.351562,539.880203 175.131513,539.053388 174.691406,538.488281 C174.2513,537.923174 173.601567,537.640625 172.742188,537.640625 C171.893225,537.640625 171.252606,537.919268 170.820312,538.476562 C170.388019,539.033857 170.171875,539.864578 170.171875,540.96875 Z M184.585938,537.804688 L181.804688,537.804688 L181.804688,545.257812 L180.507812,545.257812 L180.507812,537.804688 L177.757812,537.804688 L177.757812,536.695312 L184.585938,536.695312 L184.585938,537.804688 Z M191.273438,536.695312 L192.695312,536.695312 L189,540.828125 L193,545.257812 L191.484375,545.257812 L187.578125,540.921875 L187.578125,545.257812 L186.28125,545.257812 L186.28125,536.695312 L187.578125,536.695312 L187.578125,540.859375 L191.273438,536.695312 Z M199.851562,545.257812 L199.59375,544.039062 L199.53125,544.039062 C199.104165,544.575524 198.678388,544.938801 198.253906,545.128906 C197.829425,545.319011 197.299482,545.414062 196.664062,545.414062 C195.8151,545.414062 195.149742,545.195315 194.667969,544.757812 C194.186196,544.32031 193.945312,543.697921 193.945312,542.890625 C193.945312,541.16145 195.328111,540.255209 198.09375,540.171875 L199.546875,540.125 L199.546875,539.59375 C199.546875,538.921872 199.402345,538.425783 199.113281,538.105469 C198.824217,537.785155 198.361982,537.625 197.726562,537.625 C197.013017,537.625 196.205734,537.843748 195.304688,538.28125 L194.90625,537.289062 C195.328127,537.059895 195.790362,536.880209 196.292969,536.75 C196.795575,536.619791 197.299477,536.554688 197.804688,536.554688 C198.825526,536.554688 199.582029,536.781248 200.074219,537.234375 C200.566409,537.687502 200.8125,538.414058 200.8125,539.414062 L200.8125,545.257812 L199.851562,545.257812 Z M196.921875,544.34375 C197.729171,544.34375 198.363279,544.122398 198.824219,543.679688 C199.285159,543.236977 199.515625,542.617191 199.515625,541.820312 L199.515625,541.046875 L198.21875,541.101562 C197.187495,541.138021 196.444013,541.298176 195.988281,541.582031 C195.53255,541.865887 195.304688,542.307289 195.304688,542.90625 C195.304688,543.375002 195.446613,543.73177 195.730469,543.976562 C196.014324,544.221355 196.411456,544.34375 196.921875,544.34375 Z M208.859375,536.695312 L208.859375,542.125 L208.804688,543.546875 L208.78125,543.992188 L213.414062,536.695312 L215.03125,536.695312 L215.03125,545.257812 L213.820312,545.257812 L213.820312,540.023438 L213.84375,538.992188 L213.882812,537.976562 L209.257812,545.257812 L207.640625,545.257812 L207.640625,536.695312 L208.859375,536.695312 Z M222.9375,537.804688 L219.078125,537.804688 L219.078125,545.257812 L217.78125,545.257812 L217.78125,536.695312 L222.9375,536.695312 L222.9375,537.804688 Z M228.617188,545.414062 C228.059893,545.414062 227.550784,545.311199 227.089844,545.105469 C226.628904,544.899739 226.242189,544.583335 225.929688,544.15625 L225.835938,544.15625 C225.898438,544.656253 225.929688,545.130206 225.929688,545.578125 L225.929688,549.101562 L224.632812,549.101562 L224.632812,536.695312 L225.6875,536.695312 L225.867188,537.867188 L225.929688,537.867188 C226.263023,537.398435 226.651039,537.059897 227.09375,536.851562 C227.536461,536.643228 228.044268,536.539062 228.617188,536.539062 C229.75261,536.539062 230.628903,536.927079 231.246094,537.703125 C231.863284,538.479171 232.171875,539.567701 232.171875,540.96875 C232.171875,542.375007 231.858076,543.467444 231.230469,544.246094 C230.602861,545.024743 229.731776,545.414062 228.617188,545.414062 Z M228.429688,537.640625 C227.554683,537.640625 226.921877,537.88281 226.53125,538.367188 C226.140623,538.851565 225.940104,539.622391 225.929688,540.679688 L225.929688,540.96875 C225.929688,542.171881 226.130206,543.032549 226.53125,543.550781 C226.932294,544.069013 227.575516,544.328125 228.460938,544.328125 C229.200525,544.328125 229.779946,544.028649 230.199219,543.429688 C230.618492,542.830726 230.828125,542.005214 230.828125,540.953125 C230.828125,539.885411 230.618492,539.066409 230.199219,538.496094 C229.779946,537.925778 229.190108,537.640625 228.429688,537.640625 Z M241.828125,540.96875 C241.828125,542.36459 241.476566,543.454423 240.773438,544.238281 C240.070309,545.022139 239.098965,545.414062 237.859375,545.414062 C237.093746,545.414062 236.414065,545.234377 235.820312,544.875 C235.22656,544.515623 234.768231,544.000003 234.445312,543.328125 C234.122394,542.656247 233.960938,541.869796 233.960938,540.96875 C233.960938,539.57291 234.309892,538.485681 235.007812,537.707031 C235.705733,536.928382 236.674473,536.539062 237.914062,536.539062 C239.111985,536.539062 240.063799,536.937496 240.769531,537.734375 C241.475264,538.531254 241.828125,539.609368 241.828125,540.96875 Z M235.304688,540.96875 C235.304688,542.062505 235.523435,542.89583 235.960938,543.46875 C236.39844,544.04167 237.041662,544.328125 237.890625,544.328125 C238.739588,544.328125 239.384112,544.042972 239.824219,543.472656 C240.264325,542.902341 240.484375,542.067714 240.484375,540.96875 C240.484375,539.880203 240.264325,539.053388 239.824219,538.488281 C239.384112,537.923174 238.734379,537.640625 237.875,537.640625 C237.026037,537.640625 236.385419,537.919268 235.953125,538.476562 C235.520831,539.033857 235.304688,539.864578 235.304688,540.96875 Z M251.046875,538.84375 C251.046875,539.401044 250.88672,539.824217 250.566406,540.113281 C250.246092,540.402345 249.796878,540.596354 249.21875,540.695312 L249.21875,540.765625 C249.94792,540.864584 250.480467,541.078123 250.816406,541.40625 C251.152345,541.734377 251.320312,542.187497 251.320312,542.765625 C251.320312,543.562504 251.027347,544.177081 250.441406,544.609375 C249.855466,545.041669 249.000006,545.257812 247.875,545.257812 L244.101562,545.257812 L244.101562,536.695312 L247.859375,536.695312 C249.984386,536.695312 251.046875,537.411451 251.046875,538.84375 Z M250.023438,542.679688 C250.023438,542.216144 249.847658,541.878907 249.496094,541.667969 C249.144529,541.45703 248.562504,541.351562 247.75,541.351562 L245.398438,541.351562 L245.398438,544.171875 L247.78125,544.171875 C249.276049,544.171875 250.023438,543.674484 250.023438,542.679688 Z M249.78125,538.96875 C249.78125,538.552081 249.621095,538.256511 249.300781,538.082031 C248.980467,537.907551 248.494795,537.820312 247.84375,537.820312 L245.398438,537.820312 L245.398438,540.234375 L247.59375,540.234375 C248.395837,540.234375 248.960936,540.135418 249.289062,539.9375 C249.617189,539.739582 249.78125,539.416669 249.78125,538.96875 Z M254.5,540.234375 L256.835938,540.234375 C257.924485,540.234375 258.730466,540.436196 259.253906,540.839844 C259.777346,541.243492 260.039062,541.84635 260.039062,542.648438 C260.039062,543.507817 259.761722,544.15755 259.207031,544.597656 C258.652341,545.037763 257.835943,545.257812 256.757812,545.257812 L253.203125,545.257812 L253.203125,536.695312 L254.5,536.695312 L254.5,540.234375 Z M262.773438,545.257812 L261.476562,545.257812 L261.476562,536.695312 L262.773438,536.695312 L262.773438,545.257812 Z M254.5,541.351562 L254.5,544.171875 L256.695312,544.171875 C258.070319,544.171875 258.757812,543.690109 258.757812,542.726562 C258.757812,542.247393 258.59896,541.898439 258.28125,541.679688 C257.96354,541.460936 257.421879,541.351562 256.65625,541.351562 L254.5,541.351562 Z M267.585938,540.875 L264.609375,536.695312 L266.085938,536.695312 L268.34375,539.976562 L270.59375,536.695312 L272.054688,536.695312 L269.078125,540.875 L272.210938,545.257812 L270.742188,545.257812 L268.34375,541.789062 L265.921875,545.257812 L264.453125,545.257812 L267.585938,540.875 Z M129.710938,560.695312 L129.710938,566.125 L129.65625,567.546875 L129.632812,567.992188 L134.265625,560.695312 L135.882812,560.695312 L135.882812,569.257812 L134.671875,569.257812 L134.671875,564.023438 L134.695312,562.992188 L134.734375,561.976562 L130.109375,569.257812 L128.492188,569.257812 L128.492188,560.695312 L129.710938,560.695312 Z M144.085938,569.257812 L142.789062,569.257812 L142.789062,560.695312 L149.976562,560.695312 L149.976562,569.257812 L148.664062,569.257812 L148.664062,561.820312 L144.085938,561.820312 L144.085938,569.257812 Z M156.710938,569.414062 C156.153643,569.414062 155.644534,569.311199 155.183594,569.105469 C154.722654,568.899739 154.335939,568.583335 154.023438,568.15625 L153.929688,568.15625 C153.992188,568.656253 154.023438,569.130206 154.023438,569.578125 L154.023438,573.101562 L152.726562,573.101562 L152.726562,560.695312 L153.78125,560.695312 L153.960938,561.867188 L154.023438,561.867188 C154.356773,561.398435 154.744789,561.059897 155.1875,560.851562 C155.630211,560.643228 156.138018,560.539062 156.710938,560.539062 C157.84636,560.539062 158.722653,560.927079 159.339844,561.703125 C159.957034,562.479171 160.265625,563.567701 160.265625,564.96875 C160.265625,566.375007 159.951826,567.467444 159.324219,568.246094 C158.696611,569.024743 157.825526,569.414062 156.710938,569.414062 Z M156.523438,561.640625 C155.648433,561.640625 155.015627,561.88281 154.625,562.367188 C154.234373,562.851565 154.033854,563.622391 154.023438,564.679688 L154.023438,564.96875 C154.023438,566.171881 154.223956,567.032549 154.625,567.550781 C155.026044,568.069013 155.669266,568.328125 156.554688,568.328125 C157.294275,568.328125 157.873696,568.028649 158.292969,567.429688 C158.712242,566.830726 158.921875,566.005214 158.921875,564.953125 C158.921875,563.885411 158.712242,563.066409 158.292969,562.496094 C157.873696,561.925778 157.283858,561.640625 156.523438,561.640625 Z M169.921875,564.96875 C169.921875,566.36459 169.570316,567.454423 168.867188,568.238281 C168.164059,569.022139 167.192715,569.414062 165.953125,569.414062 C165.187496,569.414062 164.507815,569.234377 163.914062,568.875 C163.32031,568.515623 162.861981,568.000003 162.539062,567.328125 C162.216144,566.656247 162.054688,565.869796 162.054688,564.96875 C162.054688,563.57291 162.403642,562.485681 163.101562,561.707031 C163.799483,560.928382 164.768223,560.539062 166.007812,560.539062 C167.205735,560.539062 168.157549,560.937496 168.863281,561.734375 C169.569014,562.531254 169.921875,563.609368 169.921875,564.96875 Z M163.398438,564.96875 C163.398438,566.062505 163.617185,566.89583 164.054688,567.46875 C164.49219,568.04167 165.135412,568.328125 165.984375,568.328125 C166.833338,568.328125 167.477862,568.042972 167.917969,567.472656 C168.358075,566.902341 168.578125,566.067714 168.578125,564.96875 C168.578125,563.880203 168.358075,563.053388 167.917969,562.488281 C167.477862,561.923174 166.828129,561.640625 165.96875,561.640625 C165.119787,561.640625 164.479169,561.919268 164.046875,562.476562 C163.614581,563.033857 163.398438,563.864578 163.398438,564.96875 Z M176.640625,568.007812 L176.882812,567.28125 L177.21875,566.359375 L179.539062,560.710938 L181.1875,560.710938 L181.1875,569.257812 L180.039062,569.257812 L180.039062,562.1875 L179.882812,562.640625 L179.429688,563.835938 L177.21875,569.257812 L176.132812,569.257812 L173.921875,563.820312 C173.645832,563.122392 173.45573,562.578127 173.351562,562.1875 L173.351562,569.257812 L172.195312,569.257812 L172.195312,560.710938 L173.78125,560.710938 L176.023438,566.140625 C176.247397,566.713545 176.453124,567.335934 176.640625,568.007812 Z M191.34375,564.96875 C191.34375,566.36459 190.992191,567.454423 190.289062,568.238281 C189.585934,569.022139 188.61459,569.414062 187.375,569.414062 C186.609371,569.414062 185.92969,569.234377 185.335938,568.875 C184.742185,568.515623 184.283856,568.000003 183.960938,567.328125 C183.638019,566.656247 183.476562,565.869796 183.476562,564.96875 C183.476562,563.57291 183.825517,562.485681 184.523438,561.707031 C185.221358,560.928382 186.190098,560.539062 187.429688,560.539062 C188.62761,560.539062 189.579424,560.937496 190.285156,561.734375 C190.990889,562.531254 191.34375,563.609368 191.34375,564.96875 Z M184.820312,564.96875 C184.820312,566.062505 185.03906,566.89583 185.476562,567.46875 C185.914065,568.04167 186.557287,568.328125 187.40625,568.328125 C188.255213,568.328125 188.899737,568.042972 189.339844,567.472656 C189.77995,566.902341 190,566.067714 190,564.96875 C190,563.880203 189.77995,563.053388 189.339844,562.488281 C188.899737,561.923174 188.250004,561.640625 187.390625,561.640625 C186.541662,561.640625 185.901044,561.919268 185.46875,562.476562 C185.036456,563.033857 184.820312,563.864578 184.820312,564.96875 Z M198.0625,568.007812 L198.304688,567.28125 L198.640625,566.359375 L200.960938,560.710938 L202.609375,560.710938 L202.609375,569.257812 L201.460938,569.257812 L201.460938,562.1875 L201.304688,562.640625 L200.851562,563.835938 L198.640625,569.257812 L197.554688,569.257812 L195.34375,563.820312 C195.067707,563.122392 194.877605,562.578127 194.773438,562.1875 L194.773438,569.257812 L193.617188,569.257812 L193.617188,560.710938 L195.203125,560.710938 L197.445312,566.140625 C197.669272,566.713545 197.874999,567.335934 198.0625,568.007812 Z M208.992188,569.414062 C207.726556,569.414062 206.727868,569.02865 205.996094,568.257812 C205.264319,567.486975 204.898438,566.416674 204.898438,565.046875 C204.898438,563.66666 205.238278,562.570317 205.917969,561.757812 C206.59766,560.945308 207.510411,560.539062 208.65625,560.539062 C209.729172,560.539062 210.578122,560.891924 211.203125,561.597656 C211.828128,562.303389 212.140625,563.234369 212.140625,564.390625 L212.140625,565.210938 L206.242188,565.210938 C206.268229,566.216151 206.522133,566.979164 207.003906,567.5 C207.485679,568.020836 208.164058,568.28125 209.039062,568.28125 C209.960942,568.28125 210.872391,568.088544 211.773438,567.703125 L211.773438,568.859375 C211.315102,569.057293 210.881512,569.199218 210.472656,569.285156 C210.0638,569.371094 209.570315,569.414062 208.992188,569.414062 Z M208.640625,561.625 C207.953122,561.625 207.40495,561.848956 206.996094,562.296875 C206.587238,562.744794 206.346355,563.364579 206.273438,564.15625 L210.75,564.15625 C210.75,563.338538 210.56771,562.712242 210.203125,562.277344 C209.83854,561.842446 209.317712,561.625 208.640625,561.625 Z M216.414062,564.875 L213.4375,560.695312 L214.914062,560.695312 L217.171875,563.976562 L219.421875,560.695312 L220.882812,560.695312 L217.90625,564.875 L221.039062,569.257812 L219.570312,569.257812 L217.171875,565.789062 L214.75,569.257812 L213.28125,569.257812 L216.414062,564.875 Z M228,569.257812 L227.742188,568.039062 L227.679688,568.039062 C227.252602,568.575524 226.826825,568.938801 226.402344,569.128906 C225.977862,569.319011 225.44792,569.414062 224.8125,569.414062 C223.963537,569.414062 223.298179,569.195315 222.816406,568.757812 C222.334633,568.32031 222.09375,567.697921 222.09375,566.890625 C222.09375,565.16145 223.476549,564.255209 226.242188,564.171875 L227.695312,564.125 L227.695312,563.59375 C227.695312,562.921872 227.550783,562.425783 227.261719,562.105469 C226.972655,561.785155 226.51042,561.625 225.875,561.625 C225.161455,561.625 224.354171,561.843748 223.453125,562.28125 L223.054688,561.289062 C223.476565,561.059895 223.9388,560.880209 224.441406,560.75 C224.944013,560.619791 225.447914,560.554688 225.953125,560.554688 C226.973963,560.554688 227.730466,560.781248 228.222656,561.234375 C228.714846,561.687502 228.960938,562.414058 228.960938,563.414062 L228.960938,569.257812 L228,569.257812 Z M225.070312,568.34375 C225.877608,568.34375 226.511716,568.122398 226.972656,567.679688 C227.433596,567.236977 227.664062,566.617191 227.664062,565.820312 L227.664062,565.046875 L226.367188,565.101562 C225.335932,565.138021 224.59245,565.298176 224.136719,565.582031 C223.680987,565.865887 223.453125,566.307289 223.453125,566.90625 C223.453125,567.375002 223.595051,567.73177 223.878906,567.976562 C224.162762,568.221355 224.559893,568.34375 225.070312,568.34375 Z M232.929688,560.695312 L232.929688,564.28125 L237.726562,564.28125 L237.726562,560.695312 L239.023438,560.695312 L239.023438,569.257812 L237.726562,569.257812 L237.726562,565.398438 L232.929688,565.398438 L232.929688,569.257812 L231.632812,569.257812 L231.632812,560.695312 L232.929688,560.695312 Z M242.992188,560.695312 L242.992188,566.125 L242.9375,567.546875 L242.914062,567.992188 L247.546875,560.695312 L249.164062,560.695312 L249.164062,569.257812 L247.953125,569.257812 L247.953125,564.023438 L247.976562,562.992188 L248.015625,561.976562 L243.390625,569.257812 L241.773438,569.257812 L241.773438,560.695312 L242.992188,560.695312 Z M256.90625,560.695312 L258.328125,560.695312 L254.632812,564.828125 L258.632812,569.257812 L257.117188,569.257812 L253.210938,564.921875 L253.210938,569.257812 L251.914062,569.257812 L251.914062,560.695312 L253.210938,560.695312 L253.210938,564.859375 L256.90625,560.695312 Z" id="Разработка-игровых-и" fill="#FFFFFF"></path>
            <path d="M397,544.742188 L397,533.320312 L398.328125,533.320312 L398.328125,543.539062 L403.367188,543.539062 L403.367188,544.742188 L397,544.742188 Z M406.40625,544.742188 L405.109375,544.742188 L405.109375,536.179688 L406.40625,536.179688 L406.40625,544.742188 Z M405,533.859375 C405,533.562499 405.072916,533.345053 405.21875,533.207031 C405.364584,533.06901 405.546874,533 405.765625,533 C405.973959,533 406.153645,533.070312 406.304688,533.210938 C406.45573,533.351563 406.53125,533.567707 406.53125,533.859375 C406.53125,534.151043 406.45573,534.368489 406.304688,534.511719 C406.153645,534.654949 405.973959,534.726562 405.765625,534.726562 C405.546874,534.726562 405.364584,534.654949 405.21875,534.511719 C405.072916,534.368489 405,534.151043 405,533.859375 Z M411.03125,544.742188 L407.78125,536.179688 L409.171875,536.179688 L411.015625,541.257812 C411.432294,542.445318 411.677083,543.216144 411.75,543.570312 L411.8125,543.570312 C411.869792,543.294269 412.05078,542.722661 412.355469,541.855469 C412.660158,540.988277 413.343745,539.096369 414.40625,536.179688 L415.796875,536.179688 L412.546875,544.742188 L411.03125,544.742188 Z M420.789062,544.898438 C419.523431,544.898438 418.524743,544.513025 417.792969,543.742188 C417.061194,542.97135 416.695312,541.901049 416.695312,540.53125 C416.695312,539.151035 417.035153,538.054692 417.714844,537.242188 C418.394535,536.429683 419.307286,536.023438 420.453125,536.023438 C421.526047,536.023438 422.374997,536.376299 423,537.082031 C423.625003,537.787764 423.9375,538.718744 423.9375,539.875 L423.9375,540.695312 L418.039062,540.695312 C418.065104,541.700526 418.319008,542.463539 418.800781,542.984375 C419.282554,543.505211 419.960933,543.765625 420.835938,543.765625 C421.757817,543.765625 422.669266,543.572919 423.570312,543.1875 L423.570312,544.34375 C423.111977,544.541668 422.678387,544.683593 422.269531,544.769531 C421.860675,544.855469 421.36719,544.898438 420.789062,544.898438 Z M420.4375,537.109375 C419.749997,537.109375 419.201825,537.333331 418.792969,537.78125 C418.384113,538.229169 418.14323,538.848954 418.070312,539.640625 L422.546875,539.640625 C422.546875,538.822913 422.364585,538.196617 422,537.761719 C421.635415,537.326821 421.114587,537.109375 420.4375,537.109375 Z M433.726562,544.898438 C432.486973,544.898438 431.527347,544.516931 430.847656,543.753906 C430.167965,542.990882 429.828125,541.911465 429.828125,540.515625 C429.828125,539.083326 430.173174,537.976566 430.863281,537.195312 C431.553389,536.414059 432.536452,536.023438 433.8125,536.023438 C434.22396,536.023438 434.635415,536.067708 435.046875,536.15625 C435.458335,536.244792 435.781249,536.348958 436.015625,536.46875 L435.617188,537.570312 C435.330728,537.455729 435.018231,537.360677 434.679688,537.285156 C434.341144,537.209635 434.041668,537.171875 433.78125,537.171875 C432.041658,537.171875 431.171875,538.281239 431.171875,540.5 C431.171875,541.552089 431.384112,542.359372 431.808594,542.921875 C432.233075,543.484378 432.861975,543.765625 433.695312,543.765625 C434.408858,543.765625 435.140621,543.611981 435.890625,543.304688 L435.890625,544.453125 C435.317705,544.750001 434.596359,544.898438 433.726562,544.898438 Z M445.3125,540.453125 C445.3125,541.848965 444.960941,542.938798 444.257812,543.722656 C443.554684,544.506514 442.58334,544.898438 441.34375,544.898438 C440.578121,544.898438 439.89844,544.718752 439.304688,544.359375 C438.710935,543.999998 438.252606,543.484378 437.929688,542.8125 C437.606769,542.140622 437.445312,541.354171 437.445312,540.453125 C437.445312,539.057285 437.794267,537.970056 438.492188,537.191406 C439.190108,536.412757 440.158848,536.023438 441.398438,536.023438 C442.59636,536.023438 443.548174,536.421871 444.253906,537.21875 C444.959639,538.015629 445.3125,539.093743 445.3125,540.453125 Z M438.789062,540.453125 C438.789062,541.54688 439.00781,542.380205 439.445312,542.953125 C439.882815,543.526045 440.526037,543.8125 441.375,543.8125 C442.223963,543.8125 442.868487,543.527347 443.308594,542.957031 C443.7487,542.386716 443.96875,541.552089 443.96875,540.453125 C443.96875,539.364578 443.7487,538.537763 443.308594,537.972656 C442.868487,537.407549 442.218754,537.125 441.359375,537.125 C440.510412,537.125 439.869794,537.403643 439.4375,537.960938 C439.005206,538.518232 438.789062,539.348953 438.789062,540.453125 Z M453.445312,544.742188 L453.445312,539.203125 C453.445312,538.505205 453.28646,537.984377 452.96875,537.640625 C452.65104,537.296873 452.153649,537.125 451.476562,537.125 C450.580725,537.125 449.924481,537.367185 449.507812,537.851562 C449.091144,538.33594 448.882812,539.135411 448.882812,540.25 L448.882812,544.742188 L447.585938,544.742188 L447.585938,536.179688 L448.640625,536.179688 L448.851562,537.351562 L448.914062,537.351562 C449.179689,536.929685 449.552081,536.602866 450.03125,536.371094 C450.510419,536.139322 451.044268,536.023438 451.632812,536.023438 C452.664068,536.023438 453.440102,536.272133 453.960938,536.769531 C454.481773,537.26693 454.742188,538.062495 454.742188,539.15625 L454.742188,544.742188 L453.445312,544.742188 Z M460.171875,543.828125 C460.401043,543.828125 460.622395,543.811198 460.835938,543.777344 C461.04948,543.743489 461.218749,543.708334 461.34375,543.671875 L461.34375,544.664062 C461.203124,544.731771 460.996095,544.78776 460.722656,544.832031 C460.449217,544.876302 460.203126,544.898438 459.984375,544.898438 C458.328117,544.898438 457.5,544.02605 457.5,542.28125 L457.5,537.1875 L456.273438,537.1875 L456.273438,536.5625 L457.5,536.023438 L458.046875,534.195312 L458.796875,534.195312 L458.796875,536.179688 L461.28125,536.179688 L461.28125,537.1875 L458.796875,537.1875 L458.796875,542.226562 C458.796875,542.74219 458.91927,543.138019 459.164062,543.414062 C459.408855,543.690106 459.74479,543.828125 460.171875,543.828125 Z M466.671875,544.898438 C465.406244,544.898438 464.407556,544.513025 463.675781,543.742188 C462.944007,542.97135 462.578125,541.901049 462.578125,540.53125 C462.578125,539.151035 462.917965,538.054692 463.597656,537.242188 C464.277347,536.429683 465.190098,536.023438 466.335938,536.023438 C467.40886,536.023438 468.257809,536.376299 468.882812,537.082031 C469.507816,537.787764 469.820312,538.718744 469.820312,539.875 L469.820312,540.695312 L463.921875,540.695312 C463.947917,541.700526 464.201821,542.463539 464.683594,542.984375 C465.165367,543.505211 465.843746,543.765625 466.71875,543.765625 C467.64063,543.765625 468.552079,543.572919 469.453125,543.1875 L469.453125,544.34375 C468.994789,544.541668 468.5612,544.683593 468.152344,544.769531 C467.743488,544.855469 467.250003,544.898438 466.671875,544.898438 Z M466.320312,537.109375 C465.632809,537.109375 465.084637,537.333331 464.675781,537.78125 C464.266925,538.229169 464.026042,538.848954 463.953125,539.640625 L468.429688,539.640625 C468.429688,538.822913 468.247398,538.196617 467.882812,537.761719 C467.518227,537.326821 466.997399,537.109375 466.320312,537.109375 Z M477.890625,544.742188 L477.890625,539.203125 C477.890625,538.505205 477.731772,537.984377 477.414062,537.640625 C477.096353,537.296873 476.598962,537.125 475.921875,537.125 C475.026037,537.125 474.369794,537.367185 473.953125,537.851562 C473.536456,538.33594 473.328125,539.135411 473.328125,540.25 L473.328125,544.742188 L472.03125,544.742188 L472.03125,536.179688 L473.085938,536.179688 L473.296875,537.351562 L473.359375,537.351562 C473.625001,536.929685 473.997393,536.602866 474.476562,536.371094 C474.955732,536.139322 475.48958,536.023438 476.078125,536.023438 C477.10938,536.023438 477.885414,536.272133 478.40625,536.769531 C478.927086,537.26693 479.1875,538.062495 479.1875,539.15625 L479.1875,544.742188 L477.890625,544.742188 Z M484.617188,543.828125 C484.846355,543.828125 485.067707,543.811198 485.28125,543.777344 C485.494793,543.743489 485.664062,543.708334 485.789062,543.671875 L485.789062,544.664062 C485.648437,544.731771 485.441408,544.78776 485.167969,544.832031 C484.89453,544.876302 484.648439,544.898438 484.429688,544.898438 C482.773429,544.898438 481.945312,544.02605 481.945312,542.28125 L481.945312,537.1875 L480.71875,537.1875 L480.71875,536.5625 L481.945312,536.023438 L482.492188,534.195312 L483.242188,534.195312 L483.242188,536.179688 L485.726562,536.179688 L485.726562,537.1875 L483.242188,537.1875 L483.242188,542.226562 C483.242188,542.74219 483.364582,543.138019 483.609375,543.414062 C483.854168,543.690106 484.190102,543.828125 484.617188,543.828125 Z M486.78125,541.046875 L486.78125,539.859375 L490.617188,539.859375 L490.617188,541.046875 L486.78125,541.046875 Z M499.59375,538.328125 C499.59375,538.885419 499.433595,539.308592 499.113281,539.597656 C498.792967,539.88672 498.343753,540.080729 497.765625,540.179688 L497.765625,540.25 C498.494795,540.348959 499.027342,540.562498 499.363281,540.890625 C499.69922,541.218752 499.867188,541.671872 499.867188,542.25 C499.867188,543.046879 499.574222,543.661456 498.988281,544.09375 C498.402341,544.526044 497.546881,544.742188 496.421875,544.742188 L492.648438,544.742188 L492.648438,536.179688 L496.40625,536.179688 C498.531261,536.179688 499.59375,536.895826 499.59375,538.328125 Z M498.570312,542.164062 C498.570312,541.700519 498.394533,541.363282 498.042969,541.152344 C497.691404,540.941405 497.109379,540.835938 496.296875,540.835938 L493.945312,540.835938 L493.945312,543.65625 L496.328125,543.65625 C497.822924,543.65625 498.570312,543.158859 498.570312,542.164062 Z M498.328125,538.453125 C498.328125,538.036456 498.16797,537.740886 497.847656,537.566406 C497.527342,537.391926 497.04167,537.304688 496.390625,537.304688 L493.945312,537.304688 L493.945312,539.71875 L496.140625,539.71875 C496.942712,539.71875 497.507811,539.619793 497.835938,539.421875 C498.164064,539.223957 498.328125,538.901044 498.328125,538.453125 Z M502.96875,536.179688 L502.96875,541.609375 L502.914062,543.03125 L502.890625,543.476562 L507.523438,536.179688 L509.140625,536.179688 L509.140625,544.742188 L507.929688,544.742188 L507.929688,539.507812 L507.953125,538.476562 L507.992188,537.460938 L503.367188,544.742188 L501.75,544.742188 L501.75,536.179688 L502.96875,536.179688 Z M519.328125,547.703125 L518.070312,547.703125 L518.070312,544.742188 L512.085938,544.742188 L512.085938,547.703125 L510.835938,547.703125 L510.835938,543.625 L511.507812,543.625 C512.205733,542.677079 512.752602,541.565111 513.148438,540.289062 C513.544273,539.013014 513.75,537.643236 513.765625,536.179688 L518.101562,536.179688 L518.101562,543.625 L519.328125,543.625 L519.328125,547.703125 Z M516.851562,543.625 L516.851562,537.203125 L514.929688,537.203125 C514.861979,538.359381 514.639325,539.529942 514.261719,540.714844 C513.884113,541.899746 513.414065,542.869788 512.851562,543.625 L516.851562,543.625 Z M524.945312,536.195312 L526.140625,536.195312 L526.140625,540.34375 L529.679688,536.195312 L531.101562,536.195312 L527.523438,540.34375 L531.40625,544.742188 L529.90625,544.742188 L526.140625,540.40625 L526.140625,544.742188 L524.945312,544.742188 L524.945312,540.40625 L521.1875,544.742188 L519.695312,544.742188 L523.570312,540.34375 L520,536.195312 L521.421875,536.195312 L524.945312,540.34375 L524.945312,536.195312 Z M536.109375,544.898438 C534.843744,544.898438 533.845056,544.513025 533.113281,543.742188 C532.381507,542.97135 532.015625,541.901049 532.015625,540.53125 C532.015625,539.151035 532.355465,538.054692 533.035156,537.242188 C533.714847,536.429683 534.627598,536.023438 535.773438,536.023438 C536.84636,536.023438 537.695309,536.376299 538.320312,537.082031 C538.945316,537.787764 539.257812,538.718744 539.257812,539.875 L539.257812,540.695312 L533.359375,540.695312 C533.385417,541.700526 533.639321,542.463539 534.121094,542.984375 C534.602867,543.505211 535.281246,543.765625 536.15625,543.765625 C537.07813,543.765625 537.989579,543.572919 538.890625,543.1875 L538.890625,544.34375 C538.432289,544.541668 537.9987,544.683593 537.589844,544.769531 C537.180988,544.855469 536.687503,544.898438 536.109375,544.898438 Z M535.757812,537.109375 C535.070309,537.109375 534.522137,537.333331 534.113281,537.78125 C533.704425,538.229169 533.463542,538.848954 533.390625,539.640625 L537.867188,539.640625 C537.867188,538.822913 537.684898,538.196617 537.320312,537.761719 C536.955727,537.326821 536.434899,537.109375 535.757812,537.109375 Z M547.242188,537.289062 L544.460938,537.289062 L544.460938,544.742188 L543.164062,544.742188 L543.164062,537.289062 L540.414062,537.289062 L540.414062,536.179688 L547.242188,536.179688 L547.242188,537.289062 Z M550.234375,539.71875 L552.570312,539.71875 C553.65886,539.71875 554.464841,539.920571 554.988281,540.324219 C555.511721,540.727867 555.773438,541.330725 555.773438,542.132812 C555.773438,542.992192 555.496097,543.641925 554.941406,544.082031 C554.386716,544.522138 553.570318,544.742188 552.492188,544.742188 L548.9375,544.742188 L548.9375,536.179688 L550.234375,536.179688 L550.234375,539.71875 Z M558.507812,544.742188 L557.210938,544.742188 L557.210938,536.179688 L558.507812,536.179688 L558.507812,544.742188 Z M550.234375,540.835938 L550.234375,543.65625 L552.429688,543.65625 C553.804694,543.65625 554.492188,543.174484 554.492188,542.210938 C554.492188,541.731768 554.333335,541.382814 554.015625,541.164062 C553.697915,540.945311 553.156254,540.835938 552.390625,540.835938 L550.234375,540.835938 Z" id="Live-content-виджеты" fill="#FFFFFF"></path>
            <g id="Group-6" transform="translate(128.000000, 375.000000)" stroke="#A96FDC" fill="#232323">
                <circle id="Oval-2" cx="59" cy="59" r="59"></circle>
                <polygon id="Path-29" points="47 31 47 86 93 58.5"></polygon>
            </g>
            <g id="Group-7" transform="translate(395.000000, 369.000000)" stroke="#A96FDC">
                <rect id="Rectangle-2" fill="#232323" x="0" y="0" width="137" height="113"></rect>
                <rect id="Rectangle-2" fill="#232323" x="14" y="36" width="108" height="64"></rect>
                <circle id="Oval-2" fill="#232323" cx="122.5" cy="94.5" r="43.5"></circle>
                <polyline id="Path-30" points="122 71 122 98 148 98"></polyline>
                <path d="M55,15 L77,15" id="Path-31"></path>
            </g>
        </g>
    </g>
</svg>