<?xml version="1.0" encoding="UTF-8"?>
<svg width="670px" height="670px" viewBox="0 0 670 670" version="1.1" xmlns="http://www.w3.org/2000/svg" xmlns:xlink="http://www.w3.org/1999/xlink">
    <!-- Generator: Sketch 47.1 (45422) - http://www.bohemiancoding.com/sketch -->
    <title>illustration_2</title>
    <desc>Created with Sketch.</desc>
    <defs>
        <rect id="path-1" x="0" y="0" width="670" height="670"></rect>
    </defs>
    <g id="Symbols" stroke="none" stroke-width="1" fill="none" fill-rule="evenodd">
        <g id="illustration_2">
            <g id="Group">
                <mask id="mask-2" fill="white">
                    <use xlink:href="#path-1"></use>
                </mask>
                <g id="Mask"></g>
                <g mask="url(#mask-2)">
                    <g transform="translate(105.000000, -306.000000)">
                        <circle id="Oval-9" stroke="none" fill-opacity="0.579710145" fill="#1F1F1F" fill-rule="evenodd" cx="480" cy="460" r="460"></circle>
                        <circle id="Oval-9" stroke="#A96FDC" stroke-width="1" fill="none" cx="480" cy="460" r="460"></circle>
                        <circle id="Oval-9" stroke="#A96FDC" stroke-width="1" fill="none" opacity="0.699999988" cx="480" cy="460" r="350"></circle>
                        <circle id="Oval-9" stroke="#A96FDC" stroke-width="1" fill="none" opacity="0.400000006" cx="480" cy="460" r="300"></circle>
                        <circle id="Oval-9" stroke="#A96FDC" stroke-width="1" fill="none" opacity="0.200000003" cx="480" cy="460" r="250"></circle>
                        <circle id="Oval-9" stroke="#A96FDC" stroke-width="1" fill="#232323" fill-rule="evenodd" cx="20" cy="454" r="20"></circle>
                        <circle id="Oval-9" stroke="#A96FDC" stroke-width="1" fill="#232323" fill-rule="evenodd" cx="28" cy="568" r="24"></circle>
                        <circle id="Oval-9" stroke="#A96FDC" stroke-width="1" fill="#232323" fill-rule="evenodd" cx="75" cy="674" r="28"></circle>
                        <rect id="Rectangle-2" stroke="#A96FDC" stroke-width="1" fill="#232323" fill-rule="evenodd" x="65" y="659" width="20" height="32"></rect>
                        <circle id="Oval-9" stroke="#A96FDC" stroke-width="1" fill="#232323" fill-rule="evenodd" cx="151" cy="784" r="32"></circle>
                        <g id="Group-2" stroke="none" stroke-width="1" fill="none" fill-rule="evenodd" transform="translate(133.000000, 771.000000)">
                            <polygon id="Path-18" stroke="#A96FDC" points="13 5.51785145 13 19.0178515 31.9980469 25.0178515 31.9980469 2.27373675e-13"></polygon>
                            <path d="M39.2194172,1 L35,3.68263269" id="Path-21" stroke="#A96FDC"></path>
                            <path d="M39.2194172,19 L35,21.6826327" id="Path-21" stroke="#A96FDC" transform="translate(37.109709, 20.341316) scale(1, -1) translate(-37.109709, -20.341316) "></path>
                            <rect id="Rectangle-5" stroke="#A96FDC" fill="#232323" x="4" y="5" width="9" height="14"></rect>
                            <path d="M36,11 L41,11" id="Path-22" stroke="#A96FDC"></path>
                            <polygon id="Rectangle-6" stroke="#A96FDC" fill="#232323" points="6 19 10.7142857 19 13.0714286 30 8.35714286 30"></polygon>
                            <rect id="Rectangle-7" stroke="#A96FDC" fill="#232323" x="0" y="8" width="4" height="9"></rect>
                        </g>
                        <circle id="Oval-9" stroke="#A96FDC" stroke-width="1" fill="#232323" fill-rule="evenodd" cx="272" cy="870" r="36"></circle>
                        <path d="M76.0175781,569.581055 C76.0175781,570.71192 75.607426,571.593747 74.7871094,572.226562 C73.9667928,572.859378 72.8535227,573.175781 71.4472656,573.175781 C69.9238205,573.175781 68.7519572,572.979494 67.9316406,572.586914 L67.9316406,571.145508 C68.458987,571.368165 69.0332,571.543945 69.6542969,571.672852 C70.2753937,571.801758 70.890622,571.866211 71.5,571.866211 C72.4960987,571.866211 73.2460912,571.677248 73.75,571.299316 C74.2539088,570.921385 74.5058594,570.395511 74.5058594,569.72168 C74.5058594,569.276365 74.4165048,568.911623 74.237793,568.627441 C74.0590811,568.34326 73.760256,568.081056 73.3413086,567.84082 C72.9223612,567.600585 72.2851605,567.328127 71.4296875,567.023438 C70.234369,566.595701 69.3803737,566.08887 68.8676758,565.50293 C68.3549779,564.916989 68.0986328,564.152348 68.0986328,563.208984 C68.0986328,562.218745 68.4706994,561.430667 69.2148438,560.844727 C69.9589881,560.258786 70.9433533,559.96582 72.1679688,559.96582 C73.4453189,559.96582 74.6201118,560.200193 75.6923828,560.668945 L75.2265625,561.969727 C74.1660103,561.524412 73.1347706,561.301758 72.1328125,561.301758 C71.3417929,561.301758 70.723635,561.471678 70.2783203,561.811523 C69.8330056,562.151369 69.6103516,562.623044 69.6103516,563.226562 C69.6103516,563.671877 69.692382,564.03662 69.8564453,564.320801 C70.0205086,564.604982 70.2973613,564.865721 70.6870117,565.103027 C71.0766621,565.340333 71.6728475,565.602538 72.4755859,565.889648 C73.8232489,566.37012 74.7504857,566.885739 75.2573242,567.436523 C75.7641627,567.987307 76.0175781,568.702144 76.0175781,569.581055 Z M84.3320312,573 L79.9726562,561.609375 L79.9023438,561.609375 C79.9843754,562.511723 80.0253906,563.583978 80.0253906,564.826172 L80.0253906,573 L78.6455078,573 L78.6455078,560.150391 L80.8955078,560.150391 L84.9648438,570.75 L85.0351562,570.75 L89.1396484,560.150391 L91.3720703,560.150391 L91.3720703,573 L89.8779297,573 L89.8779297,564.720703 C89.8779297,563.77148 89.9189449,562.74024 90.0009766,561.626953 L89.9306641,561.626953 L85.5361328,573 L84.3320312,573 Z M102.147461,569.581055 C102.147461,570.71192 101.737309,571.593747 100.916992,572.226562 C100.096676,572.859378 98.9834055,573.175781 97.5771484,573.175781 C96.0537033,573.175781 94.88184,572.979494 94.0615234,572.586914 L94.0615234,571.145508 C94.5888698,571.368165 95.1630828,571.543945 95.7841797,571.672852 C96.4052765,571.801758 97.0205048,571.866211 97.6298828,571.866211 C98.6259815,571.866211 99.375974,571.677248 99.8798828,571.299316 C100.383792,570.921385 100.635742,570.395511 100.635742,569.72168 C100.635742,569.276365 100.546388,568.911623 100.367676,568.627441 C100.188964,568.34326 99.8901388,568.081056 99.4711914,567.84082 C99.052244,567.600585 98.4150433,567.328127 97.5595703,567.023438 C96.3642518,566.595701 95.5102565,566.08887 94.9975586,565.50293 C94.4848607,564.916989 94.2285156,564.152348 94.2285156,563.208984 C94.2285156,562.218745 94.6005822,561.430667 95.3447266,560.844727 C96.0888709,560.258786 97.0732361,559.96582 98.2978516,559.96582 C99.5752017,559.96582 100.749995,560.200193 101.822266,560.668945 L101.356445,561.969727 C100.295893,561.524412 99.2646534,561.301758 98.2626953,561.301758 C97.4716757,561.301758 96.8535179,561.471678 96.4082031,561.811523 C95.9628884,562.151369 95.7402344,562.623044 95.7402344,563.226562 C95.7402344,563.671877 95.8222648,564.03662 95.9863281,564.320801 C96.1503914,564.604982 96.4272441,564.865721 96.8168945,565.103027 C97.2065449,565.340333 97.8027304,565.602538 98.6054688,565.889648 C99.9531317,566.37012 100.880369,566.885739 101.387207,567.436523 C101.894046,567.987307 102.147461,568.702144 102.147461,569.581055 Z" id="SMS" stroke="none" fill="#FFFFFF" fill-rule="evenodd"></path>
                        <path d="M64.9296875,456 L57.7666016,456 L57.7666016,443.150391 L64.9296875,443.150391 L64.9296875,444.477539 L59.2607422,444.477539 L59.2607422,448.617188 L64.5869141,448.617188 L64.5869141,449.935547 L59.2607422,449.935547 L59.2607422,454.664062 L64.9296875,454.664062 L64.9296875,456 Z M79.8359375,456 L79.8359375,449.733398 C79.8359375,448.965816 79.6718766,448.390139 79.34375,448.006348 C79.0156234,447.622557 78.5058628,447.430664 77.8144531,447.430664 C76.9062455,447.430664 76.2353537,447.691404 75.8017578,448.212891 C75.3681619,448.734378 75.1513672,449.537104 75.1513672,450.621094 L75.1513672,456 L73.6923828,456 L73.6923828,449.733398 C73.6923828,448.965816 73.528322,448.390139 73.2001953,448.006348 C72.8720687,447.622557 72.3593785,447.430664 71.6621094,447.430664 C70.7480423,447.430664 70.0786154,447.704587 69.6538086,448.252441 C69.2290018,448.800296 69.0166016,449.698236 69.0166016,450.946289 L69.0166016,456 L67.5576172,456 L67.5576172,446.367188 L68.7441406,446.367188 L68.9814453,447.685547 L69.0517578,447.685547 C69.3271498,447.216795 69.7153295,446.850587 70.2163086,446.586914 C70.7172877,446.323241 71.2783172,446.191406 71.8994141,446.191406 C73.405281,446.191406 74.3896461,446.736323 74.8525391,447.826172 L74.9228516,447.826172 C75.2099624,447.322263 75.6259738,446.92383 76.1708984,446.630859 C76.715823,446.337889 77.3369106,446.191406 78.0341797,446.191406 C79.1240289,446.191406 79.9399387,446.471189 80.4819336,447.030762 C81.0239285,447.590335 81.2949219,448.485345 81.2949219,449.71582 L81.2949219,456 L79.8359375,456 Z M90.2246094,456 L89.9345703,454.628906 L89.8642578,454.628906 C89.3837867,455.232425 88.9047875,455.641112 88.4272461,455.85498 C87.9497046,456.068849 87.3535192,456.175781 86.6386719,456.175781 C85.683589,456.175781 84.9350613,455.92969 84.3930664,455.4375 C83.8510715,454.94531 83.5800781,454.245122 83.5800781,453.336914 C83.5800781,451.391592 85.1357266,450.372071 88.2470703,450.27832 L89.8818359,450.225586 L89.8818359,449.62793 C89.8818359,448.872067 89.7192399,448.313967 89.394043,447.953613 C89.068846,447.59326 88.5488317,447.413086 87.8339844,447.413086 C87.031246,447.413086 86.1230519,447.659177 85.109375,448.151367 L84.6611328,447.035156 C85.1357446,446.777342 85.6557589,446.575196 86.2211914,446.428711 C86.7866239,446.282226 87.3535128,446.208984 87.921875,446.208984 C89.0703182,446.208984 89.921384,446.463865 90.4750977,446.973633 C91.0288114,447.483401 91.3056641,448.300776 91.3056641,449.425781 L91.3056641,456 L90.2246094,456 Z M86.9287109,454.97168 C87.8369186,454.97168 88.5502904,454.722659 89.0688477,454.224609 C89.5874049,453.72656 89.8466797,453.029301 89.8466797,452.132812 L89.8466797,451.262695 L88.3876953,451.324219 C87.2275333,451.365235 86.3911158,451.545409 85.878418,451.864746 C85.3657201,452.184084 85.109375,452.680661 85.109375,453.354492 C85.109375,453.881839 85.2690414,454.283202 85.5883789,454.558594 C85.9077164,454.833986 86.3544893,454.97168 86.9287109,454.97168 Z M95.7705078,456 L94.3115234,456 L94.3115234,446.367188 L95.7705078,446.367188 L95.7705078,456 Z M94.1884766,443.756836 C94.1884766,443.42285 94.270507,443.178223 94.4345703,443.022949 C94.5986336,442.867675 94.8037097,442.790039 95.0498047,442.790039 C95.2841809,442.790039 95.4863273,442.86914 95.65625,443.027344 C95.8261727,443.185548 95.9111328,443.428709 95.9111328,443.756836 C95.9111328,444.084963 95.8261727,444.329589 95.65625,444.490723 C95.4863273,444.651856 95.2841809,444.732422 95.0498047,444.732422 C94.8037097,444.732422 94.5986336,444.651856 94.4345703,444.490723 C94.270507,444.329589 94.1884766,444.084963 94.1884766,443.756836 Z M100.323242,456 L98.8642578,456 L98.8642578,442.324219 L100.323242,442.324219 L100.323242,456 Z" id="Email" stroke="none" fill="#FFFFFF" fill-rule="evenodd"></path>
                        <path d="M128.914062,669.894531 C128.914062,671.195319 128.470219,672.195797 127.58252,672.895996 C126.69482,673.596195 125.424813,673.946289 123.772461,673.946289 L122.260742,673.946289 L122.260742,679 L120.766602,679 L120.766602,666.150391 L124.097656,666.150391 C127.30861,666.150391 128.914062,667.398425 128.914062,669.894531 Z M122.260742,672.663086 L123.605469,672.663086 C124.929694,672.663086 125.887692,672.449221 126.479492,672.021484 C127.071292,671.593748 127.367188,670.908208 127.367188,669.964844 C127.367188,669.11523 127.08887,668.482424 126.532227,668.066406 C125.975583,667.650389 125.108404,667.442383 123.930664,667.442383 L122.260742,667.442383 L122.260742,672.663086 Z M132.754883,669.367188 L132.754883,675.616211 C132.754883,676.401371 132.933592,676.987303 133.291016,677.374023 C133.648439,677.760744 134.208004,677.954102 134.969727,677.954102 C135.977544,677.954102 136.714353,677.678714 137.180176,677.12793 C137.645998,676.577146 137.878906,675.677741 137.878906,674.429688 L137.878906,669.367188 L139.337891,669.367188 L139.337891,679 L138.133789,679 L137.922852,677.708008 L137.84375,677.708008 C137.54492,678.18262 137.130374,678.545897 136.600098,678.797852 C136.069822,679.049806 135.464847,679.175781 134.785156,679.175781 C133.613275,679.175781 132.735843,678.897464 132.152832,678.34082 C131.569821,677.784177 131.27832,676.893561 131.27832,675.668945 L131.27832,669.367188 L132.754883,669.367188 Z M148.645508,676.37207 C148.645508,677.268559 148.311527,677.959959 147.643555,678.446289 C146.975583,678.93262 146.038092,679.175781 144.831055,679.175781 C143.553705,679.175781 142.557621,678.973635 141.842773,678.569336 L141.842773,677.21582 C142.305666,677.450196 142.802243,677.634765 143.33252,677.769531 C143.862796,677.904298 144.374021,677.97168 144.866211,677.97168 C145.627933,677.97168 146.213865,677.850099 146.624023,677.606934 C147.034182,677.363768 147.239258,676.993167 147.239258,676.495117 C147.239258,676.120115 147.076662,675.799318 146.751465,675.532715 C146.426268,675.266112 145.791997,674.951174 144.848633,674.587891 C143.952144,674.253905 143.314943,673.962404 142.937012,673.713379 C142.55908,673.464354 142.277833,673.181642 142.093262,672.865234 C141.90869,672.548827 141.816406,672.170901 141.816406,671.731445 C141.816406,670.946285 142.135739,670.326662 142.774414,669.872559 C143.413089,669.418455 144.289057,669.191406 145.402344,669.191406 C146.439458,669.191406 147.45312,669.402342 148.443359,669.824219 L147.924805,671.010742 C146.958003,670.612303 146.082035,670.413086 145.296875,670.413086 C144.605465,670.413086 144.083986,670.521483 143.732422,670.738281 C143.380858,670.955079 143.205078,671.253904 143.205078,671.634766 C143.205078,671.892579 143.270995,672.112304 143.402832,672.293945 C143.534669,672.475587 143.747069,672.648437 144.040039,672.8125 C144.333009,672.976563 144.895504,673.213866 145.727539,673.524414 C146.870123,673.940432 147.642088,674.359373 148.043457,674.78125 C148.444826,675.203127 148.645508,675.733395 148.645508,676.37207 Z M157.610352,679 L157.610352,672.768555 C157.610352,671.983395 157.431642,671.397463 157.074219,671.010742 C156.716795,670.624022 156.15723,670.430664 155.395508,670.430664 C154.381831,670.430664 153.642092,670.706052 153.17627,671.256836 C152.710447,671.80762 152.477539,672.709955 152.477539,673.963867 L152.477539,679 L151.018555,679 L151.018555,665.324219 L152.477539,665.324219 L152.477539,669.463867 C152.477539,669.961917 152.454102,670.374998 152.407227,670.703125 L152.495117,670.703125 C152.782228,670.240232 153.190915,669.87549 153.721191,669.608887 C154.251467,669.342284 154.856442,669.208984 155.536133,669.208984 C156.713873,669.208984 157.597165,669.488767 158.186035,670.04834 C158.774905,670.607913 159.069336,671.497064 159.069336,672.71582 L159.069336,679 L157.610352,679 Z" id="Push" stroke="none" fill="#FFFFFF" fill-rule="evenodd"></path>
                        <path d="M204.017578,782.581055 C204.017578,783.71192 203.607426,784.593747 202.787109,785.226562 C201.966793,785.859378 200.853523,786.175781 199.447266,786.175781 C197.923821,786.175781 196.751957,785.979494 195.931641,785.586914 L195.931641,784.145508 C196.458987,784.368165 197.0332,784.543945 197.654297,784.672852 C198.275394,784.801758 198.890622,784.866211 199.5,784.866211 C200.496099,784.866211 201.246091,784.677248 201.75,784.299316 C202.253909,783.921385 202.505859,783.395511 202.505859,782.72168 C202.505859,782.276365 202.416505,781.911623 202.237793,781.627441 C202.059081,781.34326 201.760256,781.081056 201.341309,780.84082 C200.922361,780.600585 200.285161,780.328127 199.429688,780.023438 C198.234369,779.595701 197.380374,779.08887 196.867676,778.50293 C196.354978,777.916989 196.098633,777.152348 196.098633,776.208984 C196.098633,775.218745 196.470699,774.430667 197.214844,773.844727 C197.958988,773.258786 198.943353,772.96582 200.167969,772.96582 C201.445319,772.96582 202.620112,773.200193 203.692383,773.668945 L203.226562,774.969727 C202.16601,774.524412 201.134771,774.301758 200.132812,774.301758 C199.341793,774.301758 198.723635,774.471678 198.27832,774.811523 C197.833006,775.151369 197.610352,775.623044 197.610352,776.226562 C197.610352,776.671877 197.692382,777.03662 197.856445,777.320801 C198.020509,777.604982 198.297361,777.865721 198.687012,778.103027 C199.076662,778.340333 199.672848,778.602538 200.475586,778.889648 C201.823249,779.37012 202.750486,779.885739 203.257324,780.436523 C203.764163,780.987307 204.017578,781.702144 204.017578,782.581055 Z M214.740234,781.174805 C214.740234,782.745125 214.344731,783.971187 213.553711,784.853027 C212.762691,785.734868 211.669929,786.175781 210.275391,786.175781 C209.414058,786.175781 208.649417,785.973635 207.981445,785.569336 C207.313473,785.165037 206.797853,784.584965 206.43457,783.829102 C206.071287,783.073238 205.889648,782.188482 205.889648,781.174805 C205.889648,779.604484 206.282223,778.381352 207.067383,777.505371 C207.852543,776.62939 208.942376,776.191406 210.336914,776.191406 C211.684577,776.191406 212.755367,776.639644 213.549316,777.536133 C214.343266,778.432622 214.740234,779.6455 214.740234,781.174805 Z M207.401367,781.174805 C207.401367,782.40528 207.647458,783.34277 208.139648,783.987305 C208.631838,784.631839 209.355464,784.954102 210.310547,784.954102 C211.26563,784.954102 211.99072,784.633304 212.48584,783.991699 C212.98096,783.350094 213.228516,782.411139 213.228516,781.174805 C213.228516,779.950189 212.98096,779.020023 212.48584,778.384277 C211.99072,777.748532 211.25977,777.430664 210.292969,777.430664 C209.337886,777.430664 208.61719,777.744137 208.130859,778.371094 C207.644529,778.99805 207.401367,779.932611 207.401367,781.174805 Z M221.147461,786.175781 C219.752923,786.175781 218.673344,785.746586 217.908691,784.888184 C217.144039,784.029781 216.761719,782.815438 216.761719,781.245117 C216.761719,779.633781 217.149898,778.388676 217.92627,777.509766 C218.702641,776.630855 219.808587,776.191406 221.244141,776.191406 C221.707034,776.191406 222.16992,776.24121 222.632812,776.34082 C223.095705,776.44043 223.458983,776.557617 223.722656,776.692383 L223.274414,777.931641 C222.952147,777.802734 222.600588,777.695801 222.219727,777.61084 C221.838865,777.525878 221.501955,777.483398 221.208984,777.483398 C219.251943,777.483398 218.273438,778.731433 218.273438,781.227539 C218.273438,782.411139 218.512205,783.319333 218.989746,783.952148 C219.467288,784.584964 220.1748,784.901367 221.112305,784.901367 C221.915043,784.901367 222.738277,784.728517 223.582031,784.382812 L223.582031,785.674805 C222.937497,786.008791 222.125981,786.175781 221.147461,786.175781 Z M227.326172,786 L225.867188,786 L225.867188,776.367188 L227.326172,776.367188 L227.326172,786 Z M225.744141,773.756836 C225.744141,773.42285 225.826171,773.178223 225.990234,773.022949 C226.154298,772.867675 226.359374,772.790039 226.605469,772.790039 C226.839845,772.790039 227.041991,772.86914 227.211914,773.027344 C227.381837,773.185548 227.466797,773.428709 227.466797,773.756836 C227.466797,774.084963 227.381837,774.329589 227.211914,774.490723 C227.041991,774.651856 226.839845,774.732422 226.605469,774.732422 C226.359374,774.732422 226.154298,774.651856 225.990234,774.490723 C225.826171,774.329589 225.744141,774.084963 225.744141,773.756836 Z M236.34375,786 L236.053711,784.628906 L235.983398,784.628906 C235.502927,785.232425 235.023928,785.641112 234.546387,785.85498 C234.068845,786.068849 233.47266,786.175781 232.757812,786.175781 C231.80273,786.175781 231.054202,785.92969 230.512207,785.4375 C229.970212,784.94531 229.699219,784.245122 229.699219,783.336914 C229.699219,781.391592 231.254867,780.372071 234.366211,780.27832 L236.000977,780.225586 L236.000977,779.62793 C236.000977,778.872067 235.838381,778.313967 235.513184,777.953613 C235.187987,777.59326 234.667972,777.413086 233.953125,777.413086 C233.150387,777.413086 232.242193,777.659177 231.228516,778.151367 L230.780273,777.035156 C231.254885,776.777342 231.7749,776.575196 232.340332,776.428711 C232.905765,776.282226 233.472653,776.208984 234.041016,776.208984 C235.189459,776.208984 236.040525,776.463865 236.594238,776.973633 C237.147952,777.483401 237.424805,778.300776 237.424805,779.425781 L237.424805,786 L236.34375,786 Z M233.047852,784.97168 C233.956059,784.97168 234.669431,784.722659 235.187988,784.224609 C235.706546,783.72656 235.96582,783.029301 235.96582,782.132812 L235.96582,781.262695 L234.506836,781.324219 C233.346674,781.365235 232.510256,781.545409 231.997559,781.864746 C231.484861,782.184084 231.228516,782.680661 231.228516,783.354492 C231.228516,783.881839 231.388182,784.283202 231.70752,784.558594 C232.026857,784.833986 232.47363,784.97168 233.047852,784.97168 Z M241.889648,786 L240.430664,786 L240.430664,772.324219 L241.889648,772.324219 L241.889648,786 Z M255.583008,786 L255.292969,784.628906 L255.222656,784.628906 C254.742185,785.232425 254.263186,785.641112 253.785645,785.85498 C253.308103,786.068849 252.711918,786.175781 251.99707,786.175781 C251.041987,786.175781 250.29346,785.92969 249.751465,785.4375 C249.20947,784.94531 248.938477,784.245122 248.938477,783.336914 C248.938477,781.391592 250.494125,780.372071 253.605469,780.27832 L255.240234,780.225586 L255.240234,779.62793 C255.240234,778.872067 255.077638,778.313967 254.752441,777.953613 C254.427244,777.59326 253.90723,777.413086 253.192383,777.413086 C252.389644,777.413086 251.48145,777.659177 250.467773,778.151367 L250.019531,777.035156 C250.494143,776.777342 251.014157,776.575196 251.57959,776.428711 C252.145022,776.282226 252.711911,776.208984 253.280273,776.208984 C254.428717,776.208984 255.279782,776.463865 255.833496,776.973633 C256.38721,777.483401 256.664062,778.300776 256.664062,779.425781 L256.664062,786 L255.583008,786 Z M252.287109,784.97168 C253.195317,784.97168 253.908689,784.722659 254.427246,784.224609 C254.945803,783.72656 255.205078,783.029301 255.205078,782.132812 L255.205078,781.262695 L253.746094,781.324219 C252.585932,781.365235 251.749514,781.545409 251.236816,781.864746 C250.724119,782.184084 250.467773,782.680661 250.467773,783.354492 C250.467773,783.881839 250.62744,784.283202 250.946777,784.558594 C251.266115,784.833986 251.712888,784.97168 252.287109,784.97168 Z M266.226562,784.708008 L266.147461,784.708008 C265.473629,785.686528 264.465827,786.175781 263.124023,786.175781 C261.864252,786.175781 260.884281,785.745121 260.184082,784.883789 C259.483883,784.022457 259.133789,782.79786 259.133789,781.209961 C259.133789,779.622062 259.485348,778.388676 260.188477,777.509766 C260.891605,776.630855 261.870111,776.191406 263.124023,776.191406 C264.430671,776.191406 265.432614,776.666011 266.129883,777.615234 L266.244141,777.615234 L266.182617,776.920898 L266.147461,776.244141 L266.147461,772.324219 L267.606445,772.324219 L267.606445,786 L266.419922,786 L266.226562,784.708008 Z M263.308594,784.954102 C264.304692,784.954102 265.026853,784.683108 265.475098,784.141113 C265.923342,783.599118 266.147461,782.724615 266.147461,781.517578 L266.147461,781.209961 C266.147461,779.84472 265.920412,778.870608 265.466309,778.287598 C265.012205,777.704587 264.287114,777.413086 263.291016,777.413086 C262.435543,777.413086 261.780764,777.745602 261.32666,778.410645 C260.872556,779.075687 260.645508,780.014642 260.645508,781.227539 C260.645508,782.458014 260.871091,783.386716 261.322266,784.013672 C261.77344,784.640628 262.435543,784.954102 263.308594,784.954102 Z M276.914062,783.37207 C276.914062,784.268559 276.580081,784.959959 275.912109,785.446289 C275.244137,785.93262 274.306647,786.175781 273.099609,786.175781 C271.822259,786.175781 270.826175,785.973635 270.111328,785.569336 L270.111328,784.21582 C270.574221,784.450196 271.070798,784.634765 271.601074,784.769531 C272.13135,784.904298 272.642576,784.97168 273.134766,784.97168 C273.896488,784.97168 274.48242,784.850099 274.892578,784.606934 C275.302736,784.363768 275.507812,783.993167 275.507812,783.495117 C275.507812,783.120115 275.345216,782.799318 275.02002,782.532715 C274.694823,782.266112 274.060552,781.951174 273.117188,781.587891 C272.220699,781.253905 271.583498,780.962404 271.205566,780.713379 C270.827635,780.464354 270.546388,780.181642 270.361816,779.865234 C270.177245,779.548827 270.084961,779.170901 270.084961,778.731445 C270.084961,777.946285 270.404294,777.326662 271.042969,776.872559 C271.681644,776.418455 272.557612,776.191406 273.670898,776.191406 C274.708013,776.191406 275.721675,776.402342 276.711914,776.824219 L276.193359,778.010742 C275.226558,777.612303 274.35059,777.413086 273.56543,777.413086 C272.87402,777.413086 272.352541,777.521483 272.000977,777.738281 C271.649412,777.955079 271.473633,778.253904 271.473633,778.634766 C271.473633,778.892579 271.53955,779.112304 271.671387,779.293945 C271.803223,779.475587 272.015624,779.648437 272.308594,779.8125 C272.601564,779.976563 273.164058,780.213866 273.996094,780.524414 C275.138678,780.940432 275.910643,781.359373 276.312012,781.78125 C276.713381,782.203127 276.914062,782.733395 276.914062,783.37207 Z" id="Social-ads" stroke="none" fill="#FFFFFF" fill-rule="evenodd"></path>
                        <path d="M337.981445,875 L336.504883,875 L333.912109,866.395508 C333.789062,866.014647 333.651368,865.534183 333.499023,864.954102 C333.346679,864.374021 333.267578,864.025391 333.261719,863.908203 C333.132812,864.681644 332.927736,865.528316 332.646484,866.448242 L330.132812,875 L328.65625,875 L325.237305,862.150391 L326.819336,862.150391 L328.849609,870.086914 C329.130861,871.200201 329.335937,872.208003 329.464844,873.110352 C329.623048,872.038081 329.85742,870.989263 330.167969,869.963867 L332.470703,862.150391 L334.052734,862.150391 L336.469727,870.03418 C336.750978,870.942387 336.98828,871.967768 337.181641,873.110352 C337.292969,872.278316 337.503905,871.264654 337.814453,870.069336 L339.835938,862.150391 L341.417969,862.150391 L337.981445,875 Z M346.919922,875.175781 C345.496087,875.175781 344.372563,874.742192 343.549316,873.875 C342.72607,873.007808 342.314453,871.803719 342.314453,870.262695 C342.314453,868.709953 342.696774,867.476567 343.461426,866.5625 C344.226078,865.648433 345.252923,865.191406 346.541992,865.191406 C347.749029,865.191406 348.704098,865.588375 349.407227,866.382324 C350.110355,867.176274 350.461914,868.223626 350.461914,869.524414 L350.461914,870.447266 L343.826172,870.447266 C343.855469,871.578131 344.141111,872.436521 344.683105,873.022461 C345.2251,873.608401 345.988276,873.901367 346.972656,873.901367 C348.009771,873.901367 349.035151,873.684572 350.048828,873.250977 L350.048828,874.551758 C349.533201,874.774415 349.045412,874.934082 348.585449,875.030762 C348.125486,875.127442 347.570316,875.175781 346.919922,875.175781 Z M346.524414,866.413086 C345.750973,866.413086 345.13428,866.665037 344.674316,867.168945 C344.214353,867.672854 343.94336,868.370113 343.861328,869.260742 L348.897461,869.260742 C348.897461,868.340816 348.692385,867.636233 348.282227,867.146973 C347.872068,866.657712 347.286137,866.413086 346.524414,866.413086 Z M357.431641,865.208984 C358.697272,865.208984 359.680172,865.641109 360.380371,866.505371 C361.08057,867.369633 361.430664,868.592766 361.430664,870.174805 C361.430664,871.756844 361.07764,872.985835 360.371582,873.861816 C359.665524,874.737797 358.685553,875.175781 357.431641,875.175781 C356.804684,875.175781 356.231936,875.06006 355.713379,874.828613 C355.194822,874.597167 354.759767,874.241213 354.408203,873.760742 L354.302734,873.760742 L353.995117,875 L352.949219,875 L352.949219,861.324219 L354.408203,861.324219 L354.408203,864.646484 C354.408203,865.390629 354.384766,866.058591 354.337891,866.650391 L354.408203,866.650391 C355.087894,865.689448 356.095696,865.208984 357.431641,865.208984 Z M357.220703,866.430664 C356.224604,866.430664 355.506838,866.716306 355.067383,867.287598 C354.627927,867.85889 354.408203,868.821282 354.408203,870.174805 C354.408203,871.528327 354.633787,872.496579 355.084961,873.07959 C355.536135,873.662601 356.259761,873.954102 357.255859,873.954102 C358.152348,873.954102 358.82031,873.627445 359.259766,872.974121 C359.699221,872.320798 359.918945,871.381842 359.918945,870.157227 C359.918945,868.903314 359.699221,867.968753 359.259766,867.353516 C358.82031,866.738278 358.14063,866.430664 357.220703,866.430664 Z M370.74707,864.708008 C370.74707,865.112307 370.852538,865.497557 371.063477,865.86377 C371.274415,866.229982 371.634763,866.670896 372.144531,867.186523 C372.900394,866.747068 373.426268,866.34131 373.722168,865.969238 C374.018068,865.597166 374.166016,865.167971 374.166016,864.681641 C374.166016,864.230466 374.015138,863.862794 373.713379,863.578613 C373.41162,863.294432 373.008792,863.152344 372.504883,863.152344 C371.983396,863.152344 371.56006,863.292967 371.234863,863.574219 C370.909666,863.85547 370.74707,864.233396 370.74707,864.708008 Z M372.109375,873.866211 C373.521491,873.866211 374.693355,873.415044 375.625,872.512695 L371.78418,868.786133 C371.133786,869.184572 370.673829,869.514159 370.404297,869.774902 C370.134764,870.035646 369.935548,870.315428 369.806641,870.614258 C369.677734,870.913087 369.613281,871.252928 369.613281,871.633789 C369.613281,872.319339 369.84033,872.862791 370.294434,873.26416 C370.748537,873.665529 371.353512,873.866211 372.109375,873.866211 Z M368.101562,871.668945 C368.101562,870.907223 368.305174,870.233401 368.712402,869.647461 C369.119631,869.061521 369.850581,868.46973 370.905273,867.87207 C370.407224,867.315427 370.068849,866.893556 369.890137,866.606445 C369.711425,866.319335 369.569336,866.020509 369.463867,865.709961 C369.358398,865.399413 369.305664,865.07715 369.305664,864.743164 C369.305664,863.864253 369.592771,863.178713 370.166992,862.686523 C370.741214,862.194333 371.54101,861.948242 372.566406,861.948242 C373.51563,861.948242 374.262693,862.192869 374.807617,862.682129 C375.352542,863.171389 375.625,863.852535 375.625,864.725586 C375.625,865.352542 375.425783,865.93115 375.027344,866.461426 C374.628904,866.991702 373.969731,867.529294 373.049805,868.074219 L376.626953,871.510742 C376.95508,871.147459 377.217284,870.721194 377.413574,870.231934 C377.609864,869.742673 377.77539,869.208011 377.910156,868.62793 L379.386719,868.62793 C378.988279,870.303719 378.387699,871.575191 377.584961,872.442383 L380.212891,875 L378.200195,875 L376.574219,873.435547 C375.882809,874.056644 375.179691,874.501952 374.464844,874.771484 C373.749996,875.041017 372.953129,875.175781 372.074219,875.175781 C370.814447,875.175781 369.837406,874.865237 369.143066,874.244141 C368.448727,873.623044 368.101562,872.764654 368.101562,871.668945 Z M398.749023,875 L398.749023,868.733398 C398.749023,867.965816 398.584963,867.390139 398.256836,867.006348 C397.928709,866.622557 397.418949,866.430664 396.727539,866.430664 C395.819331,866.430664 395.14844,866.691404 394.714844,867.212891 C394.281248,867.734378 394.064453,868.537104 394.064453,869.621094 L394.064453,875 L392.605469,875 L392.605469,868.733398 C392.605469,867.965816 392.441408,867.390139 392.113281,867.006348 C391.785155,866.622557 391.272464,866.430664 390.575195,866.430664 C389.661128,866.430664 388.991701,866.704587 388.566895,867.252441 C388.142088,867.800296 387.929688,868.698236 387.929688,869.946289 L387.929688,875 L386.470703,875 L386.470703,865.367188 L387.657227,865.367188 L387.894531,866.685547 L387.964844,866.685547 C388.240236,866.216795 388.628415,865.850587 389.129395,865.586914 C389.630374,865.323241 390.191403,865.191406 390.8125,865.191406 C392.318367,865.191406 393.302732,865.736323 393.765625,866.826172 L393.835938,866.826172 C394.123048,866.322263 394.53906,865.92383 395.083984,865.630859 C395.628909,865.337889 396.249997,865.191406 396.947266,865.191406 C398.037115,865.191406 398.853025,865.471189 399.39502,866.030762 C399.937014,866.590335 400.208008,867.485345 400.208008,868.71582 L400.208008,875 L398.749023,875 Z M411.52832,870.174805 C411.52832,871.745125 411.132816,872.971187 410.341797,873.853027 C409.550777,874.734868 408.458015,875.175781 407.063477,875.175781 C406.202144,875.175781 405.437503,874.973635 404.769531,874.569336 C404.101559,874.165037 403.585939,873.584965 403.222656,872.829102 C402.859373,872.073238 402.677734,871.188482 402.677734,870.174805 C402.677734,868.604484 403.070309,867.381352 403.855469,866.505371 C404.640629,865.62939 405.730462,865.191406 407.125,865.191406 C408.472663,865.191406 409.543453,865.639644 410.337402,866.536133 C411.131352,867.432622 411.52832,868.6455 411.52832,870.174805 Z M404.189453,870.174805 C404.189453,871.40528 404.435544,872.34277 404.927734,872.987305 C405.419924,873.631839 406.14355,873.954102 407.098633,873.954102 C408.053716,873.954102 408.778806,873.633304 409.273926,872.991699 C409.769045,872.350094 410.016602,871.411139 410.016602,870.174805 C410.016602,868.950189 409.769045,868.020023 409.273926,867.384277 C408.778806,866.748532 408.047856,866.430664 407.081055,866.430664 C406.125972,866.430664 405.405276,866.744137 404.918945,867.371094 C404.432615,867.99805 404.189453,868.932611 404.189453,870.174805 Z M418.568359,865.208984 C419.833991,865.208984 420.816891,865.641109 421.51709,866.505371 C422.217289,867.369633 422.567383,868.592766 422.567383,870.174805 C422.567383,871.756844 422.214359,872.985835 421.508301,873.861816 C420.802243,874.737797 419.822272,875.175781 418.568359,875.175781 C417.941403,875.175781 417.368655,875.06006 416.850098,874.828613 C416.33154,874.597167 415.896486,874.241213 415.544922,873.760742 L415.439453,873.760742 L415.131836,875 L414.085938,875 L414.085938,861.324219 L415.544922,861.324219 L415.544922,864.646484 C415.544922,865.390629 415.521485,866.058591 415.474609,866.650391 L415.544922,866.650391 C416.224613,865.689448 417.232415,865.208984 418.568359,865.208984 Z M418.357422,866.430664 C417.361323,866.430664 416.643557,866.716306 416.204102,867.287598 C415.764646,867.85889 415.544922,868.821282 415.544922,870.174805 C415.544922,871.528327 415.770506,872.496579 416.22168,873.07959 C416.672854,873.662601 417.396479,873.954102 418.392578,873.954102 C419.289067,873.954102 419.957029,873.627445 420.396484,872.974121 C420.83594,872.320798 421.055664,871.381842 421.055664,870.157227 C421.055664,868.903314 420.83594,867.968753 420.396484,867.353516 C419.957029,866.738278 419.277348,866.430664 418.357422,866.430664 Z M426.575195,875 L425.116211,875 L425.116211,865.367188 L426.575195,865.367188 L426.575195,875 Z M424.993164,862.756836 C424.993164,862.42285 425.075194,862.178223 425.239258,862.022949 C425.403321,861.867675 425.608397,861.790039 425.854492,861.790039 C426.088868,861.790039 426.291015,861.86914 426.460938,862.027344 C426.63086,862.185548 426.71582,862.428709 426.71582,862.756836 C426.71582,863.084963 426.63086,863.329589 426.460938,863.490723 C426.291015,863.651856 426.088868,863.732422 425.854492,863.732422 C425.608397,863.732422 425.403321,863.651856 425.239258,863.490723 C425.075194,863.329589 424.993164,863.084963 424.993164,862.756836 Z M431.12793,875 L429.668945,875 L429.668945,861.324219 L431.12793,861.324219 L431.12793,875 Z M438.291016,875.175781 C436.86718,875.175781 435.743656,874.742192 434.92041,873.875 C434.097164,873.007808 433.685547,871.803719 433.685547,870.262695 C433.685547,868.709953 434.067867,867.476567 434.83252,866.5625 C435.597172,865.648433 436.624017,865.191406 437.913086,865.191406 C439.120123,865.191406 440.075192,865.588375 440.77832,866.382324 C441.481449,867.176274 441.833008,868.223626 441.833008,869.524414 L441.833008,870.447266 L435.197266,870.447266 C435.226563,871.578131 435.512204,872.436521 436.054199,873.022461 C436.596194,873.608401 437.35937,873.901367 438.34375,873.901367 C439.380865,873.901367 440.406245,873.684572 441.419922,873.250977 L441.419922,874.551758 C440.904294,874.774415 440.416506,874.934082 439.956543,875.030762 C439.49658,875.127442 438.94141,875.175781 438.291016,875.175781 Z M437.895508,866.413086 C437.122066,866.413086 436.505373,866.665037 436.04541,867.168945 C435.585447,867.672854 435.314454,868.370113 435.232422,869.260742 L440.268555,869.260742 C440.268555,868.340816 440.063479,867.636233 439.65332,867.146973 C439.243162,866.657712 438.65723,866.413086 437.895508,866.413086 Z" id="Web-&amp;-mobile" stroke="none" fill="#FFFFFF" fill-rule="evenodd"></path>
                        <rect id="Rectangle" stroke="#A96FDC" stroke-width="1" fill="none" x="10.5" y="446.5" width="19" height="15"></rect>
                        <polyline id="Path-19" stroke="#A96FDC" stroke-width="1" fill="none" points="11 447 19.8427113 455 29 447"></polyline>
                        <path d="M25.3346354,577 L38,577 L38,559 L16,559 L16,577 L20,577 L20,581 L25.3346354,577 Z" id="Combined-Shape" stroke="#A96FDC" stroke-width="1" fill="#232323" fill-rule="evenodd"></path>
                        <circle id="Oval" stroke="#A96FDC" stroke-width="1" fill="#232323" fill-rule="evenodd" cx="22" cy="568" r="1"></circle>
                        <circle id="Oval" stroke="#A96FDC" stroke-width="1" fill="#232323" fill-rule="evenodd" cx="27" cy="568" r="1"></circle>
                        <circle id="Oval" stroke="#A96FDC" stroke-width="1" fill="#232323" fill-rule="evenodd" cx="32" cy="568" r="1"></circle>
                        <circle id="Oval" stroke="#A96FDC" stroke-width="1" fill="#232323" fill-rule="evenodd" cx="75" cy="688" r="1"></circle>
                        <rect id="Rectangle-3" stroke="#A96FDC" stroke-width="1" fill="#232323" fill-rule="evenodd" x="68" y="662" width="14" height="23"></rect>
                        <rect id="Rectangle-4" stroke="#A96FDC" stroke-width="1" fill="#232323" fill-rule="evenodd" x="73" y="665" width="15" height="6"></rect>
                        <rect id="Rectangle-26" stroke="#A96FDC" stroke-width="1" fill="none" x="251.5" y="855.5" width="37" height="23"></rect>
                        <rect id="Rectangle-26" stroke="#A96FDC" stroke-width="1" fill="none" x="253.5" y="857.5" width="33" height="21"></rect>
                        <rect id="Rectangle-8" stroke="#A96FDC" stroke-width="1" fill="#232323" fill-rule="evenodd" x="247" y="878" width="46" height="4"></rect>
                        <rect id="Rectangle-27" stroke="#A96FDC" stroke-width="1" fill="#232323" fill-rule="evenodd" x="282" y="861" width="16" height="25"></rect>
                        <circle id="Oval" stroke="#A96FDC" stroke-width="1" fill="#232323" fill-rule="evenodd" cx="290" cy="882" r="1"></circle>
                        <rect id="Rectangle-3" stroke="#A96FDC" stroke-width="1" fill="#232323" fill-rule="evenodd" x="285" y="864" width="10" height="15"></rect>
                    </g>
                </g>
            </g>
        </g>
    </g>
</svg>