<?xml version="1.0" encoding="UTF-8"?>
<svg width="670px" height="670px" viewBox="0 0 670 670" version="1.1" xmlns="http://www.w3.org/2000/svg" xmlns:xlink="http://www.w3.org/1999/xlink">
    <!-- Generator: Sketch 47.1 (45422) - http://www.bohemiancoding.com/sketch -->
    <title>illustration_3</title>
    <desc>Created with Sketch.</desc>
    <defs>
        <rect id="path-1" x="0" y="0" width="670" height="670"></rect>
    </defs>
    <g id="Symbols" stroke="none" stroke-width="1" fill="none" fill-rule="evenodd">
        <g id="illustration_3">
            <g id="Group">
                <mask id="mask-2" fill="white">
                    <use xlink:href="#path-1"></use>
                </mask>
                <g id="Mask"></g>
                <g id="Group-2" mask="url(#mask-2)">
                    <g transform="translate(99.000000, -158.000000)">
                        <path d="M696.311345,698.54559 C480.63171,831.660281 197.878355,764.728431 64.7636636,549.048796 C-41.7283946,376.505088 11.8173908,150.302709 184.361099,43.8106508 C322.395455,-41.3826907 503.358273,1.45424276 588.551615,139.488599 C656.706898,249.916389 622.437046,394.687254 512.009256,462.841012 C423.667329,517.364628 307.851553,489.950272 253.326411,401.608345 C209.708433,330.932973 231.640223,238.280047 302.314069,194.662069 C358.854367,159.766771 432.975793,177.311288 467.87109,233.851586 C495.787329,279.081993 481.75141,338.380354 436.519477,366.296592 C400.335151,388.629583 352.895852,377.400543 330.562862,341.214691 C312.696469,312.267231 321.680006,274.316402 350.628992,256.450009 C373.787266,242.156285 404.147319,249.344335 418.439518,272.502609 C429.874497,291.028007 424.124972,315.31666 405.598048,326.751639 C390.776509,335.898402 371.346502,331.299088 362.199739,316.477548 C354.880498,304.621537 358.55995,289.076922 370.417486,281.759206 C379.902906,275.904424 392.338598,278.848595 398.193381,288.334014 C402.876597,295.921739 400.521259,305.870903 392.933534,310.554119 C386.862134,314.300692 378.903718,312.416727 375.157145,306.345327 C372.159582,301.489732 373.666754,295.122389 378.523874,292.124826 C382.409265,289.726775 387.501309,290.931902 389.900885,294.818819 C391.81841,297.926217 390.854308,302.000767 387.745385,303.919818 C385.258857,305.454448 381.998912,304.682556 380.464281,302.196028 C379.236272,300.206805 379.85409,297.599764 381.843313,296.371755 C383.434386,295.389348 385.521239,295.883602 386.503647,297.474675 C387.289268,298.746924 386.894169,300.417321 385.620395,301.201417 C384.602902,301.829914 383.266583,301.51414 382.638087,300.496646" id="Page-1" stroke="#A96FDC" stroke-width="1" fill="none"></path>
                        <path d="M686.277064,426.126366 C605.47075,568.840963 424.26982,619.027651 281.555224,538.221337 C167.383547,473.575577 127.233488,328.615542 191.879248,214.443865 C243.595147,123.106523 359.563884,90.987184 450.901225,142.703084 C523.971807,184.075567 549.667514,276.850084 508.29385,349.920666 C475.195155,408.376423 400.976485,428.933461 342.519548,395.834766 C295.754707,369.356754 279.309785,309.980638 305.788976,263.215796 C326.971386,225.804395 374.472515,212.647985 411.883916,233.830395 C441.813273,250.776794 452.338401,288.776989 435.392001,318.706346 C421.83441,342.651012 391.434254,351.071114 367.490768,337.513523 C348.335507,326.667449 341.60037,302.34756 352.446443,283.1923 C361.122594,267.868327 380.578741,262.479509 395.902713,271.15684 C408.161183,278.097288 412.47271,293.66197 405.531081,305.92162 C399.97825,315.72816 387.526269,319.177145 377.719729,313.624314 C369.873081,309.182994 367.114365,299.220701 371.556865,291.375233 C375.110866,285.097914 383.080228,282.891413 389.356367,286.445414 C394.378221,289.287906 396.143422,295.66316 393.30093,300.685015 C391.025992,304.701555 385.926261,306.115131 381.908541,303.840193 C378.694365,302.020715 377.565156,297.940458 379.384634,294.726282" id="Page-1" stroke="#A96FDC" stroke-width="1" fill="none" opacity="0.5"></path>
                        <path d="M59.2685547,277.301758 C57.8564383,277.301758 56.7417033,277.771968 55.9243164,278.712402 C55.1069295,279.652837 54.6982422,280.940422 54.6982422,282.575195 C54.6982422,284.256844 55.0922812,285.556148 55.8803711,286.473145 C56.668461,287.390141 57.7919849,287.848633 59.2509766,287.848633 C60.1474654,287.848633 61.1699161,287.687502 62.3183594,287.365234 L62.3183594,288.674805 C61.4277299,289.008791 60.3291081,289.175781 59.0224609,289.175781 C57.1298733,289.175781 55.6694387,288.601568 54.6411133,287.453125 C53.6127878,286.304682 53.0986328,284.672862 53.0986328,282.557617 C53.0986328,281.233392 53.3461889,280.073247 53.8413086,279.077148 C54.3364283,278.08105 55.0512649,277.313479 55.9858398,276.774414 C56.9204148,276.235349 58.0205015,275.96582 59.2861328,275.96582 C60.6337958,275.96582 61.8115184,276.211912 62.8193359,276.704102 L62.1865234,277.987305 C61.2138623,277.530271 60.2412158,277.301758 59.2685547,277.301758 Z M68.9716797,289.175781 C67.5478444,289.175781 66.4243205,288.742192 65.6010742,287.875 C64.7778279,287.007808 64.3662109,285.803719 64.3662109,284.262695 C64.3662109,282.709953 64.7485313,281.476567 65.5131836,280.5625 C66.2778359,279.648433 67.3046811,279.191406 68.59375,279.191406 C69.8007873,279.191406 70.7558559,279.588375 71.4589844,280.382324 C72.1621129,281.176274 72.5136719,282.223626 72.5136719,283.524414 L72.5136719,284.447266 L65.8779297,284.447266 C65.9072267,285.578131 66.1928684,286.436521 66.7348633,287.022461 C67.2768582,287.608401 68.0400341,287.901367 69.0244141,287.901367 C70.0615286,287.901367 71.086909,287.684572 72.1005859,287.250977 L72.1005859,288.551758 C71.5849584,288.774415 71.0971703,288.934082 70.637207,289.030762 C70.1772438,289.127442 69.6220736,289.175781 68.9716797,289.175781 Z M68.5761719,280.413086 C67.8027305,280.413086 67.1860375,280.665037 66.7260742,281.168945 C66.266111,281.672854 65.9951176,282.370113 65.9130859,283.260742 L70.9492188,283.260742 C70.9492188,282.340816 70.7441427,281.636233 70.3339844,281.146973 C69.9238261,280.657712 69.3378944,280.413086 68.5761719,280.413086 Z M80.8017578,280.615234 L76.4599609,280.615234 L76.4599609,289 L75.0009766,289 L75.0009766,279.367188 L80.8017578,279.367188 L80.8017578,280.615234 Z M87.7099609,287.59375 L87.9824219,286.776367 L88.3603516,285.739258 L90.9707031,279.384766 L92.8251953,279.384766 L92.8251953,289 L91.5332031,289 L91.5332031,281.045898 L91.3574219,281.555664 L90.8476562,282.900391 L88.3603516,289 L87.1386719,289 L84.6513672,282.882812 C84.3408188,282.097652 84.1269537,281.485354 84.0097656,281.045898 L84.0097656,289 L82.7089844,289 L82.7089844,279.384766 L84.4931641,279.384766 L87.015625,285.493164 C87.2675794,286.137699 87.4990224,286.837887 87.7099609,287.59375 Z M100.005859,289.175781 C98.5820241,289.175781 97.4585002,288.742192 96.6352539,287.875 C95.8120076,287.007808 95.4003906,285.803719 95.4003906,284.262695 C95.4003906,282.709953 95.782711,281.476567 96.5473633,280.5625 C97.3120155,279.648433 98.3388607,279.191406 99.6279297,279.191406 C100.834967,279.191406 101.790036,279.588375 102.493164,280.382324 C103.196293,281.176274 103.547852,282.223626 103.547852,283.524414 L103.547852,284.447266 L96.9121094,284.447266 C96.9414064,285.578131 97.2270481,286.436521 97.769043,287.022461 C98.3110379,287.608401 99.0742138,287.901367 100.058594,287.901367 C101.095708,287.901367 102.121089,287.684572 103.134766,287.250977 L103.134766,288.551758 C102.619138,288.774415 102.13135,288.934082 101.671387,289.030762 C101.211423,289.127442 100.656253,289.175781 100.005859,289.175781 Z M99.6103516,280.413086 C98.8369102,280.413086 98.2202171,280.665037 97.7602539,281.168945 C97.3002907,281.672854 97.0292973,282.370113 96.9472656,283.260742 L101.983398,283.260742 C101.983398,282.340816 101.778322,281.636233 101.368164,281.146973 C100.958006,280.657712 100.372074,280.413086 99.6103516,280.413086 Z M107.494141,279.367188 L107.494141,283.401367 L112.890625,283.401367 L112.890625,279.367188 L114.349609,279.367188 L114.349609,289 L112.890625,289 L112.890625,284.658203 L107.494141,284.658203 L107.494141,289 L106.035156,289 L106.035156,279.367188 L107.494141,279.367188 Z M123.938477,280.615234 L120.80957,280.615234 L120.80957,289 L119.350586,289 L119.350586,280.615234 L116.256836,280.615234 L116.256836,279.367188 L123.938477,279.367188 L123.938477,280.615234 Z M131.769531,289 L131.479492,287.628906 L131.40918,287.628906 C130.928709,288.232425 130.449709,288.641112 129.972168,288.85498 C129.494627,289.068849 128.898441,289.175781 128.183594,289.175781 C127.228511,289.175781 126.479983,288.92969 125.937988,288.4375 C125.395993,287.94531 125.125,287.245122 125.125,286.336914 C125.125,284.391592 126.680649,283.372071 129.791992,283.27832 L131.426758,283.225586 L131.426758,282.62793 C131.426758,281.872067 131.264162,281.313967 130.938965,280.953613 C130.613768,280.59326 130.093754,280.413086 129.378906,280.413086 C128.576168,280.413086 127.667974,280.659177 126.654297,281.151367 L126.206055,280.035156 C126.680666,279.777342 127.200681,279.575196 127.766113,279.428711 C128.331546,279.282226 128.898435,279.208984 129.466797,279.208984 C130.61524,279.208984 131.466306,279.463865 132.02002,279.973633 C132.573733,280.483401 132.850586,281.300776 132.850586,282.425781 L132.850586,289 L131.769531,289 Z M128.473633,287.97168 C129.38184,287.97168 130.095212,287.722659 130.61377,287.224609 C131.132327,286.72656 131.391602,286.029301 131.391602,285.132812 L131.391602,284.262695 L129.932617,284.324219 C128.772455,284.365235 127.936038,284.545409 127.42334,284.864746 C126.910642,285.184084 126.654297,285.680661 126.654297,286.354492 C126.654297,286.881839 126.813963,287.283202 127.133301,287.558594 C127.452638,287.833986 127.899411,287.97168 128.473633,287.97168 Z M145.251953,292.331055 L143.792969,292.331055 L143.792969,289 L135.856445,289 L135.856445,279.367188 L137.31543,279.367188 L137.31543,287.743164 L142.430664,287.743164 L142.430664,279.367188 L143.889648,279.367188 L143.889648,287.743164 L145.251953,287.743164 L145.251953,292.331055 Z M148.495117,279.367188 L148.495117,285.475586 L148.433594,287.075195 L148.407227,287.576172 L153.619141,279.367188 L155.438477,279.367188 L155.438477,289 L154.076172,289 L154.076172,283.111328 L154.102539,281.951172 L154.146484,280.808594 L148.943359,289 L147.124023,289 L147.124023,279.367188 L148.495117,279.367188 Z M159.015625,289 L157.310547,289 L160.079102,284.930664 C159.334957,284.766601 158.765139,284.448733 158.369629,283.977051 C157.974119,283.505369 157.776367,282.912113 157.776367,282.197266 C157.776367,281.318355 158.072263,280.626956 158.664062,280.123047 C159.255862,279.619138 160.082026,279.367188 161.142578,279.367188 L165.431641,279.367188 L165.431641,289 L163.972656,289 L163.972656,285.150391 L161.538086,285.150391 L159.015625,289 Z M159.200195,282.214844 C159.200195,283.328131 160.008781,283.884766 161.625977,283.884766 L163.972656,283.884766 L163.972656,280.632812 L161.327148,280.632812 C159.909173,280.632812 159.200195,281.160151 159.200195,282.214844 Z" id="Сегментация" stroke="none" fill="#FFFFFF" fill-rule="evenodd"></path>
                        <circle id="Oval-9" stroke="#A96FDC" stroke-width="1" fill="#232323" fill-rule="evenodd" cx="21" cy="284" r="20"></circle>
                        <path d="M67.84375,429 L66.2441406,424.913086 L61.09375,424.913086 L59.5117188,429 L58,429 L63.0800781,416.097656 L64.3369141,416.097656 L69.390625,429 L67.84375,429 Z M65.7783203,423.568359 L64.2841797,419.586914 C64.0908193,419.083005 63.8916026,418.464847 63.6865234,417.732422 C63.5576165,418.294925 63.3730481,418.913083 63.1328125,419.586914 L61.6210938,423.568359 L65.7783203,423.568359 Z M72.3964844,419.367188 L72.3964844,423.401367 L77.7929688,423.401367 L77.7929688,419.367188 L79.2519531,419.367188 L79.2519531,429 L77.7929688,429 L77.7929688,424.658203 L72.3964844,424.658203 L72.3964844,429 L70.9375,429 L70.9375,419.367188 L72.3964844,419.367188 Z M88.2695312,429 L87.9794922,427.628906 L87.9091797,427.628906 C87.4287085,428.232425 86.9497094,428.641112 86.472168,428.85498 C85.9946265,429.068849 85.3984411,429.175781 84.6835938,429.175781 C83.7285108,429.175781 82.9799832,428.92969 82.4379883,428.4375 C81.8959934,427.94531 81.625,427.245122 81.625,426.336914 C81.625,424.391592 83.1806485,423.372071 86.2919922,423.27832 L87.9267578,423.225586 L87.9267578,422.62793 C87.9267578,421.872067 87.7641618,421.313967 87.4389648,420.953613 C87.1137679,420.59326 86.5937536,420.413086 85.8789062,420.413086 C85.0761679,420.413086 84.1679738,420.659177 83.1542969,421.151367 L82.7060547,420.035156 C83.1806664,419.777342 83.7006808,419.575196 84.2661133,419.428711 C84.8315458,419.282226 85.3984347,419.208984 85.9667969,419.208984 C87.1152401,419.208984 87.9663058,419.463865 88.5200195,419.973633 C89.0737332,420.483401 89.3505859,421.300776 89.3505859,422.425781 L89.3505859,429 L88.2695312,429 Z M84.9736328,427.97168 C85.8818405,427.97168 86.5952123,427.722659 87.1137695,427.224609 C87.6323268,426.72656 87.8916016,426.029301 87.8916016,425.132812 L87.8916016,424.262695 L86.4326172,424.324219 C85.2724551,424.365235 84.4360377,424.545409 83.9233398,424.864746 C83.410642,425.184084 83.1542969,425.680661 83.1542969,426.354492 C83.1542969,426.881839 83.3139632,427.283202 83.6333008,427.558594 C83.9526383,427.833986 84.3994112,427.97168 84.9736328,427.97168 Z M99.5371094,429 L98.0605469,429 L98.0605469,420.615234 L95.1689453,420.615234 C95.0107414,422.701182 94.791017,424.356439 94.5097656,425.581055 C94.2285142,426.80567 93.8637718,427.702146 93.4155273,428.270508 C92.9672829,428.83887 92.3974644,429.123047 91.7060547,429.123047 C91.3896469,429.123047 91.1376963,429.087891 90.9501953,429.017578 L90.9501953,427.936523 C91.0791022,427.97168 91.2255851,427.989258 91.3896484,427.989258 C92.0634799,427.989258 92.5996074,427.277351 92.9980469,425.853516 C93.3964864,424.42968 93.6982412,422.267593 93.9033203,419.367188 L99.5371094,419.367188 L99.5371094,429 Z M104.001953,419.367188 L104.001953,425.475586 L103.94043,427.075195 L103.914062,427.576172 L109.125977,419.367188 L110.945312,419.367188 L110.945312,429 L109.583008,429 L109.583008,423.111328 L109.609375,421.951172 L109.65332,420.808594 L104.450195,429 L102.630859,429 L102.630859,419.367188 L104.001953,419.367188 Z M120.53418,420.615234 L117.405273,420.615234 L117.405273,429 L115.946289,429 L115.946289,420.615234 L112.852539,420.615234 L112.852539,419.367188 L120.53418,419.367188 L120.53418,420.615234 Z M123.8125,419.367188 L123.8125,425.475586 L123.750977,427.075195 L123.724609,427.576172 L128.936523,419.367188 L130.755859,419.367188 L130.755859,429 L129.393555,429 L129.393555,423.111328 L129.419922,421.951172 L129.463867,420.808594 L124.260742,429 L122.441406,429 L122.441406,419.367188 L123.8125,419.367188 Z M139.46582,419.367188 L141.06543,419.367188 L136.908203,424.016602 L141.408203,429 L139.703125,429 L135.308594,424.12207 L135.308594,429 L133.849609,429 L133.849609,419.367188 L135.308594,419.367188 L135.308594,424.051758 L139.46582,419.367188 Z M149.116211,429 L148.826172,427.628906 L148.755859,427.628906 C148.275388,428.232425 147.796389,428.641112 147.318848,428.85498 C146.841306,429.068849 146.245121,429.175781 145.530273,429.175781 C144.575191,429.175781 143.826663,428.92969 143.284668,428.4375 C142.742673,427.94531 142.47168,427.245122 142.47168,426.336914 C142.47168,424.391592 144.027328,423.372071 147.138672,423.27832 L148.773438,423.225586 L148.773438,422.62793 C148.773438,421.872067 148.610841,421.313967 148.285645,420.953613 C147.960448,420.59326 147.440433,420.413086 146.725586,420.413086 C145.922848,420.413086 145.014654,420.659177 144.000977,421.151367 L143.552734,420.035156 C144.027346,419.777342 144.54736,419.575196 145.112793,419.428711 C145.678225,419.282226 146.245114,419.208984 146.813477,419.208984 C147.96192,419.208984 148.812986,419.463865 149.366699,419.973633 C149.920413,420.483401 150.197266,421.300776 150.197266,422.425781 L150.197266,429 L149.116211,429 Z M145.820312,427.97168 C146.72852,427.97168 147.441892,427.722659 147.960449,427.224609 C148.479006,426.72656 148.738281,426.029301 148.738281,425.132812 L148.738281,424.262695 L147.279297,424.324219 C146.119135,424.365235 145.282717,424.545409 144.77002,424.864746 C144.257322,425.184084 144.000977,425.680661 144.000977,426.354492 C144.000977,426.881839 144.160643,427.283202 144.47998,427.558594 C144.799318,427.833986 145.246091,427.97168 145.820312,427.97168 Z" id="Аналитика" stroke="none" fill="#FFFFFF" fill-rule="evenodd"></path>
                        <path d="M107.766602,548.150391 L111.396484,548.150391 C113.101571,548.150391 114.334957,548.405271 115.09668,548.915039 C115.858402,549.424807 116.239258,550.230463 116.239258,551.332031 C116.239258,552.093754 116.026858,552.722165 115.602051,553.217285 C115.177244,553.712405 114.557621,554.033202 113.743164,554.179688 L113.743164,554.267578 C115.694346,554.601564 116.669922,555.626945 116.669922,557.34375 C116.669922,558.492193 116.281742,559.388669 115.505371,560.033203 C114.729,560.677738 113.643562,561 112.249023,561 L107.766602,561 L107.766602,548.150391 Z M109.260742,553.652344 L111.72168,553.652344 C112.776372,553.652344 113.535154,553.486818 113.998047,553.155762 C114.46094,552.824705 114.692383,552.266605 114.692383,551.481445 C114.692383,550.760739 114.434573,550.240724 113.918945,549.921387 C113.403318,549.602049 112.583013,549.442383 111.458008,549.442383 L109.260742,549.442383 L109.260742,553.652344 Z M109.260742,554.917969 L109.260742,559.725586 L111.941406,559.725586 C112.978521,559.725586 113.759275,559.524904 114.283691,559.123535 C114.808108,558.722166 115.070312,558.093754 115.070312,557.238281 C115.070312,556.441402 114.802249,555.855471 114.266113,555.480469 C113.729978,555.105467 112.914068,554.917969 111.818359,554.917969 L109.260742,554.917969 Z M123.279297,561.175781 C121.855462,561.175781 120.731938,560.742192 119.908691,559.875 C119.085445,559.007808 118.673828,557.803719 118.673828,556.262695 C118.673828,554.709953 119.056149,553.476567 119.820801,552.5625 C120.585453,551.648433 121.612298,551.191406 122.901367,551.191406 C124.108404,551.191406 125.063473,551.588375 125.766602,552.382324 C126.46973,553.176274 126.821289,554.223626 126.821289,555.524414 L126.821289,556.447266 L120.185547,556.447266 C120.214844,557.578131 120.500486,558.436521 121.04248,559.022461 C121.584475,559.608401 122.347651,559.901367 123.332031,559.901367 C124.369146,559.901367 125.394526,559.684572 126.408203,559.250977 L126.408203,560.551758 C125.892576,560.774415 125.404787,560.934082 124.944824,561.030762 C124.484861,561.127442 123.929691,561.175781 123.279297,561.175781 Z M122.883789,552.413086 C122.110348,552.413086 121.493655,552.665037 121.033691,553.168945 C120.573728,553.672854 120.302735,554.370113 120.220703,555.260742 L125.256836,555.260742 C125.256836,554.340816 125.05176,553.636233 124.641602,553.146973 C124.231443,552.657712 123.645512,552.413086 122.883789,552.413086 Z M120.449219,548.756836 C120.449219,548.452147 120.526855,548.232423 120.682129,548.097656 C120.837403,547.96289 121.023436,547.895508 121.240234,547.895508 C121.462892,547.895508 121.654784,547.96289 121.815918,548.097656 C121.977052,548.232423 122.057617,548.452147 122.057617,548.756836 C122.057617,549.049806 121.977052,549.268066 121.815918,549.411621 C121.654784,549.555176 121.462892,549.626953 121.240234,549.626953 C121.023436,549.626953 120.837403,549.555176 120.682129,549.411621 C120.526855,549.268066 120.449219,549.049806 120.449219,548.756836 Z M123.797852,548.756836 C123.797852,548.452147 123.875488,548.232423 124.030762,548.097656 C124.186036,547.96289 124.372069,547.895508 124.588867,547.895508 C124.805665,547.895508 124.994628,547.96289 125.155762,548.097656 C125.316895,548.232423 125.397461,548.452147 125.397461,548.756836 C125.397461,549.049806 125.316895,549.268066 125.155762,549.411621 C124.994628,549.555176 124.805665,549.626953 124.588867,549.626953 C124.372069,549.626953 124.186036,549.555176 124.030762,549.411621 C123.875488,549.268066 123.797852,549.049806 123.797852,548.756836 Z M133.791016,561.175781 C133.164059,561.175781 132.591311,561.06006 132.072754,560.828613 C131.554197,560.597167 131.119142,560.241213 130.767578,559.760742 L130.662109,559.760742 C130.732422,560.323245 130.767578,560.856443 130.767578,561.360352 L130.767578,565.324219 L129.308594,565.324219 L129.308594,551.367188 L130.495117,551.367188 L130.697266,552.685547 L130.767578,552.685547 C131.14258,552.1582 131.579099,551.777345 132.077148,551.542969 C132.575198,551.308593 133.146481,551.191406 133.791016,551.191406 C135.068366,551.191406 136.054196,551.627925 136.748535,552.500977 C137.442875,553.374028 137.790039,554.598625 137.790039,556.174805 C137.790039,557.756844 137.437015,558.985835 136.730957,559.861816 C136.024899,560.737797 135.044928,561.175781 133.791016,561.175781 Z M133.580078,552.430664 C132.595698,552.430664 131.883791,552.703122 131.444336,553.248047 C131.004881,553.792971 130.779297,554.66015 130.767578,555.849609 L130.767578,556.174805 C130.767578,557.528327 130.993162,558.496579 131.444336,559.07959 C131.89551,559.662601 132.619136,559.954102 133.615234,559.954102 C134.44727,559.954102 135.099119,559.617191 135.570801,558.943359 C136.042483,558.269528 136.27832,557.340826 136.27832,556.157227 C136.27832,554.956049 136.042483,554.034671 135.570801,553.393066 C135.099119,552.751462 134.435551,552.430664 133.580078,552.430664 Z M144.188477,561.175781 C142.793938,561.175781 141.714359,560.746586 140.949707,559.888184 C140.185055,559.029781 139.802734,557.815438 139.802734,556.245117 C139.802734,554.633781 140.190914,553.388676 140.967285,552.509766 C141.743656,551.630855 142.849602,551.191406 144.285156,551.191406 C144.748049,551.191406 145.210935,551.24121 145.673828,551.34082 C146.136721,551.44043 146.499999,551.557617 146.763672,551.692383 L146.31543,552.931641 C145.993162,552.802734 145.641603,552.695801 145.260742,552.61084 C144.879881,552.525878 144.54297,552.483398 144.25,552.483398 C142.292959,552.483398 141.314453,553.731433 141.314453,556.227539 C141.314453,557.411139 141.55322,558.319333 142.030762,558.952148 C142.508303,559.584964 143.215816,559.901367 144.15332,559.901367 C144.956059,559.901367 145.779293,559.728517 146.623047,559.382812 L146.623047,560.674805 C145.978512,561.008791 145.166997,561.175781 144.188477,561.175781 Z M155.40332,552.615234 L152.274414,552.615234 L152.274414,561 L150.81543,561 L150.81543,552.615234 L147.72168,552.615234 L147.72168,551.367188 L155.40332,551.367188 L155.40332,552.615234 Z M162.926758,551.367188 L164.526367,551.367188 L160.369141,556.016602 L164.869141,561 L163.164062,561 L158.769531,556.12207 L158.769531,561 L157.310547,561 L157.310547,551.367188 L158.769531,551.367188 L158.769531,556.051758 L162.926758,551.367188 Z M172.577148,561 L172.287109,559.628906 L172.216797,559.628906 C171.736326,560.232425 171.257327,560.641112 170.779785,560.85498 C170.302244,561.068849 169.706058,561.175781 168.991211,561.175781 C168.036128,561.175781 167.2876,560.92969 166.745605,560.4375 C166.203611,559.94531 165.932617,559.245122 165.932617,558.336914 C165.932617,556.391592 167.488266,555.372071 170.599609,555.27832 L172.234375,555.225586 L172.234375,554.62793 C172.234375,553.872067 172.071779,553.313967 171.746582,552.953613 C171.421385,552.59326 170.901371,552.413086 170.186523,552.413086 C169.383785,552.413086 168.475591,552.659177 167.461914,553.151367 L167.013672,552.035156 C167.488284,551.777342 168.008298,551.575196 168.57373,551.428711 C169.139163,551.282226 169.706052,551.208984 170.274414,551.208984 C171.422857,551.208984 172.273923,551.463865 172.827637,551.973633 C173.38135,552.483401 173.658203,553.300776 173.658203,554.425781 L173.658203,561 L172.577148,561 Z M169.28125,559.97168 C170.189458,559.97168 170.902829,559.722659 171.421387,559.224609 C171.939944,558.72656 172.199219,558.029301 172.199219,557.132812 L172.199219,556.262695 L170.740234,556.324219 C169.580072,556.365235 168.743655,556.545409 168.230957,556.864746 C167.718259,557.184084 167.461914,557.680661 167.461914,558.354492 C167.461914,558.881839 167.62158,559.283202 167.940918,559.558594 C168.260256,559.833986 168.707028,559.97168 169.28125,559.97168 Z" id="Вёрстка" stroke="none" fill="#FFFFFF" fill-rule="evenodd"></path>
                        <path d="M227.900391,678.348633 L226.476562,678.348633 L226.476562,675 L217.546875,675 L217.546875,678.348633 L216.123047,678.348633 L216.123047,673.646484 L217.116211,673.646484 C218.018559,672.128899 218.790524,670.283214 219.432129,668.109375 C220.073734,665.935536 220.429687,663.949228 220.5,662.150391 L226.274414,662.150391 L226.274414,673.646484 L227.900391,673.646484 L227.900391,678.348633 Z M224.780273,673.646484 L224.780273,663.495117 L221.853516,663.495117 C221.748046,664.913093 221.393558,666.616689 220.790039,668.605957 C220.18652,670.595225 219.483402,672.275384 218.680664,673.646484 L224.780273,673.646484 Z M231.213867,665.367188 L231.213867,671.475586 L231.152344,673.075195 L231.125977,673.576172 L236.337891,665.367188 L238.157227,665.367188 L238.157227,675 L236.794922,675 L236.794922,669.111328 L236.821289,667.951172 L236.865234,666.808594 L231.662109,675 L229.842773,675 L229.842773,665.367188 L231.213867,665.367188 Z M243.087891,669.366211 C244.910165,669.366211 245.821289,668.86231 245.821289,667.854492 C245.821289,666.905269 245.083015,666.430664 243.606445,666.430664 C243.155271,666.430664 242.745119,666.471679 242.375977,666.553711 C242.006834,666.635743 241.52344,666.799803 240.925781,667.045898 L240.407227,665.859375 C241.403325,665.41406 242.490228,665.191406 243.667969,665.191406 C244.775396,665.191406 245.648434,665.418455 246.287109,665.872559 C246.925784,666.326662 247.245117,666.946285 247.245117,667.731445 C247.245117,668.809576 246.644537,669.515623 245.443359,669.849609 L245.443359,669.919922 C246.181644,670.13672 246.720701,670.445799 247.060547,670.847168 C247.400392,671.248537 247.570312,671.750974 247.570312,672.354492 C247.570312,673.245122 247.211429,673.937986 246.493652,674.433105 C245.775875,674.928225 244.784186,675.175781 243.518555,675.175781 C242.129876,675.175781 241.057621,674.967776 240.301758,674.551758 L240.301758,673.21582 C241.374029,673.719729 242.458002,673.97168 243.553711,673.97168 C244.397465,673.97168 245.034666,673.826662 245.465332,673.536621 C245.895998,673.246581 246.111328,672.829104 246.111328,672.28418 C246.111328,671.165033 245.200204,670.605469 243.37793,670.605469 L242.041992,670.605469 L242.041992,669.366211 L243.087891,669.366211 Z M255.867188,675 L255.577148,673.628906 L255.506836,673.628906 C255.026365,674.232425 254.547366,674.641112 254.069824,674.85498 C253.592283,675.068849 252.996097,675.175781 252.28125,675.175781 C251.326167,675.175781 250.577639,674.92969 250.035645,674.4375 C249.49365,673.94531 249.222656,673.245122 249.222656,672.336914 C249.222656,670.391592 250.778305,669.372071 253.889648,669.27832 L255.524414,669.225586 L255.524414,668.62793 C255.524414,667.872067 255.361818,667.313967 255.036621,666.953613 C254.711424,666.59326 254.19141,666.413086 253.476562,666.413086 C252.673824,666.413086 251.76563,666.659177 250.751953,667.151367 L250.303711,666.035156 C250.778323,665.777342 251.298337,665.575196 251.86377,665.428711 C252.429202,665.282226 252.996091,665.208984 253.564453,665.208984 C254.712896,665.208984 255.563962,665.463865 256.117676,665.973633 C256.671389,666.483401 256.948242,667.300776 256.948242,668.425781 L256.948242,675 L255.867188,675 Z M252.571289,673.97168 C253.479497,673.97168 254.192869,673.722659 254.711426,673.224609 C255.229983,672.72656 255.489258,672.029301 255.489258,671.132812 L255.489258,670.262695 L254.030273,670.324219 C252.870111,670.365235 252.033694,670.545409 251.520996,670.864746 C251.008298,671.184084 250.751953,671.680661 250.751953,672.354492 C250.751953,672.881839 250.911619,673.283202 251.230957,673.558594 C251.550295,673.833986 251.997067,673.97168 252.571289,673.97168 Z M261.325195,665.367188 L261.325195,671.475586 L261.263672,673.075195 L261.237305,673.576172 L266.449219,665.367188 L268.268555,665.367188 L268.268555,675 L266.90625,675 L266.90625,669.111328 L266.932617,667.951172 L266.976562,666.808594 L261.773438,675 L259.954102,675 L259.954102,665.367188 L261.325195,665.367188 Z M264.076172,664.092773 C262.992182,664.092773 262.201174,663.883303 261.703125,663.464355 C261.205076,663.045408 260.926758,662.355474 260.868164,661.394531 L262.239258,661.394531 C262.291992,662.003909 262.451659,662.42871 262.718262,662.668945 C262.984865,662.909181 263.449215,663.029297 264.111328,663.029297 C264.714847,663.029297 265.16162,662.900392 265.45166,662.642578 C265.741701,662.384764 265.918945,661.968753 265.983398,661.394531 L267.363281,661.394531 C267.292968,662.320317 266.997073,663.001463 266.475586,663.437988 C265.954099,663.874514 265.154302,664.092773 264.076172,664.092773 Z M272.821289,665.367188 L272.821289,669.401367 L278.217773,669.401367 L278.217773,665.367188 L279.676758,665.367188 L279.676758,675 L278.217773,675 L278.217773,670.658203 L272.821289,670.658203 L272.821289,675 L271.362305,675 L271.362305,665.367188 L272.821289,665.367188 Z" id="Дизайн" stroke="none" fill="#FFFFFF" fill-rule="evenodd"></path>
                        <path d="M373.012695,747 L371.202148,747 L365.260742,740.487305 L365.260742,747 L363.766602,747 L363.766602,734.150391 L365.260742,734.150391 L365.260742,740.373047 L371.052734,734.150391 L372.766602,734.150391 L367.080078,740.390625 L373.012695,747 Z M382.874023,742.174805 C382.874023,743.745125 382.47852,744.971187 381.6875,745.853027 C380.89648,746.734868 379.803718,747.175781 378.40918,747.175781 C377.547847,747.175781 376.783206,746.973635 376.115234,746.569336 C375.447262,746.165037 374.931642,745.584965 374.568359,744.829102 C374.205076,744.073238 374.023438,743.188482 374.023438,742.174805 C374.023438,740.604484 374.416012,739.381352 375.201172,738.505371 C375.986332,737.62939 377.076165,737.191406 378.470703,737.191406 C379.818366,737.191406 380.889156,737.639644 381.683105,738.536133 C382.477055,739.432622 382.874023,740.6455 382.874023,742.174805 Z M375.535156,742.174805 C375.535156,743.40528 375.781248,744.34277 376.273438,744.987305 C376.765627,745.631839 377.489253,745.954102 378.444336,745.954102 C379.399419,745.954102 380.124509,745.633304 380.619629,744.991699 C381.114749,744.350094 381.362305,743.411139 381.362305,742.174805 C381.362305,740.950189 381.114749,740.020023 380.619629,739.384277 C380.124509,738.748532 379.39356,738.430664 378.426758,738.430664 C377.471675,738.430664 376.750979,738.744137 376.264648,739.371094 C375.778318,739.99805 375.535156,740.932611 375.535156,742.174805 Z M386.890625,747 L385.431641,747 L385.431641,737.367188 L393.517578,737.367188 L393.517578,747 L392.041016,747 L392.041016,738.632812 L386.890625,738.632812 L386.890625,747 Z M397.982422,737.367188 L397.982422,743.475586 L397.920898,745.075195 L397.894531,745.576172 L403.106445,737.367188 L404.925781,737.367188 L404.925781,747 L403.563477,747 L403.563477,741.111328 L403.589844,739.951172 L403.633789,738.808594 L398.430664,747 L396.611328,747 L396.611328,737.367188 L397.982422,737.367188 Z M412.501953,747.175781 C411.874997,747.175781 411.302249,747.06006 410.783691,746.828613 C410.265134,746.597167 409.83008,746.241213 409.478516,745.760742 L409.373047,745.760742 C409.44336,746.323245 409.478516,746.856443 409.478516,747.360352 L409.478516,751.324219 L408.019531,751.324219 L408.019531,737.367188 L409.206055,737.367188 L409.408203,738.685547 L409.478516,738.685547 C409.853518,738.1582 410.290037,737.777345 410.788086,737.542969 C411.286135,737.308593 411.857419,737.191406 412.501953,737.191406 C413.779303,737.191406 414.765133,737.627925 415.459473,738.500977 C416.153812,739.374028 416.500977,740.598625 416.500977,742.174805 C416.500977,743.756844 416.147953,744.985835 415.441895,745.861816 C414.735836,746.737797 413.755866,747.175781 412.501953,747.175781 Z M412.291016,738.430664 C411.306636,738.430664 410.594729,738.703122 410.155273,739.248047 C409.715818,739.792971 409.490234,740.66015 409.478516,741.849609 L409.478516,742.174805 C409.478516,743.528327 409.704099,744.496579 410.155273,745.07959 C410.606448,745.662601 411.330073,745.954102 412.326172,745.954102 C413.158207,745.954102 413.810056,745.617191 414.281738,744.943359 C414.75342,744.269528 414.989258,743.340826 414.989258,742.157227 C414.989258,740.956049 414.75342,740.034671 414.281738,739.393066 C413.810056,738.751462 413.146489,738.430664 412.291016,738.430664 Z M424.973633,747 L424.683594,745.628906 L424.613281,745.628906 C424.13281,746.232425 423.653811,746.641112 423.17627,746.85498 C422.698728,747.068849 422.102543,747.175781 421.387695,747.175781 C420.432612,747.175781 419.684085,746.92969 419.14209,746.4375 C418.600095,745.94531 418.329102,745.245122 418.329102,744.336914 C418.329102,742.391592 419.88475,741.372071 422.996094,741.27832 L424.630859,741.225586 L424.630859,740.62793 C424.630859,739.872067 424.468263,739.313967 424.143066,738.953613 C423.817869,738.59326 423.297855,738.413086 422.583008,738.413086 C421.780269,738.413086 420.872075,738.659177 419.858398,739.151367 L419.410156,738.035156 C419.884768,737.777342 420.404782,737.575196 420.970215,737.428711 C421.535647,737.282226 422.102536,737.208984 422.670898,737.208984 C423.819342,737.208984 424.670407,737.463865 425.224121,737.973633 C425.777835,738.483401 426.054688,739.300776 426.054688,740.425781 L426.054688,747 L424.973633,747 Z M421.677734,745.97168 C422.585942,745.97168 423.299314,745.722659 423.817871,745.224609 C424.336428,744.72656 424.595703,744.029301 424.595703,743.132812 L424.595703,742.262695 L423.136719,742.324219 C421.976557,742.365235 421.140139,742.545409 420.627441,742.864746 C420.114744,743.184084 419.858398,743.680661 419.858398,744.354492 C419.858398,744.881839 420.018065,745.283202 420.337402,745.558594 C420.65674,745.833986 421.103513,745.97168 421.677734,745.97168 Z M430.431641,737.367188 L430.431641,743.475586 L430.370117,745.075195 L430.34375,745.576172 L435.555664,737.367188 L437.375,737.367188 L437.375,747 L436.012695,747 L436.012695,741.111328 L436.039062,739.951172 L436.083008,738.808594 L430.879883,747 L429.060547,747 L429.060547,737.367188 L430.431641,737.367188 Z M433.182617,736.092773 C432.098627,736.092773 431.30762,735.883303 430.80957,735.464355 C430.311521,735.045408 430.033203,734.355474 429.974609,733.394531 L431.345703,733.394531 C431.398438,734.003909 431.558104,734.42871 431.824707,734.668945 C432.09131,734.909181 432.555661,735.029297 433.217773,735.029297 C433.821292,735.029297 434.268065,734.900392 434.558105,734.642578 C434.848146,734.384764 435.02539,733.968753 435.089844,733.394531 L436.469727,733.394531 C436.399414,734.320317 436.103518,735.001463 435.582031,735.437988 C435.060544,735.874514 434.260748,736.092773 433.182617,736.092773 Z M446.963867,738.615234 L443.834961,738.615234 L443.834961,747 L442.375977,747 L442.375977,738.615234 L439.282227,738.615234 L439.282227,737.367188 L446.963867,737.367188 L446.963867,738.615234 Z" id="Копирайт" stroke="none" fill="#FFFFFF" fill-rule="evenodd"></path>
                        <circle id="Oval-9" stroke="#A96FDC" stroke-width="1" fill="#232323" fill-rule="evenodd" cx="24" cy="424" r="24"></circle>
                        <circle id="Oval-9" stroke="#A96FDC" stroke-width="1" fill="#232323" fill-rule="evenodd" cx="67" cy="559" r="28"></circle>
                        <circle id="Oval-9" stroke="#A96FDC" stroke-width="1" fill="#232323" fill-rule="evenodd" cx="175" cy="673" r="32"></circle>
                        <circle id="Oval-9" stroke="#A96FDC" stroke-width="1" fill="#232323" fill-rule="evenodd" cx="317" cy="743" r="36"></circle>
                        <rect id="Rectangle-4" stroke="#A96FDC" stroke-width="1" fill="#232323" fill-rule="evenodd" x="55" y="548" width="22" height="16.8235294"></rect>
                        <rect id="Rectangle-4" stroke="#A96FDC" stroke-width="1" fill="#232323" fill-rule="evenodd" x="60" y="553" width="22" height="16.8235294"></rect>
                        <ellipse id="Oval-11" stroke="#A96FDC" stroke-width="1" fill="#232323" fill-rule="evenodd" cx="22" cy="421.5" rx="11" ry="10.5"></ellipse>
                        <path d="M34.3984375,434.910156 L29.4648438,429.035156" id="Path-28" stroke="#A96FDC" stroke-width="1" fill="none"></path>
                        <polygon id="Star-2" stroke="#A96FDC" stroke-width="1" fill="#232323" fill-rule="evenodd" points="175.5 681.75 165.801543 686.84878 167.653784 676.04939 159.807567 668.40122 170.650772 666.82561 175.5 657 180.349228 666.82561 191.192433 668.40122 183.346216 676.04939 185.198457 686.84878"></polygon>
                        <rect id="Rectangle" stroke="#A96FDC" stroke-width="1" fill="#232323" fill-rule="evenodd" transform="translate(320.000000, 741.000000) rotate(45.000000) translate(-320.000000, -741.000000) " x="315" y="727" width="10" height="28"></rect>
                        <polyline id="Path-32" stroke="#A96FDC" stroke-width="1" fill="none" points="306.761719 746.337891 306.761719 754.267578 314.224609 754.267578"></polyline>
                        <circle id="Oval-12" stroke="#A96FDC" stroke-width="1" fill="#232323" fill-rule="evenodd" cx="21" cy="284" r="10"></circle>
                        <polyline id="Path-33" stroke="#A96FDC" stroke-width="1" fill="#232323" fill-rule="evenodd" points="21 274 21 284.277344 29.2148438 279.277344"></polyline>
                    </g>
                </g>
            </g>
        </g>
    </g>
</svg>