<svg xmlns="http://www.w3.org/2000/svg" xmlns:xlink="http://www.w3.org/1999/xlink" width="821" height="589" viewBox="0 0 821 589">
    <defs>
        <path id="a" d="M0 0h863v672H0z"/>
        <path id="c" d="M952 461H0V0h952v461z"/>
        <path id="e" d="M952 461H0V0h952v461z"/>
        <path id="g" d="M952 461H0V0h952v461z"/>
        <path id="i" d="M952 461H0V0h952v461z"/>
        <path id="k" d="M952 461H0V0h952v461z"/>
        <path id="m" d="M952 461H0V0h952v461z"/>
        <path id="o" d="M952 461H0V0h952v461z"/>
        <path id="q" d="M952 461H0V0h952v461z"/>
        <path id="s" d="M952 461H0V0h952v461z"/>
    </defs>
    <g fill="none" fill-rule="evenodd" transform="translate(-42 -59)">
        <mask id="b" fill="#fff">
            <use xlink:href="#a"/>
        </mask>
        <g mask="url(#b)">
            <g opacity=".2" transform="translate(43 123)">
                <mask id="d" fill="#fff">
                    <use xlink:href="#c"/>
                </mask>
                <path stroke="#A96FDC" d="M889.928 275.708l-61.569 61.436c-3.214-22.046-13.307-43.282-30.279-60.216L675.62 154.743l-.616-.61-.61-.614c-12.106-12.073-18.77-28.132-18.77-45.209s6.664-33.135 18.77-45.214l1.221-1.219c12.496-12.467 28.903-18.696 45.316-18.696 16.407 0 32.82 6.234 45.31 18.696l123.692 123.41c12.1 12.078 18.764 28.13 18.77 45.213-.006 17.077-6.67 33.135-18.775 45.208zm-122.46 122.196l-1.227 1.219c-24.986 24.924-65.64 24.93-90.626 0l-61.523-61.39c22.748-3.288 43.75-13.743 60.301-30.257l1.222-1.219c16.551-16.514 27.03-37.463 30.325-60.165l61.528 61.384c24.98 24.935 24.98 65.493 0 90.428zm-491.088 1.219c-24.98 24.924-65.64 24.93-90.626 0l-1.222-1.22c-12.105-12.083-18.769-28.136-18.769-45.218 0-17.078 6.664-33.13 18.77-45.209l61.527-61.384c3.296 22.702 13.769 43.651 30.32 60.165l1.227 1.22c16.546 16.513 37.548 26.968 60.3 30.256l-61.527 61.39zM153.915 276.928c-16.546 16.514-27.03 37.463-30.325 60.165l-61.523-61.385c-12.105-12.073-18.77-28.13-18.77-45.208 0-17.083 6.665-33.135 18.77-45.214L185.754 61.877c12.495-12.467 28.903-18.696 45.315-18.696 16.408 0 32.82 6.234 45.31 18.696l1.228 1.22c12.1 12.078 18.769 28.136 18.769 45.213s-6.669 33.136-18.77 45.209l-.61.614-123.081 122.795zm766.63-122.185L796.859 31.329c-41.865-41.772-109.99-41.772-151.855 0l-1.227 1.224c-20.284 20.232-31.45 47.14-31.45 75.757 0 28.618 11.166 55.52 31.45 75.757l.616.61.61.61c12.106 12.078 18.77 28.13 18.77 45.213 0 17.077-6.664 33.135-18.77 45.208l-1.226 1.22c-12.1 12.083-28.195 18.731-45.31 18.731-17.122 0-33.21-6.648-45.311-18.731l-.616-.61-.611-.61C531.645 255.476 504.682 244.33 476 244.33c-28.682 0-55.65 11.14-75.928 31.378l-1.227 1.22c-12.1 12.083-28.194 18.731-45.31 18.731-17.116 0-33.21-6.648-45.31-18.731l-1.228-1.22c-12.105-12.073-18.769-28.13-18.769-45.208 0-17.083 6.664-33.135 18.77-45.214l.61-.61.616-.609c20.279-20.237 31.45-47.14 31.45-75.757 0-28.618-11.171-55.525-31.45-75.757l-1.227-1.224c-41.865-41.772-109.985-41.772-151.855 0L31.454 154.743C11.171 174.98 0 201.883 0 230.5c0 28.618 11.171 55.52 31.454 75.757l123.05 122.774.638.64c41.87 41.772 109.99 41.772 151.855 0L430.69 306.257c24.986-24.93 65.634-24.93 90.62 0l123.693 123.414C665.933 450.555 693.429 461 720.93 461c27.496 0 54.992-10.444 75.927-31.328l123.688-123.414C940.829 286.02 952 259.117 952 230.5c0-28.618-11.171-55.52-31.454-75.757z" mask="url(#d)"/>
            </g>
            <g opacity=".3" transform="rotate(2 -3025.833 1523.734)">
                <mask id="f" fill="#fff">
                    <use xlink:href="#e"/>
                </mask>
                <path stroke="#A96FDC" d="M889.928 275.708l-61.569 61.436c-3.214-22.046-13.307-43.282-30.279-60.216L675.62 154.743l-.616-.61-.61-.614c-12.106-12.073-18.77-28.132-18.77-45.209s6.664-33.135 18.77-45.214l1.221-1.219c12.496-12.467 28.903-18.696 45.316-18.696 16.407 0 32.82 6.234 45.31 18.696l123.692 123.41c12.1 12.078 18.764 28.13 18.77 45.213-.006 17.077-6.67 33.135-18.775 45.208zm-122.46 122.196l-1.227 1.219c-24.986 24.924-65.64 24.93-90.626 0l-61.523-61.39c22.748-3.288 43.75-13.743 60.301-30.257l1.222-1.219c16.551-16.514 27.03-37.463 30.325-60.165l61.528 61.384c24.98 24.935 24.98 65.493 0 90.428zm-491.088 1.219c-24.98 24.924-65.64 24.93-90.626 0l-1.222-1.22c-12.105-12.083-18.769-28.136-18.769-45.218 0-17.078 6.664-33.13 18.77-45.209l61.527-61.384c3.296 22.702 13.769 43.651 30.32 60.165l1.227 1.22c16.546 16.513 37.548 26.968 60.3 30.256l-61.527 61.39zM153.915 276.928c-16.546 16.514-27.03 37.463-30.325 60.165l-61.523-61.385c-12.105-12.073-18.77-28.13-18.77-45.208 0-17.083 6.665-33.135 18.77-45.214L185.754 61.877c12.495-12.467 28.903-18.696 45.315-18.696 16.408 0 32.82 6.234 45.31 18.696l1.228 1.22c12.1 12.078 18.769 28.136 18.769 45.213s-6.669 33.136-18.77 45.209l-.61.614-123.081 122.795zm766.63-122.185L796.859 31.329c-41.865-41.772-109.99-41.772-151.855 0l-1.227 1.224c-20.284 20.232-31.45 47.14-31.45 75.757 0 28.618 11.166 55.52 31.45 75.757l.616.61.61.61c12.106 12.078 18.77 28.13 18.77 45.213 0 17.077-6.664 33.135-18.77 45.208l-1.226 1.22c-12.1 12.083-28.195 18.731-45.31 18.731-17.122 0-33.21-6.648-45.311-18.731l-.616-.61-.611-.61C531.645 255.476 504.682 244.33 476 244.33c-28.682 0-55.65 11.14-75.928 31.378l-1.227 1.22c-12.1 12.083-28.194 18.731-45.31 18.731-17.116 0-33.21-6.648-45.31-18.731l-1.228-1.22c-12.105-12.073-18.769-28.13-18.769-45.208 0-17.083 6.664-33.135 18.77-45.214l.61-.61.616-.609c20.279-20.237 31.45-47.14 31.45-75.757 0-28.618-11.171-55.525-31.45-75.757l-1.227-1.224c-41.865-41.772-109.985-41.772-151.855 0L31.454 154.743C11.171 174.98 0 201.883 0 230.5c0 28.618 11.171 55.52 31.454 75.757l123.05 122.774.638.64c41.87 41.772 109.99 41.772 151.855 0L430.69 306.257c24.986-24.93 65.634-24.93 90.62 0l123.693 123.414C665.933 450.555 693.429 461 720.93 461c27.496 0 54.992-10.444 75.927-31.328l123.688-123.414C940.829 286.02 952 259.117 952 230.5c0-28.618-11.171-55.52-31.454-75.757z" mask="url(#f)"/>
            </g>
            <g opacity=".4" transform="rotate(4 -1263.63 907.68)">
                <mask id="h" fill="#fff">
                    <use xlink:href="#g"/>
                </mask>
                <path stroke="#A96FDC" d="M889.928 275.708l-61.569 61.436c-3.214-22.046-13.307-43.282-30.279-60.216L675.62 154.743l-.616-.61-.61-.614c-12.106-12.073-18.77-28.132-18.77-45.209s6.664-33.135 18.77-45.214l1.221-1.219c12.496-12.467 28.903-18.696 45.316-18.696 16.407 0 32.82 6.234 45.31 18.696l123.692 123.41c12.1 12.078 18.764 28.13 18.77 45.213-.006 17.077-6.67 33.135-18.775 45.208zm-122.46 122.196l-1.227 1.219c-24.986 24.924-65.64 24.93-90.626 0l-61.523-61.39c22.748-3.288 43.75-13.743 60.301-30.257l1.222-1.219c16.551-16.514 27.03-37.463 30.325-60.165l61.528 61.384c24.98 24.935 24.98 65.493 0 90.428zm-491.088 1.219c-24.98 24.924-65.64 24.93-90.626 0l-1.222-1.22c-12.105-12.083-18.769-28.136-18.769-45.218 0-17.078 6.664-33.13 18.77-45.209l61.527-61.384c3.296 22.702 13.769 43.651 30.32 60.165l1.227 1.22c16.546 16.513 37.548 26.968 60.3 30.256l-61.527 61.39zM153.915 276.928c-16.546 16.514-27.03 37.463-30.325 60.165l-61.523-61.385c-12.105-12.073-18.77-28.13-18.77-45.208 0-17.083 6.665-33.135 18.77-45.214L185.754 61.877c12.495-12.467 28.903-18.696 45.315-18.696 16.408 0 32.82 6.234 45.31 18.696l1.228 1.22c12.1 12.078 18.769 28.136 18.769 45.213s-6.669 33.136-18.77 45.209l-.61.614-123.081 122.795zm766.63-122.185L796.859 31.329c-41.865-41.772-109.99-41.772-151.855 0l-1.227 1.224c-20.284 20.232-31.45 47.14-31.45 75.757 0 28.618 11.166 55.52 31.45 75.757l.616.61.61.61c12.106 12.078 18.77 28.13 18.77 45.213 0 17.077-6.664 33.135-18.77 45.208l-1.226 1.22c-12.1 12.083-28.195 18.731-45.31 18.731-17.122 0-33.21-6.648-45.311-18.731l-.616-.61-.611-.61C531.645 255.476 504.682 244.33 476 244.33c-28.682 0-55.65 11.14-75.928 31.378l-1.227 1.22c-12.1 12.083-28.194 18.731-45.31 18.731-17.116 0-33.21-6.648-45.31-18.731l-1.228-1.22c-12.105-12.073-18.769-28.13-18.769-45.208 0-17.083 6.664-33.135 18.77-45.214l.61-.61.616-.609c20.279-20.237 31.45-47.14 31.45-75.757 0-28.618-11.171-55.525-31.45-75.757l-1.227-1.224c-41.865-41.772-109.985-41.772-151.855 0L31.454 154.743C11.171 174.98 0 201.883 0 230.5c0 28.618 11.171 55.52 31.454 75.757l123.05 122.774.638.64c41.87 41.772 109.99 41.772 151.855 0L430.69 306.257c24.986-24.93 65.634-24.93 90.62 0l123.693 123.414C665.933 450.555 693.429 461 720.93 461c27.496 0 54.992-10.444 75.927-31.328l123.688-123.414C940.829 286.02 952 259.117 952 230.5c0-28.618-11.171-55.52-31.454-75.757z" mask="url(#h)"/>
            </g>
            <g opacity=".5" transform="rotate(6 -675.99 702.244)">
                <mask id="j" fill="#fff">
                    <use xlink:href="#i"/>
                </mask>
                <path stroke="#A96FDC" d="M889.928 275.708l-61.569 61.436c-3.214-22.046-13.307-43.282-30.279-60.216L675.62 154.743l-.616-.61-.61-.614c-12.106-12.073-18.77-28.132-18.77-45.209s6.664-33.135 18.77-45.214l1.221-1.219c12.496-12.467 28.903-18.696 45.316-18.696 16.407 0 32.82 6.234 45.31 18.696l123.692 123.41c12.1 12.078 18.764 28.13 18.77 45.213-.006 17.077-6.67 33.135-18.775 45.208zm-122.46 122.196l-1.227 1.219c-24.986 24.924-65.64 24.93-90.626 0l-61.523-61.39c22.748-3.288 43.75-13.743 60.301-30.257l1.222-1.219c16.551-16.514 27.03-37.463 30.325-60.165l61.528 61.384c24.98 24.935 24.98 65.493 0 90.428zm-491.088 1.219c-24.98 24.924-65.64 24.93-90.626 0l-1.222-1.22c-12.105-12.083-18.769-28.136-18.769-45.218 0-17.078 6.664-33.13 18.77-45.209l61.527-61.384c3.296 22.702 13.769 43.651 30.32 60.165l1.227 1.22c16.546 16.513 37.548 26.968 60.3 30.256l-61.527 61.39zM153.915 276.928c-16.546 16.514-27.03 37.463-30.325 60.165l-61.523-61.385c-12.105-12.073-18.77-28.13-18.77-45.208 0-17.083 6.665-33.135 18.77-45.214L185.754 61.877c12.495-12.467 28.903-18.696 45.315-18.696 16.408 0 32.82 6.234 45.31 18.696l1.228 1.22c12.1 12.078 18.769 28.136 18.769 45.213s-6.669 33.136-18.77 45.209l-.61.614-123.081 122.795zm766.63-122.185L796.859 31.329c-41.865-41.772-109.99-41.772-151.855 0l-1.227 1.224c-20.284 20.232-31.45 47.14-31.45 75.757 0 28.618 11.166 55.52 31.45 75.757l.616.61.61.61c12.106 12.078 18.77 28.13 18.77 45.213 0 17.077-6.664 33.135-18.77 45.208l-1.226 1.22c-12.1 12.083-28.195 18.731-45.31 18.731-17.122 0-33.21-6.648-45.311-18.731l-.616-.61-.611-.61C531.645 255.476 504.682 244.33 476 244.33c-28.682 0-55.65 11.14-75.928 31.378l-1.227 1.22c-12.1 12.083-28.194 18.731-45.31 18.731-17.116 0-33.21-6.648-45.31-18.731l-1.228-1.22c-12.105-12.073-18.769-28.13-18.769-45.208 0-17.083 6.664-33.135 18.77-45.214l.61-.61.616-.609c20.279-20.237 31.45-47.14 31.45-75.757 0-28.618-11.171-55.525-31.45-75.757l-1.227-1.224c-41.865-41.772-109.985-41.772-151.855 0L31.454 154.743C11.171 174.98 0 201.883 0 230.5c0 28.618 11.171 55.52 31.454 75.757l123.05 122.774.638.64c41.87 41.772 109.99 41.772 151.855 0L430.69 306.257c24.986-24.93 65.634-24.93 90.62 0l123.693 123.414C665.933 450.555 693.429 461 720.93 461c27.496 0 54.992-10.444 75.927-31.328l123.688-123.414C940.829 286.02 952 259.117 952 230.5c0-28.618-11.171-55.52-31.454-75.757z" mask="url(#j)"/>
            </g>
            <g opacity=".6" transform="rotate(8 -381.991 599.464)">
                <mask id="l" fill="#fff">
                    <use xlink:href="#k"/>
                </mask>
                <path stroke="#A96FDC" d="M889.928 275.708l-61.569 61.436c-3.214-22.046-13.307-43.282-30.279-60.216L675.62 154.743l-.616-.61-.61-.614c-12.106-12.073-18.77-28.132-18.77-45.209s6.664-33.135 18.77-45.214l1.221-1.219c12.496-12.467 28.903-18.696 45.316-18.696 16.407 0 32.82 6.234 45.31 18.696l123.692 123.41c12.1 12.078 18.764 28.13 18.77 45.213-.006 17.077-6.67 33.135-18.775 45.208zm-122.46 122.196l-1.227 1.219c-24.986 24.924-65.64 24.93-90.626 0l-61.523-61.39c22.748-3.288 43.75-13.743 60.301-30.257l1.222-1.219c16.551-16.514 27.03-37.463 30.325-60.165l61.528 61.384c24.98 24.935 24.98 65.493 0 90.428zm-491.088 1.219c-24.98 24.924-65.64 24.93-90.626 0l-1.222-1.22c-12.105-12.083-18.769-28.136-18.769-45.218 0-17.078 6.664-33.13 18.77-45.209l61.527-61.384c3.296 22.702 13.769 43.651 30.32 60.165l1.227 1.22c16.546 16.513 37.548 26.968 60.3 30.256l-61.527 61.39zM153.915 276.928c-16.546 16.514-27.03 37.463-30.325 60.165l-61.523-61.385c-12.105-12.073-18.77-28.13-18.77-45.208 0-17.083 6.665-33.135 18.77-45.214L185.754 61.877c12.495-12.467 28.903-18.696 45.315-18.696 16.408 0 32.82 6.234 45.31 18.696l1.228 1.22c12.1 12.078 18.769 28.136 18.769 45.213s-6.669 33.136-18.77 45.209l-.61.614-123.081 122.795zm766.63-122.185L796.859 31.329c-41.865-41.772-109.99-41.772-151.855 0l-1.227 1.224c-20.284 20.232-31.45 47.14-31.45 75.757 0 28.618 11.166 55.52 31.45 75.757l.616.61.61.61c12.106 12.078 18.77 28.13 18.77 45.213 0 17.077-6.664 33.135-18.77 45.208l-1.226 1.22c-12.1 12.083-28.195 18.731-45.31 18.731-17.122 0-33.21-6.648-45.311-18.731l-.616-.61-.611-.61C531.645 255.476 504.682 244.33 476 244.33c-28.682 0-55.65 11.14-75.928 31.378l-1.227 1.22c-12.1 12.083-28.194 18.731-45.31 18.731-17.116 0-33.21-6.648-45.31-18.731l-1.228-1.22c-12.105-12.073-18.769-28.13-18.769-45.208 0-17.083 6.664-33.135 18.77-45.214l.61-.61.616-.609c20.279-20.237 31.45-47.14 31.45-75.757 0-28.618-11.171-55.525-31.45-75.757l-1.227-1.224c-41.865-41.772-109.985-41.772-151.855 0L31.454 154.743C11.171 174.98 0 201.883 0 230.5c0 28.618 11.171 55.52 31.454 75.757l123.05 122.774.638.64c41.87 41.772 109.99 41.772 151.855 0L430.69 306.257c24.986-24.93 65.634-24.93 90.62 0l123.693 123.414C665.933 450.555 693.429 461 720.93 461c27.496 0 54.992-10.444 75.927-31.328l123.688-123.414C940.829 286.02 952 259.117 952 230.5c0-28.618-11.171-55.52-31.454-75.757z" mask="url(#l)"/>
            </g>
            <g opacity=".7" transform="rotate(10 -205.448 537.746)">
                <mask id="n" fill="#fff">
                    <use xlink:href="#m"/>
                </mask>
                <path stroke="#A96FDC" d="M889.928 275.708l-61.569 61.436c-3.214-22.046-13.307-43.282-30.279-60.216L675.62 154.743l-.616-.61-.61-.614c-12.106-12.073-18.77-28.132-18.77-45.209s6.664-33.135 18.77-45.214l1.221-1.219c12.496-12.467 28.903-18.696 45.316-18.696 16.407 0 32.82 6.234 45.31 18.696l123.692 123.41c12.1 12.078 18.764 28.13 18.77 45.213-.006 17.077-6.67 33.135-18.775 45.208zm-122.46 122.196l-1.227 1.219c-24.986 24.924-65.64 24.93-90.626 0l-61.523-61.39c22.748-3.288 43.75-13.743 60.301-30.257l1.222-1.219c16.551-16.514 27.03-37.463 30.325-60.165l61.528 61.384c24.98 24.935 24.98 65.493 0 90.428zm-491.088 1.219c-24.98 24.924-65.64 24.93-90.626 0l-1.222-1.22c-12.105-12.083-18.769-28.136-18.769-45.218 0-17.078 6.664-33.13 18.77-45.209l61.527-61.384c3.296 22.702 13.769 43.651 30.32 60.165l1.227 1.22c16.546 16.513 37.548 26.968 60.3 30.256l-61.527 61.39zM153.915 276.928c-16.546 16.514-27.03 37.463-30.325 60.165l-61.523-61.385c-12.105-12.073-18.77-28.13-18.77-45.208 0-17.083 6.665-33.135 18.77-45.214L185.754 61.877c12.495-12.467 28.903-18.696 45.315-18.696 16.408 0 32.82 6.234 45.31 18.696l1.228 1.22c12.1 12.078 18.769 28.136 18.769 45.213s-6.669 33.136-18.77 45.209l-.61.614-123.081 122.795zm766.63-122.185L796.859 31.329c-41.865-41.772-109.99-41.772-151.855 0l-1.227 1.224c-20.284 20.232-31.45 47.14-31.45 75.757 0 28.618 11.166 55.52 31.45 75.757l.616.61.61.61c12.106 12.078 18.77 28.13 18.77 45.213 0 17.077-6.664 33.135-18.77 45.208l-1.226 1.22c-12.1 12.083-28.195 18.731-45.31 18.731-17.122 0-33.21-6.648-45.311-18.731l-.616-.61-.611-.61C531.645 255.476 504.682 244.33 476 244.33c-28.682 0-55.65 11.14-75.928 31.378l-1.227 1.22c-12.1 12.083-28.194 18.731-45.31 18.731-17.116 0-33.21-6.648-45.31-18.731l-1.228-1.22c-12.105-12.073-18.769-28.13-18.769-45.208 0-17.083 6.664-33.135 18.77-45.214l.61-.61.616-.609c20.279-20.237 31.45-47.14 31.45-75.757 0-28.618-11.171-55.525-31.45-75.757l-1.227-1.224c-41.865-41.772-109.985-41.772-151.855 0L31.454 154.743C11.171 174.98 0 201.883 0 230.5c0 28.618 11.171 55.52 31.454 75.757l123.05 122.774.638.64c41.87 41.772 109.99 41.772 151.855 0L430.69 306.257c24.986-24.93 65.634-24.93 90.62 0l123.693 123.414C665.933 450.555 693.429 461 720.93 461c27.496 0 54.992-10.444 75.927-31.328l123.688-123.414C940.829 286.02 952 259.117 952 230.5c0-28.618-11.171-55.52-31.454-75.757z" mask="url(#n)"/>
            </g>
            <g opacity=".8" transform="rotate(12 -87.633 496.559)">
                <mask id="p" fill="#fff">
                    <use xlink:href="#o"/>
                </mask>
                <path stroke="#A96FDC" d="M889.928 275.708l-61.569 61.436c-3.214-22.046-13.307-43.282-30.279-60.216L675.62 154.743l-.616-.61-.61-.614c-12.106-12.073-18.77-28.132-18.77-45.209s6.664-33.135 18.77-45.214l1.221-1.219c12.496-12.467 28.903-18.696 45.316-18.696 16.407 0 32.82 6.234 45.31 18.696l123.692 123.41c12.1 12.078 18.764 28.13 18.77 45.213-.006 17.077-6.67 33.135-18.775 45.208zm-122.46 122.196l-1.227 1.219c-24.986 24.924-65.64 24.93-90.626 0l-61.523-61.39c22.748-3.288 43.75-13.743 60.301-30.257l1.222-1.219c16.551-16.514 27.03-37.463 30.325-60.165l61.528 61.384c24.98 24.935 24.98 65.493 0 90.428zm-491.088 1.219c-24.98 24.924-65.64 24.93-90.626 0l-1.222-1.22c-12.105-12.083-18.769-28.136-18.769-45.218 0-17.078 6.664-33.13 18.77-45.209l61.527-61.384c3.296 22.702 13.769 43.651 30.32 60.165l1.227 1.22c16.546 16.513 37.548 26.968 60.3 30.256l-61.527 61.39zM153.915 276.928c-16.546 16.514-27.03 37.463-30.325 60.165l-61.523-61.385c-12.105-12.073-18.77-28.13-18.77-45.208 0-17.083 6.665-33.135 18.77-45.214L185.754 61.877c12.495-12.467 28.903-18.696 45.315-18.696 16.408 0 32.82 6.234 45.31 18.696l1.228 1.22c12.1 12.078 18.769 28.136 18.769 45.213s-6.669 33.136-18.77 45.209l-.61.614-123.081 122.795zm766.63-122.185L796.859 31.329c-41.865-41.772-109.99-41.772-151.855 0l-1.227 1.224c-20.284 20.232-31.45 47.14-31.45 75.757 0 28.618 11.166 55.52 31.45 75.757l.616.61.61.61c12.106 12.078 18.77 28.13 18.77 45.213 0 17.077-6.664 33.135-18.77 45.208l-1.226 1.22c-12.1 12.083-28.195 18.731-45.31 18.731-17.122 0-33.21-6.648-45.311-18.731l-.616-.61-.611-.61C531.645 255.476 504.682 244.33 476 244.33c-28.682 0-55.65 11.14-75.928 31.378l-1.227 1.22c-12.1 12.083-28.194 18.731-45.31 18.731-17.116 0-33.21-6.648-45.31-18.731l-1.228-1.22c-12.105-12.073-18.769-28.13-18.769-45.208 0-17.083 6.664-33.135 18.77-45.214l.61-.61.616-.609c20.279-20.237 31.45-47.14 31.45-75.757 0-28.618-11.171-55.525-31.45-75.757l-1.227-1.224c-41.865-41.772-109.985-41.772-151.855 0L31.454 154.743C11.171 174.98 0 201.883 0 230.5c0 28.618 11.171 55.52 31.454 75.757l123.05 122.774.638.64c41.87 41.772 109.99 41.772 151.855 0L430.69 306.257c24.986-24.93 65.634-24.93 90.62 0l123.693 123.414C665.933 450.555 693.429 461 720.93 461c27.496 0 54.992-10.444 75.927-31.328l123.688-123.414C940.829 286.02 952 259.117 952 230.5c0-28.618-11.171-55.52-31.454-75.757z" mask="url(#p)"/>
            </g>
            <g opacity=".9" transform="rotate(14 -3.377 467.103)">
                <mask id="r" fill="#fff">
                    <use xlink:href="#q"/>
                </mask>
                <path stroke="#A96FDC" d="M889.928 275.708l-61.569 61.436c-3.214-22.046-13.307-43.282-30.279-60.216L675.62 154.743l-.616-.61-.61-.614c-12.106-12.073-18.77-28.132-18.77-45.209s6.664-33.135 18.77-45.214l1.221-1.219c12.496-12.467 28.903-18.696 45.316-18.696 16.407 0 32.82 6.234 45.31 18.696l123.692 123.41c12.1 12.078 18.764 28.13 18.77 45.213-.006 17.077-6.67 33.135-18.775 45.208zm-122.46 122.196l-1.227 1.219c-24.986 24.924-65.64 24.93-90.626 0l-61.523-61.39c22.748-3.288 43.75-13.743 60.301-30.257l1.222-1.219c16.551-16.514 27.03-37.463 30.325-60.165l61.528 61.384c24.98 24.935 24.98 65.493 0 90.428zm-491.088 1.219c-24.98 24.924-65.64 24.93-90.626 0l-1.222-1.22c-12.105-12.083-18.769-28.136-18.769-45.218 0-17.078 6.664-33.13 18.77-45.209l61.527-61.384c3.296 22.702 13.769 43.651 30.32 60.165l1.227 1.22c16.546 16.513 37.548 26.968 60.3 30.256l-61.527 61.39zM153.915 276.928c-16.546 16.514-27.03 37.463-30.325 60.165l-61.523-61.385c-12.105-12.073-18.77-28.13-18.77-45.208 0-17.083 6.665-33.135 18.77-45.214L185.754 61.877c12.495-12.467 28.903-18.696 45.315-18.696 16.408 0 32.82 6.234 45.31 18.696l1.228 1.22c12.1 12.078 18.769 28.136 18.769 45.213s-6.669 33.136-18.77 45.209l-.61.614-123.081 122.795zm766.63-122.185L796.859 31.329c-41.865-41.772-109.99-41.772-151.855 0l-1.227 1.224c-20.284 20.232-31.45 47.14-31.45 75.757 0 28.618 11.166 55.52 31.45 75.757l.616.61.61.61c12.106 12.078 18.77 28.13 18.77 45.213 0 17.077-6.664 33.135-18.77 45.208l-1.226 1.22c-12.1 12.083-28.195 18.731-45.31 18.731-17.122 0-33.21-6.648-45.311-18.731l-.616-.61-.611-.61C531.645 255.476 504.682 244.33 476 244.33c-28.682 0-55.65 11.14-75.928 31.378l-1.227 1.22c-12.1 12.083-28.194 18.731-45.31 18.731-17.116 0-33.21-6.648-45.31-18.731l-1.228-1.22c-12.105-12.073-18.769-28.13-18.769-45.208 0-17.083 6.664-33.135 18.77-45.214l.61-.61.616-.609c20.279-20.237 31.45-47.14 31.45-75.757 0-28.618-11.171-55.525-31.45-75.757l-1.227-1.224c-41.865-41.772-109.985-41.772-151.855 0L31.454 154.743C11.171 174.98 0 201.883 0 230.5c0 28.618 11.171 55.52 31.454 75.757l123.05 122.774.638.64c41.87 41.772 109.99 41.772 151.855 0L430.69 306.257c24.986-24.93 65.634-24.93 90.62 0l123.693 123.414C665.933 450.555 693.429 461 720.93 461c27.496 0 54.992-10.444 75.927-31.328l123.688-123.414C940.829 286.02 952 259.117 952 230.5c0-28.618-11.171-55.52-31.454-75.757z" mask="url(#r)"/>
            </g>
            <g transform="rotate(16 59.905 444.98)">
                <mask id="t" fill="#fff">
                    <use xlink:href="#s"/>
                </mask>
                <path stroke="#A96FDC" d="M889.928 275.708l-61.569 61.436c-3.214-22.046-13.307-43.282-30.279-60.216L675.62 154.743l-.616-.61-.61-.614c-12.106-12.073-18.77-28.132-18.77-45.209s6.664-33.135 18.77-45.214l1.221-1.219c12.496-12.467 28.903-18.696 45.316-18.696 16.407 0 32.82 6.234 45.31 18.696l123.692 123.41c12.1 12.078 18.764 28.13 18.77 45.213-.006 17.077-6.67 33.135-18.775 45.208zm-122.46 122.196l-1.227 1.219c-24.986 24.924-65.64 24.93-90.626 0l-61.523-61.39c22.748-3.288 43.75-13.743 60.301-30.257l1.222-1.219c16.551-16.514 27.03-37.463 30.325-60.165l61.528 61.384c24.98 24.935 24.98 65.493 0 90.428zm-491.088 1.219c-24.98 24.924-65.64 24.93-90.626 0l-1.222-1.22c-12.105-12.083-18.769-28.136-18.769-45.218 0-17.078 6.664-33.13 18.77-45.209l61.527-61.384c3.296 22.702 13.769 43.651 30.32 60.165l1.227 1.22c16.546 16.513 37.548 26.968 60.3 30.256l-61.527 61.39zM153.915 276.928c-16.546 16.514-27.03 37.463-30.325 60.165l-61.523-61.385c-12.105-12.073-18.77-28.13-18.77-45.208 0-17.083 6.665-33.135 18.77-45.214L185.754 61.877c12.495-12.467 28.903-18.696 45.315-18.696 16.408 0 32.82 6.234 45.31 18.696l1.228 1.22c12.1 12.078 18.769 28.136 18.769 45.213s-6.669 33.136-18.77 45.209l-.61.614-123.081 122.795zm766.63-122.185L796.859 31.329c-41.865-41.772-109.99-41.772-151.855 0l-1.227 1.224c-20.284 20.232-31.45 47.14-31.45 75.757 0 28.618 11.166 55.52 31.45 75.757l.616.61.61.61c12.106 12.078 18.77 28.13 18.77 45.213 0 17.077-6.664 33.135-18.77 45.208l-1.226 1.22c-12.1 12.083-28.195 18.731-45.31 18.731-17.122 0-33.21-6.648-45.311-18.731l-.616-.61-.611-.61C531.645 255.476 504.682 244.33 476 244.33c-28.682 0-55.65 11.14-75.928 31.378l-1.227 1.22c-12.1 12.083-28.194 18.731-45.31 18.731-17.116 0-33.21-6.648-45.31-18.731l-1.228-1.22c-12.105-12.073-18.769-28.13-18.769-45.208 0-17.083 6.664-33.135 18.77-45.214l.61-.61.616-.609c20.279-20.237 31.45-47.14 31.45-75.757 0-28.618-11.171-55.525-31.45-75.757l-1.227-1.224c-41.865-41.772-109.985-41.772-151.855 0L31.454 154.743C11.171 174.98 0 201.883 0 230.5c0 28.618 11.171 55.52 31.454 75.757l123.05 122.774.638.64c41.87 41.772 109.99 41.772 151.855 0L430.69 306.257c24.986-24.93 65.634-24.93 90.62 0l123.693 123.414C665.933 450.555 693.429 461 720.93 461c27.496 0 54.992-10.444 75.927-31.328l123.688-123.414C940.829 286.02 952 259.117 952 230.5c0-28.618-11.171-55.52-31.454-75.757z" mask="url(#t)"/>
            </g>
        </g>
    </g>
</svg>
