<svg xmlns="http://www.w3.org/2000/svg" xmlns:xlink="http://www.w3.org/1999/xlink" width="195" height="43" viewBox="0 0 195 43">
    <defs>
        <path id="a" d="M90.716 42.139H0V0h90.716v42.139z"/>
    </defs>
    <g fill="none" fill-rule="evenodd">
        <mask id="b" fill="#fff">
            <use xlink:href="#a"/>
        </mask>
        <path fill="#FFF" d="M84.801 25.218l-5.866 5.62c-.307-2.017-1.268-3.96-2.886-5.508L64.38 14.154l-.059-.056-.058-.056c-1.153-1.104-1.788-2.573-1.788-4.135 0-1.562.635-3.031 1.788-4.136l.117-.111a6.227 6.227 0 0 1 4.318-1.71c1.563 0 3.127.57 4.317 1.71l11.787 11.288c1.153 1.104 1.788 2.573 1.788 4.135 0 1.562-.635 3.031-1.789 4.135zM73.132 36.395l-.117.112c-2.38 2.28-6.255 2.28-8.635 0l-5.863-5.615a10.325 10.325 0 0 0 5.746-2.768l.117-.111c1.577-1.51 2.575-3.427 2.89-5.503l5.862 5.614a5.683 5.683 0 0 1 0 8.271zm-46.796.112c-2.38 2.28-6.255 2.28-8.635 0l-.117-.112c-1.153-1.105-1.788-2.573-1.788-4.136 0-1.562.635-3.03 1.788-4.135l5.863-5.614c.314 2.076 1.312 3.992 2.89 5.503l.116.111a10.322 10.322 0 0 0 5.746 2.768l-5.863 5.615zM14.666 25.33c-1.576 1.51-2.575 3.427-2.89 5.503l-5.862-5.615c-1.153-1.104-1.788-2.573-1.788-4.135 0-1.562.635-3.03 1.788-4.135L17.701 5.66a6.227 6.227 0 0 1 4.318-1.71c1.563 0 3.127.57 4.317 1.71l.117.111c1.153 1.105 1.789 2.574 1.789 4.136 0 1.562-.636 3.03-1.789 4.135l-.058.056L14.667 25.33zM87.72 14.154L75.933 2.865c-3.99-3.82-10.481-3.82-14.47 0l-.117.112c-1.933 1.851-2.997 4.312-2.997 6.93 0 2.617 1.064 5.078 2.997 6.93l.058.055.058.056c1.154 1.104 1.789 2.573 1.789 4.135 0 1.562-.635 3.031-1.789 4.135l-.116.112a6.201 6.201 0 0 1-4.318 1.713 6.2 6.2 0 0 1-4.318-1.713l-.058-.056-.059-.056c-1.932-1.85-4.502-2.87-7.235-2.87-2.733 0-5.303 1.02-7.235 2.87l-.117.112a6.201 6.201 0 0 1-4.318 1.713 6.201 6.201 0 0 1-4.317-1.713l-.117-.112c-1.154-1.104-1.789-2.573-1.789-4.135 0-1.562.635-3.03 1.789-4.135l.058-.056.059-.056c1.932-1.85 2.997-4.312 2.997-6.93 0-2.617-1.065-5.078-2.997-6.929l-.117-.112c-3.99-3.82-10.48-3.82-14.47 0L2.996 14.154C1.064 16.005 0 18.466 0 21.084c0 2.617 1.064 5.078 2.997 6.929l11.726 11.23.06.058c3.99 3.821 10.481 3.821 14.47 0l11.788-11.288c2.38-2.28 6.254-2.28 8.635 0L61.462 39.3c1.995 1.91 4.615 2.866 7.236 2.866 2.62 0 5.24-.956 7.235-2.866l11.786-11.288c1.933-1.851 2.997-4.312 2.997-6.93 0-2.617-1.064-5.078-2.997-6.93z" mask="url(#b)"/>
        <path fill="#FFF" d="M136.01 24.102c0 .786-.586 1.47-1.396 1.627a20.104 20.104 0 0 1-7.588 0c-.81-.157-1.396-.841-1.396-1.627V12.835h-3.46v11.267c0 .786-.588 1.47-1.398 1.627a20.104 20.104 0 0 1-7.587 0c-.81-.157-1.398-.841-1.398-1.627V12.835h-3.46v11.267c0 2.356 1.754 4.406 4.17 4.875a23.599 23.599 0 0 0 8.962 0 5.277 5.277 0 0 0 2.44-1.178c.673.58 1.507.997 2.44 1.178a23.604 23.604 0 0 0 8.962 0c2.417-.469 4.17-2.519 4.17-4.875V12.835h-3.46v11.267M190.67 13.264a23.73 23.73 0 0 0-8.963 0 5.266 5.266 0 0 0-2.44 1.178 5.27 5.27 0 0 0-2.44-1.178 23.727 23.727 0 0 0-8.962 0c-2.416.468-4.17 2.519-4.17 4.875v11.267h3.46V18.14c0-.786.588-1.47 1.397-1.627a20.104 20.104 0 0 1 7.588 0c.81.157 1.397.841 1.397 1.627v11.267h3.46V18.14c0-.786.588-1.47 1.397-1.627a20.107 20.107 0 0 1 7.588 0c.81.157 1.396.841 1.396 1.627v11.267h3.461V18.14c0-2.356-1.754-4.407-4.17-4.875M149.853 29.406h3.46V12.835h-3.46z"/>
    </g>
</svg>
