<svg xmlns="http://www.w3.org/2000/svg" width="163" height="268" viewBox="0 0 163 268">
    <g fill="none" fill-rule="evenodd" stroke="#A96FDC" stroke-width="2">
        <path d="M130.93 1.334l30.339 156.079-158.042 30.72-30.339-156.079z" opacity=".1"/>
        <path d="M125.585 10.523l30.339 156.079-158.042 30.72-30.339-156.079z" opacity=".2"/>
        <path d="M119.45 20.884l30.338 156.079-158.042 30.72-30.338-156.079z" opacity=".3"/>
        <path d="M113.314 31.245l30.339 156.079-158.042 30.72-30.339-156.079z" opacity=".4"/>
        <path d="M106.387 42.779l30.339 156.078-158.042 30.72L-51.655 73.5z" opacity=".5"/>
        <path d="M97.498 54.694l30.338 156.079-158.042 30.72-30.338-156.079z" opacity=".6"/>
        <path d="M89.59 66.418l30.338 156.079-158.042 30.72-30.339-156.079z" opacity=".7"/>
        <path d="M81.681 78.143L112.02 234.22l-158.042 30.72-30.339-156.078z" opacity=".8"/>
        <path d="M73.773 89.867l30.339 156.079-158.042 30.72-30.339-156.079z"/>
    </g>
</svg>
