<svg xmlns="http://www.w3.org/2000/svg" width="219" height="312" viewBox="0 0 219 312">
    <g fill="none" fill-rule="evenodd" stroke="#A96FDC" stroke-width="2">
        <path d="M67.747 1.324L213 65.994l-65.484 147.082L2.262 148.404z" opacity=".1"/>
        <path d="M72.208 10.972l145.254 64.671-65.485 147.081-145.254-64.67z" opacity=".2"/>
        <path d="M77.176 21.941L222.43 86.612l-65.485 147.081-145.254-64.67z" opacity=".3"/>
        <path d="M82.144 32.91l145.254 64.671-65.485 147.081-145.254-64.67z" opacity=".4"/>
        <path d="M87.619 45.2l145.253 64.67-65.484 147.082L22.134 192.28z" opacity=".5"/>
        <path d="M92.28 59.316l145.254 64.671-65.485 147.08-145.254-64.67z" opacity=".6"/>
        <path d="M97.348 72.519l145.254 64.67-65.485 147.082L31.863 219.6z" opacity=".7"/>
        <path d="M102.416 85.722l145.254 64.67-65.485 147.082-145.253-64.672z" opacity=".8"/>
        <path d="M107.484 98.924l145.254 64.672-65.485 147.08L42 246.006z"/>
    </g>
</svg>
