<svg xmlns="http://www.w3.org/2000/svg" xmlns:xlink="http://www.w3.org/1999/xlink" width="594" height="585" viewBox="0 0 594 585">
    <defs>
        <path id="a" d="M594 582H0V0h594v582z"/>
        <path id="c" d="M594 582H0V0h594v582z"/>
    </defs>
    <g fill="none" fill-rule="evenodd">
        <g transform="translate(0 3)">
            <mask id="b" fill="#fff">
                <use xlink:href="#a"/>
            </mask>
            <path fill="#181818" d="M262.532-298.78c-89.448-85.627-235-85.627-324.449 0-45.958 43.985-69.814 99.141-69.814 157.805 0 58.663 23.856 113.809 67.193 155.294 28.485 27.258 42.722 60.165 42.722 95.182 0 35.007-14.237 67.925-40.1 92.673-28.475 27.268-62.861 40.897-99.43 40.897-36.58 0-70.956-13.629-96.808-38.398-45.958-43.974-103.565-66.822-164.846-66.822-61.281 0-118.899 22.838-162.224 64.323-28.474 27.268-62.86 40.897-99.43 40.897-36.569 0-70.955-13.629-96.808-38.398-28.485-27.247-42.722-60.165-42.722-95.172 0-35.017 14.237-67.924 40.1-92.683 45.948-43.984 69.815-99.13 69.815-157.793 0-58.664-23.867-113.82-67.193-155.295-92.07-88.137-237.61-88.137-327.07-2.51l-264.264 252.987C-1416.133-4.308-1440 50.838-1440 109.5c0 58.664 23.867 113.81 67.204 155.295l262.904 251.674c90.82 86.94 236.36 86.94 325.809 1.312l264.275-252.986c53.384-51.103 140.232-51.103 193.616 0l264.275 252.986C-17.198 560.591 41.55 582 100.307 582c58.748 0 117.495-21.41 162.225-64.218l264.264-252.986C570.133 223.31 594 168.165 594 109.5c0-58.663-23.867-113.809-67.204-155.294L262.532-298.78z" mask="url(#b)"/>
        </g>
        <g transform="translate(-8 -15)">
            <mask id="d" fill="#fff">
                <use xlink:href="#c"/>
            </mask>
            <path fill="#212121" d="M262.532-298.78c-89.448-85.627-235-85.627-324.449 0-45.958 43.985-69.814 99.141-69.814 157.805 0 58.663 23.856 113.809 67.193 155.294 28.485 27.258 42.722 60.165 42.722 95.182 0 35.007-14.237 67.925-40.1 92.673-28.475 27.268-62.861 40.897-99.43 40.897-36.58 0-70.956-13.629-96.808-38.398-45.958-43.974-103.565-66.822-164.846-66.822-61.281 0-118.899 22.838-162.224 64.323-28.474 27.268-62.86 40.897-99.43 40.897-36.569 0-70.955-13.629-96.808-38.398-28.485-27.247-42.722-60.165-42.722-95.172 0-35.017 14.237-67.924 40.1-92.683 45.948-43.984 69.815-99.13 69.815-157.793 0-58.664-23.867-113.82-67.193-155.295-92.07-88.137-237.61-88.137-327.07-2.51l-264.264 252.987C-1416.133-4.308-1440 50.838-1440 109.5c0 58.664 23.867 113.81 67.204 155.295l262.904 251.674c90.82 86.94 236.36 86.94 325.809 1.312l264.275-252.986c53.384-51.103 140.232-51.103 193.616 0l264.275 252.986C-17.198 560.591 41.55 582 100.307 582c58.748 0 117.495-21.41 162.225-64.218l264.264-252.986C570.133 223.31 594 168.165 594 109.5c0-58.663-23.867-113.809-67.204-155.294L262.532-298.78z" mask="url(#d)"/>
        </g>
    </g>
</svg>
