<svg xmlns="http://www.w3.org/2000/svg" width="20" height="20" viewBox="0 0 20 20">
    <path fill="#FFF" fill-rule="nonzero" d="M20 12.262V20h-4.287v-7.22c0-1.813-.62-3.051-2.171-3.051-1.185 0-1.89.834-2.2 1.64-.113.29-.142.69-.142 1.095V20H6.912s.058-12.228 0-13.495H11.2v1.913l-.029.044h.029v-.044c.57-.918 1.587-2.23 3.864-2.23 2.821 0 4.936 1.929 4.936 6.074zM2.426 0C.96 0 0 1.007 0 2.331c0 1.295.932 2.333 2.37 2.333h.028c1.496 0 2.426-1.037 2.426-2.333C4.795 1.007 3.894 0 2.426 0zM.255 20H4.54V6.505H.255V20z"/>
</svg>
