<svg xmlns="http://www.w3.org/2000/svg" xmlns:xlink="http://www.w3.org/1999/xlink" width="68" height="114" viewBox="0 0 68 114">
    <defs>
        <path id="a" d="M40.872 18.986H0V0h40.872v18.986z"/>
    </defs>
    <g fill="none" fill-rule="evenodd">
        <path fill="#A96FDC" d="M33.707 114L3.197 48.493c-7.951-17.07-.559-37.354 16.512-45.305A34.097 34.097 0 0 1 34.105 0c18.713 0 33.882 15.17 33.882 33.882 0 5.008-1.11 9.954-3.25 14.481L33.707 114z"/>
        <g transform="translate(13 21)">
            <mask id="b" fill="#fff">
                <use xlink:href="#a"/>
            </mask>
            <path fill="#FFF" d="M38.207 11.362l-2.643 2.532a4.327 4.327 0 0 0-1.3-2.482l-5.258-5.035-.026-.025-.026-.025a2.562 2.562 0 0 1-.806-1.863c0-.704.286-1.366.806-1.864l.052-.05a2.806 2.806 0 0 1 1.946-.77c.704 0 1.409.256 1.945.77l5.31 5.086c.52.498.806 1.16.806 1.863 0 .704-.286 1.366-.806 1.863zm-5.257 5.036l-.053.05c-1.073 1.027-2.818 1.028-3.89 0l-2.642-2.53a4.652 4.652 0 0 0 2.589-1.247l.052-.05a4.317 4.317 0 0 0 1.302-2.48l2.642 2.53a2.56 2.56 0 0 1 0 3.727zm-21.084.05c-1.073 1.027-2.818 1.028-3.891 0l-.052-.05a2.564 2.564 0 0 1-.806-1.864c0-.703.286-1.365.806-1.863l2.641-2.53a4.316 4.316 0 0 0 1.302 2.48l.052.05a4.65 4.65 0 0 0 2.59 1.247l-2.642 2.53zm-5.258-5.036a4.318 4.318 0 0 0-1.302 2.48l-2.641-2.53A2.562 2.562 0 0 1 1.859 9.5c0-.704.286-1.365.806-1.863l5.31-5.086a2.806 2.806 0 0 1 1.945-.77c.705 0 1.41.256 1.946.77l.052.05c.52.498.806 1.16.806 1.864 0 .703-.286 1.365-.806 1.863l-.026.025-5.284 5.06zm32.914-5.035l-5.31-5.086c-1.798-1.721-4.723-1.721-6.52 0l-.053.05a4.294 4.294 0 0 0-1.35 3.123c0 1.179.48 2.288 1.35 3.122l.027.025.026.025c.52.498.806 1.16.806 1.863 0 .704-.286 1.366-.806 1.863l-.053.05c-.52.498-1.21.772-1.945.772a2.794 2.794 0 0 1-1.945-.772l-.027-.025-.026-.025a4.685 4.685 0 0 0-3.26-1.293c-1.231 0-2.39.46-3.26 1.293l-.052.05c-.52.498-1.21.772-1.946.772a2.794 2.794 0 0 1-1.945-.772l-.053-.05a2.562 2.562 0 0 1-.805-1.863c0-.704.286-1.365.805-1.863l.027-.025.026-.025a4.295 4.295 0 0 0 1.35-3.122c0-1.18-.48-2.289-1.35-3.123l-.053-.05c-1.797-1.721-4.722-1.721-6.52 0L1.35 6.377A4.294 4.294 0 0 0 0 9.5c0 1.18.48 2.288 1.35 3.122l5.283 5.06.028.026c1.797 1.722 4.722 1.722 6.52 0l5.31-5.086c1.072-1.027 2.818-1.027 3.89 0l5.31 5.086a4.702 4.702 0 0 0 3.26 1.291c1.181 0 2.362-.43 3.26-1.29l5.31-5.087A4.294 4.294 0 0 0 40.873 9.5c0-1.18-.48-2.288-1.35-3.122z" mask="url(#b)"/>
        </g>
    </g>
</svg>
