<svg xmlns="http://www.w3.org/2000/svg" xmlns:xlink="http://www.w3.org/1999/xlink" width="15" height="17" viewBox="0 0 15 17">
    <defs>
        <path id="a" d="M12.329.498V8H.197V.498h12.132z"/>
    </defs>
    <g fill="none" fill-rule="evenodd">
        <g transform="translate(2 8.258)">
            <mask id="b" fill="#fff">
                <use xlink:href="#a"/>
            </mask>
            <path fill="#FFF" d="M7.502 8c-.271 0-.543-.029-.812-.088C5.273 7.598 2.556 6.61.294 3.524a.5.5 0 1 1 .807-.59c1.964 2.679 4.24 3.655 5.805 4.001.66.146 1.354.044 1.953-.287 1.407-.775 2.299-1.579 2.45-2.204a.698.698 0 0 0-.117-.586 36.156 36.156 0 0 0-1.207-1.682c-.181-.236-.461-.345-.715-.28-.66.17-1.281.433-1.027 1.575a.499.499 0 0 1-.591.597c-.11-.023-2.716-.593-4.315-2.774a.5.5 0 0 1 .807-.591c.916 1.249 2.249 1.891 3.044 2.182.035-.798.456-1.601 1.83-1.957.646-.166 1.337.084 1.76.641.296.386.736.98 1.243 1.728a1.7 1.7 0 0 1 .26 1.381c-.225.937-1.214 1.895-2.938 2.846A3.817 3.817 0 0 1 7.502 8" mask="url(#b)"/>
        </g>
        <path fill="#FFF" d="M2.697 11.987a.5.5 0 0 1-.404-.205C.283 9.04-.059 6.472.007 4.802A4.382 4.382 0 0 1 1.461 1.71C2.791.506 3.912-.068 4.825.007a1.7 1.7 0 0 1 1.215.66c.56.71.995 1.307 1.275 1.705.402.574.434 1.308.081 1.872-.467.745-1.33 1.419-2.404 1.226.032.807.232 2.237 1.151 3.49a.5.5 0 1 1-.806.592c-1.6-2.184-1.342-4.725-1.33-4.832a.5.5 0 0 1 .73-.388c.932.489 1.535-.178 1.812-.618.137-.22.116-.527-.053-.767a37.637 37.637 0 0 0-1.24-1.658.694.694 0 0 0-.514-.286c-.58-.044-1.54.479-2.609 1.448a3.39 3.39 0 0 0-1.127 2.39c-.06 1.513.254 3.84 2.094 6.35a.5.5 0 0 1-.403.796"/>
    </g>
</svg>
